if (_typeface_js && _typeface_js.loadFace) _typeface_js.loadFace({"glyphs":{"ᴴ":{"x_min":22.375,"x_max":636.125,"ha":659,"o":"m 121 1020 l 269 1020 l 231 804 l 450 804 l 488 1020 l 636 1020 l 537 452 l 389 452 l 431 693 l 212 693 l 170 453 l 22 453 l 121 1020 "},"Ҿ":{"x_min":53.546875,"x_max":1230.421875,"ha":1283,"o":"m 312 624 q 476 891 368 789 q 845 1031 625 1031 q 1164 891 1064 1031 q 1211 449 1266 752 l 519 449 q 559 256 500 342 q 761 169 621 169 q 916 193 837 169 q 1080 265 996 216 l 1044 55 q 877 0 963 18 q 699 -20 790 -20 q 353 120 463 -20 q 277 449 254 244 q 101 552 168 449 q 60 795 35 654 l 69 848 l 247 848 l 236 789 q 256 665 223 717 q 312 624 286 617 m 557 624 l 990 624 q 964 753 990 701 q 812 842 920 842 q 629 753 704 842 q 557 624 585 701 m 676 -11 l 763 -11 q 703 -88 719 -61 q 688 -134 688 -115 q 703 -170 688 -157 q 745 -183 718 -183 q 793 -177 768 -183 q 844 -162 818 -172 l 827 -265 q 764 -278 791 -274 q 713 -283 736 -283 q 614 -259 648 -283 q 581 -191 581 -236 q 603 -104 581 -147 q 676 -11 626 -61 "},"ȋ":{"x_min":38.3125,"x_max":521,"ha":427,"o":"m 171 760 l 390 760 l 257 0 l 38 0 l 171 760 m 519 888 l 433 888 l 433 894 q 406 961 433 937 q 331 985 380 985 q 250 961 282 985 q 201 888 218 937 l 108 888 q 192 1036 129 984 q 349 1089 254 1089 q 478 1047 435 1089 q 521 923 521 1005 q 521 901 521 908 q 519 888 521 894 "},"ճ":{"x_min":48.953125,"x_max":878.90625,"ha":890,"o":"m 543 772 q 631 721 590 752 q 764 400 798 593 l 694 0 l 476 0 l 495 109 q 373 11 434 42 q 246 -20 312 -20 q 80 60 127 -20 q 58 295 31 141 l 75 393 q 206 668 100 532 q 126 680 170 675 l 156 851 q 361 829 269 851 q 478 923 404 866 q 878 1048 638 1048 l 848 872 q 543 772 646 872 m 400 615 q 295 393 314 499 l 288 355 q 278 272 281 312 q 282 213 273 234 q 310 176 290 189 q 358 164 330 164 q 475 222 426 164 q 543 384 533 290 l 545 401 q 468 585 558 541 q 400 615 417 609 "},"⣌":{"x_min":183,"x_max":793,"ha":976,"o":"m 183 362 l 427 362 l 427 91 l 183 91 l 183 362 m 549 1085 l 793 1085 l 793 814 l 549 814 l 549 1085 m 183 0 l 427 0 l 427 -271 l 183 -271 l 183 0 m 549 0 l 793 0 l 793 -271 l 549 -271 l 549 0 "},"׃":{"x_min":56.28125,"x_max":407.578125,"ha":465,"o":"m 189 760 l 407 760 l 362 499 l 143 499 l 189 760 m 101 261 l 320 261 l 274 0 l 56 0 l 101 261 "},"Ꙫ":{"x_min":51.90625,"x_max":1244.78125,"ha":1296,"o":"m 419 627 l 620 627 l 577 378 l 375 378 l 419 627 m 718 627 l 919 627 l 876 378 l 674 378 l 718 627 m 706 842 q 438 753 543 842 q 305 505 332 665 q 351 257 277 345 q 589 169 426 169 q 858 257 753 169 q 991 505 963 345 q 945 753 1019 665 q 706 842 870 842 m 740 1031 q 1146 891 1015 1031 q 1234 505 1277 751 q 1011 119 1191 259 q 556 -20 830 -20 q 150 119 282 -20 q 62 505 19 259 q 285 891 105 751 q 740 1031 466 1031 "},"ꙥ":{"x_min":2.71875,"x_max":1176.625,"ha":1143,"o":"m 2 0 l 33 173 q 183 277 145 198 q 264 635 210 335 l 286 760 l 1176 760 l 1150 610 l 851 610 l 743 0 l 525 0 l 627 586 l 474 586 l 469 561 q 360 176 419 266 q 2 0 244 0 "},"⏥":{"x_min":3.390625,"x_max":957.578125,"ha":961,"o":"m 684 181 l 851 540 l 276 540 l 109 181 l 684 181 m 717 104 l 3 104 l 244 617 l 957 617 l 717 104 "},"ϼ":{"x_min":-37.984375,"x_max":874.015625,"ha":895,"o":"m 628 544 q 531 602 601 602 q 413 544 461 602 q 347 379 366 487 q 356 213 328 270 q 454 156 383 156 q 571 213 524 156 q 636 379 617 270 q 628 544 655 487 m -37 -213 l -14 -82 l 48 -82 l 126 366 q 267 654 160 557 q 443 760 364 739 q 644 778 548 786 q 832 666 762 768 q 862 379 895 571 q 731 92 832 203 q 503 -20 630 -20 q 383 11 432 -20 q 300 109 333 42 l 266 -82 l 495 -82 l 473 -213 l 244 -213 l 230 -288 l 12 -288 l 25 -213 l -37 -213 "},"◦":{"x_min":180,"x_max":619,"ha":799,"o":"m 235 592 q 223 516 223 557 q 236 441 223 476 q 273 377 249 405 q 330 335 299 350 q 398 321 362 321 q 466 335 434 321 q 523 377 498 350 q 561 441 548 405 q 575 517 575 476 q 562 591 575 556 q 523 654 549 626 q 466 696 498 681 q 399 711 435 711 q 331 696 363 711 q 273 654 299 682 q 235 592 248 627 m 196 422 q 180 517 180 466 q 195 611 180 567 q 243 689 211 655 q 315 742 275 724 q 399 760 355 760 q 483 741 443 760 q 554 689 524 723 q 602 610 586 654 q 619 517 619 566 q 602 422 619 466 q 554 343 585 377 q 483 290 523 308 q 398 272 443 272 q 313 290 353 272 q 242 343 273 308 q 196 422 212 377 "},"Ⅽ":{"x_min":45,"x_max":905.421875,"ha":917,"o":"m 757 47 q 595 -3 673 13 q 448 -20 518 -20 q 154 91 264 -20 q 45 388 45 203 q 79 617 45 509 q 182 813 114 725 q 374 974 262 918 q 617 1031 487 1031 q 759 1012 688 1031 q 905 955 831 993 l 867 746 q 749 818 808 795 q 622 842 690 842 q 386 721 481 842 q 291 418 291 600 q 349 235 291 302 q 511 169 408 169 q 642 193 573 169 q 797 271 711 218 l 757 47 "},"ͅ":{"x_min":-460.625,"x_max":-304.5,"ha":0,"o":"m -313 -289 l -422 -289 q -454 -165 -476 -289 l -436 -62 l -317 -62 l -335 -166 q -316 -237 -347 -237 l -304 -237 l -313 -289 "},"ѕ":{"x_min":12.65625,"x_max":700.015625,"ha":744,"o":"m 700 735 l 668 546 q 540 598 603 580 q 419 616 476 616 q 320 597 355 616 q 285 544 285 578 q 304 511 285 523 q 381 485 324 499 l 421 477 q 606 397 553 446 q 660 260 660 348 q 566 54 660 128 q 305 -20 473 -20 q 161 -7 234 -20 q 12 28 88 4 l 45 219 q 172 160 104 180 q 310 141 239 141 q 414 159 379 141 q 449 212 449 177 q 429 250 449 237 q 348 278 409 264 l 308 286 q 142 366 192 314 q 92 513 92 419 q 178 708 92 640 q 424 777 264 777 q 563 766 495 777 q 700 735 631 756 "},"⚭":{"x_min":219,"x_max":828,"ha":1047,"o":"m 440 371 q 417 415 427 392 q 402 505 402 458 q 417 598 402 558 q 440 643 427 621 q 431 643 436 643 q 385 632 406 643 q 345 602 360 620 q 319 558 328 581 q 310 506 310 534 q 319 455 310 479 q 345 411 328 429 q 385 381 363 392 q 431 371 406 371 q 440 371 436 371 m 523 292 q 513 286 518 289 q 431 269 476 269 q 351 286 386 269 q 282 338 310 307 q 234 415 251 372 q 219 505 219 458 q 234 598 219 555 q 282 675 251 641 q 351 727 311 708 q 431 745 387 745 q 513 727 478 745 q 523 721 518 724 q 534 727 528 724 q 615 745 570 745 q 696 727 659 745 q 765 675 735 708 q 812 598 796 641 q 828 505 828 555 q 812 415 828 458 q 765 338 796 372 q 696 286 737 307 q 615 269 661 269 q 534 286 570 269 q 523 292 528 289 m 606 371 l 615 371 q 661 381 640 371 q 701 411 681 390 q 728 455 718 429 q 737 506 737 479 q 728 558 737 534 q 701 602 717 585 q 661 632 681 624 q 615 643 640 643 q 607 643 611 643 q 629 598 619 621 q 645 505 645 555 q 629 415 645 458 q 606 371 619 392 m 523 417 q 545 455 536 433 q 554 506 554 479 q 545 558 554 534 q 523 596 536 580 q 502 558 509 576 q 493 506 493 534 q 502 455 493 479 q 523 417 510 433 "},"◴":{"x_min":68,"x_max":1022,"ha":1090,"o":"m 131 94 q 68 359 68 217 q 131 623 68 500 q 306 818 195 747 q 545 889 417 889 q 783 818 672 889 q 957 623 893 747 q 1022 359 1022 500 q 957 94 1022 217 q 783 -99 893 -28 q 545 -171 672 -171 q 306 -99 417 -171 q 131 94 195 -28 m 509 813 q 338 750 423 803 q 147 399 147 629 l 509 399 l 509 813 m 147 322 q 335 -28 147 91 q 540 -94 438 -94 q 745 -28 642 -94 q 950 360 950 101 q 747 750 950 619 q 579 813 663 803 l 579 322 l 147 322 "},"℣":{"x_min":27.125,"x_max":1096.59375,"ha":1043,"o":"m 631 1021 l 447 1109 l 509 1228 l 794 1093 l 468 483 l 506 250 l 922 1060 l 1096 1060 l 547 0 l 378 0 l 337 238 l 126 -157 l 27 -110 l 307 416 l 199 1060 l 374 1060 l 439 662 l 631 1021 "},"໊":{"x_min":-845.625,"x_max":46.796875,"ha":0,"o":"m -577 1343 q -499 1291 -537 1343 q -448 1254 -468 1254 q -377 1294 -429 1254 q -260 1339 -314 1339 q -136 1110 -94 1339 q -212 1001 -149 1042 q -119 1018 -138 1001 q -89 1088 -96 1039 l 46 1088 q -62 907 27 974 q -297 879 -99 879 l -446 879 l -425 996 q -263 1125 -275 1066 q -282 1214 -242 1224 q -337 1179 -295 1211 q -463 1136 -396 1136 q -564 1173 -542 1136 q -619 1213 -585 1210 q -709 1065 -657 1220 q -674 974 -725 974 q -672 1022 -677 993 q -576 1100 -655 1100 q -507 1010 -488 1100 q -577 893 -524 930 q -697 863 -623 863 q -839 1065 -875 863 q -577 1343 -790 1343 "},"≷":{"x_min":127,"x_max":916,"ha":1048,"o":"m 910 283 l 362 141 l 910 0 l 910 -164 l 127 63 l 127 222 l 910 449 l 910 283 m 133 775 l 133 941 l 916 714 l 916 555 l 133 327 l 133 492 l 681 634 l 133 775 "},"︢":{"x_min":-268.5625,"x_max":210.90625,"ha":0,"o":"m 189 1084 l 187 1084 l 103 1108 q 41 1128 50 1126 q -6 1135 15 1135 q -94 1110 -58 1135 q -151 1050 -144 1077 l -268 1050 q -172 1192 -250 1141 q 23 1242 -94 1242 q 128 1232 91 1242 q 210 1207 143 1228 l 189 1084 "},"ἣ":{"x_min":62.359375,"x_max":839.90625,"ha":890,"o":"m 830 462 l 698 -289 l 478 -289 l 543 75 l 591 354 q 611 489 611 452 q 607 544 611 527 q 579 582 598 568 q 530 595 558 595 q 413 535 462 595 q 345 373 364 477 l 280 0 l 62 0 l 195 760 l 413 760 l 393 648 q 516 746 455 715 q 644 778 577 778 q 809 697 762 778 q 830 462 857 616 m 430 1090 l 415 1000 l 325 1000 q 399 909 309 909 l 384 826 q 251 1021 217 826 l 263 1090 l 430 1090 m 647 1111 l 775 856 l 655 856 l 474 1111 l 647 1111 "},"ԋ":{"x_min":35.171875,"x_max":1195.328125,"ha":1266,"o":"m 821 759 l 747 336 q 743 286 743 309 q 758 208 743 243 q 825 167 777 167 q 907 208 875 167 q 962 336 949 262 l 995 522 l 1195 522 l 1156 295 q 1022 60 1131 157 q 786 -20 930 -20 q 574 60 636 -20 q 516 230 516 133 q 522 294 516 261 l 526 320 l 309 320 l 253 0 l 35 0 l 168 758 l 387 758 l 336 470 l 552 470 l 603 759 l 821 759 "},"ᓠ":{"x_min":100.375,"x_max":1555.71875,"ha":1604,"o":"m 129 589 l 296 589 l 267 422 l 100 422 l 129 589 m 1521 453 l 828 453 q 715 415 759 453 q 659 310 671 378 q 676 226 650 256 q 782 197 701 197 l 748 0 q 464 81 537 0 q 417 310 391 162 q 559 564 446 478 q 861 650 672 650 l 1555 650 l 1521 453 m 846 926 l 1013 926 l 985 759 l 817 759 l 846 926 "},"✉":{"x_min":81,"x_max":967,"ha":1047,"o":"m 619 591 l 887 794 l 160 794 l 429 591 q 437 602 433 597 q 477 632 455 621 q 523 643 498 643 q 570 632 548 643 q 609 602 596 619 q 619 591 614 596 m 643 481 l 906 284 l 906 727 l 643 530 q 645 506 645 518 q 643 481 645 493 m 430 421 l 160 217 l 887 217 l 617 421 q 609 411 613 415 q 570 381 592 392 q 523 371 548 371 q 477 381 498 371 q 437 411 455 392 q 430 421 433 415 m 404 531 l 142 727 l 142 284 l 404 480 q 402 506 402 493 q 404 531 402 518 m 81 149 l 81 863 l 967 863 l 967 149 l 81 149 "},"⇱":{"x_min":75,"x_max":985.546875,"ha":1048,"o":"m 240 761 l 300 829 l 639 829 l 639 690 l 468 690 l 969 133 l 865 18 l 365 574 l 365 384 l 240 384 l 240 761 m 985 1013 l 985 932 l 148 932 l 148 0 l 75 0 l 75 1013 l 985 1013 "},"ᕺ":{"x_min":131.96875,"x_max":1149,"ha":1220,"o":"m 377 329 l 451 750 l 275 513 l 131 654 l 408 1012 l 732 1012 l 669 654 q 814 671 734 671 q 1092 585 1014 671 q 1149 417 1149 523 q 1140 329 1149 376 q 993 68 1110 156 q 693 -20 876 -20 q 439 70 530 -20 q 370 252 370 139 q 377 329 370 288 m 726 169 q 833 210 783 169 q 897 329 884 251 q 901 370 901 351 q 880 442 901 414 q 779 482 850 482 q 670 444 713 482 q 613 329 626 407 q 609 288 609 307 q 634 210 609 240 q 726 169 668 169 m 575 1288 l 742 1288 l 714 1121 l 547 1121 l 575 1288 "},"k":{"x_min":38.65625,"x_max":894.5,"ha":831,"o":"m 222 1055 l 442 1055 l 342 483 l 637 760 l 894 760 l 497 408 l 786 0 l 536 0 l 314 327 l 257 0 l 38 0 l 222 1055 "},"ȇ":{"x_min":45,"x_max":800,"ha":847,"o":"m 785 350 l 778 312 l 267 312 q 266 300 267 307 q 265 288 265 292 q 305 177 265 214 q 425 141 345 141 q 571 164 494 141 q 732 232 648 187 l 698 44 q 540 -4 619 11 q 378 -20 461 -20 q 131 62 218 -20 q 45 293 45 144 q 72 462 45 380 q 153 611 99 543 q 304 734 216 692 q 498 777 391 777 q 718 694 637 777 q 800 474 800 612 q 796 416 800 446 q 785 350 793 386 m 579 462 q 582 479 582 470 q 582 497 582 489 q 552 584 582 552 q 473 616 523 616 q 365 576 410 616 q 296 462 320 537 l 579 462 m 727 888 l 641 888 l 641 894 q 614 961 641 937 q 539 985 588 985 q 458 961 490 985 q 409 888 426 937 l 316 888 q 399 1036 337 984 q 557 1089 462 1089 q 685 1047 642 1089 q 729 923 729 1005 q 729 901 729 908 q 727 888 729 894 "},"𝍖":{"x_min":104,"x_max":1017,"ha":1121,"o":"m 311 0 l 104 0 l 104 136 l 311 136 l 311 0 m 810 0 l 810 136 l 1017 136 l 1017 0 l 810 0 m 663 0 l 457 0 l 457 136 l 663 136 l 663 0 m 311 260 l 104 260 l 104 396 l 311 396 l 311 260 m 810 260 l 810 396 l 1017 396 l 1017 260 l 810 260 m 663 260 l 457 260 l 457 396 l 663 396 l 663 260 m 311 521 l 104 521 l 104 657 l 311 657 l 311 521 m 810 521 l 810 657 l 1017 657 l 1017 521 l 810 521 m 663 521 l 457 521 l 457 657 l 663 657 l 663 521 m 311 781 l 104 781 l 104 917 l 311 917 l 311 781 m 810 781 l 810 917 l 1017 917 l 1017 781 l 810 781 m 663 781 l 457 781 l 457 917 l 663 917 l 663 781 "},"≚":{"x_min":132,"x_max":915,"ha":1047,"o":"m 132 669 l 915 669 l 915 510 l 132 510 l 132 669 m 132 361 l 915 361 l 915 200 l 132 200 l 132 361 m 310 1166 l 446 1166 l 524 942 l 606 1166 l 737 1166 l 579 713 l 469 713 l 310 1166 "},"Ⴣ":{"x_min":89.484375,"x_max":799.21875,"ha":769,"o":"m 420 -51 l 498 389 q 475 362 487 373 q 448 343 462 351 q 422 333 435 336 q 400 330 409 330 q 300 352 345 330 q 226 414 255 375 q 187 493 196 453 q 179 563 179 534 q 183 617 179 590 l 185 630 l 89 630 l 122 818 l 407 818 l 388 712 q 379 636 384 670 q 374 580 374 603 q 374 560 374 576 q 386 530 374 545 q 432 515 399 515 q 465 522 448 515 q 496 543 482 530 q 522 575 511 557 q 537 613 534 593 l 613 1052 l 799 1052 l 606 -51 l 420 -51 "},"☈":{"x_min":104,"x_max":1009.546875,"ha":1119,"o":"m 144 1015 l 970 1015 q 1009 959 1009 1015 q 992 918 1009 936 l 642 530 l 939 201 l 1004 346 l 1004 51 l 733 51 l 874 136 l 552 498 q 543 540 543 509 q 574 593 543 559 l 870 918 l 191 918 l 191 47 q 147 0 191 0 q 104 45 104 0 l 104 976 q 144 1015 104 1015 "},"ჳ":{"x_min":16,"x_max":717.640625,"ha":691,"o":"m 591 3 q 255 -277 541 -277 q 16 -71 16 -277 q 23 7 16 -35 l 58 97 l 239 76 l 213 2 q 209 -40 209 -21 q 284 -122 209 -122 q 403 3 381 -122 l 406 23 q 413 88 413 60 q 341 184 413 184 l 278 184 l 303 329 l 366 329 q 501 555 460 329 l 323 555 l 307 454 l 125 454 l 168 712 l 717 712 q 499 277 661 400 q 601 84 601 207 q 595 23 601 55 l 591 3 "},"ꜷ":{"x_min":22,"x_max":1277.375,"ha":1315,"o":"m 944 110 q 696 -20 833 -20 q 552 34 603 -20 q 507 124 519 70 q 232 -20 417 -20 q 78 35 135 -20 q 22 186 22 91 q 122 409 22 332 q 414 486 222 486 l 543 486 l 545 504 q 548 525 548 523 q 509 593 548 570 q 396 616 471 616 q 264 600 328 616 q 142 553 201 584 l 174 739 q 315 767 243 757 q 464 777 387 777 q 690 719 616 777 q 764 542 764 661 q 752 433 764 495 l 726 286 q 725 250 725 273 q 747 188 725 228 q 808 165 768 165 q 925 223 876 165 q 991 385 974 282 l 1058 760 l 1277 760 l 1145 0 l 924 0 l 944 110 m 411 342 q 287 313 329 342 q 246 230 246 285 q 270 164 246 188 q 339 141 295 141 q 451 186 405 141 q 511 314 496 231 l 516 342 l 411 342 "},"▎":{"x_min":-12,"x_max":234,"ha":961,"o":"m -12 -347 l -12 1069 l 234 1069 l 234 -347 l -12 -347 "},"ƀ":{"x_min":14.921875,"x_max":824.65625,"ha":895,"o":"m 345 647 q 463 745 402 714 q 595 777 524 777 q 783 665 722 777 q 814 378 845 554 q 682 91 783 202 q 455 -20 582 -20 q 335 11 384 -20 q 252 109 285 43 l 233 0 l 14 0 l 161 839 l 67 839 l 91 978 l 185 978 l 198 1055 l 417 1055 l 404 978 l 604 978 l 579 839 l 379 839 l 345 647 m 307 213 q 405 156 335 156 q 522 212 475 156 q 588 378 569 269 q 580 544 607 487 q 483 601 553 601 q 365 543 413 601 q 299 378 318 486 q 307 213 280 270 "},"𝞔":{"x_min":26.453125,"x_max":837.53125,"ha":854,"o":"m 204 1013 l 837 1013 l 802 816 l 404 816 l 370 627 l 746 627 l 710 430 l 336 430 l 295 197 l 707 197 l 674 0 l 26 0 l 204 1013 "},"⎢":{"x_min":78,"x_max":256,"ha":625,"o":"m 78 1070 l 256 1070 l 256 -350 l 78 -350 l 78 1070 "},"∺":{"x_min":132,"x_max":915,"ha":1047,"o":"m 132 516 l 915 516 l 915 356 l 132 356 l 132 516 m 695 877 l 915 877 l 915 614 l 695 614 l 695 877 m 695 265 l 915 265 l 915 2 l 695 2 l 695 265 m 132 877 l 352 877 l 352 614 l 132 614 l 132 877 m 132 258 l 352 258 l 352 -5 l 132 -5 l 132 258 "},"Ϋ":{"x_min":78.671875,"x_max":1011.15625,"ha":905,"o":"m 379 1288 l 522 1288 l 494 1121 l 350 1121 l 379 1288 m 619 1288 l 765 1288 l 735 1121 l 591 1121 l 619 1288 m 78 1013 l 314 1013 l 468 637 l 739 1013 l 1011 1013 l 561 422 l 487 0 l 252 0 l 326 422 l 78 1013 "},"҆":{"x_min":-478.78125,"x_max":-265.171875,"ha":0,"o":"m -277 1021 q -478 826 -311 826 l -464 909 q -358 1000 -375 909 l -448 1000 l -432 1090 l -265 1090 l -277 1021 "},"▥":{"x_min":113,"x_max":1067,"ha":1180,"o":"m 113 -171 l 113 893 l 1067 893 l 1067 -171 l 113 -171 m 892 -92 l 999 -92 l 999 814 l 892 814 l 892 -92 m 714 -92 l 822 -92 l 822 814 l 714 814 l 714 -92 m 537 -92 l 644 -92 l 644 814 l 537 814 l 537 -92 m 358 -92 l 467 -92 l 467 814 l 358 814 l 358 -92 m 182 -92 l 289 -92 l 289 814 l 182 814 l 182 -92 "},"Ḽ":{"x_min":26.453125,"x_max":707.328125,"ha":796,"o":"m 242 -79 l 402 -79 l 514 -333 l 405 -333 l 310 -181 l 163 -333 l 42 -333 l 242 -79 m 204 1012 l 438 1012 l 295 197 l 707 197 l 674 0 l 26 0 l 204 1012 "},"8":{"x_min":27,"x_max":824,"ha":869,"o":"m 419 453 q 300 399 348 453 q 253 266 253 345 q 283 176 253 209 q 368 144 314 144 q 488 197 441 144 q 536 330 536 250 q 504 419 536 386 q 419 453 473 453 m 269 538 q 171 618 204 569 q 138 735 138 667 q 239 952 138 873 q 521 1031 341 1031 q 744 971 665 1031 q 824 802 824 911 q 768 637 824 706 q 611 538 713 569 q 720 453 685 507 q 756 317 756 399 q 646 70 756 161 q 345 -20 536 -20 q 111 46 195 -20 q 27 233 27 113 q 91 421 27 340 q 269 538 155 502 m 499 867 q 399 826 436 867 q 362 719 362 786 q 389 644 362 673 q 460 616 416 616 q 561 656 523 616 q 599 763 599 696 q 571 838 599 810 q 499 867 544 867 "},"≭":{"x_min":132,"x_max":915,"ha":1047,"o":"m 474 537 q 132 647 318 550 l 132 813 q 535 699 349 699 l 637 972 l 758 916 l 686 721 q 915 813 795 749 l 915 647 q 620 545 756 572 l 573 415 q 915 311 732 415 l 915 146 q 512 258 704 258 l 411 -13 l 289 42 l 361 236 q 132 146 252 207 l 132 311 q 427 411 292 385 l 474 537 "},"☊":{"x_min":76,"x_max":1035,"ha":1110,"o":"m 920 296 q 844 331 889 331 q 767 296 798 331 q 736 211 736 261 q 767 126 736 161 q 844 92 798 92 q 920 126 888 92 q 952 211 952 161 q 920 296 952 261 m 265 331 q 189 296 221 331 q 158 211 158 261 q 189 127 158 162 q 265 92 221 92 q 342 127 311 92 q 374 211 374 162 q 342 296 374 261 q 265 331 311 331 m 949 389 q 979 362 965 377 q 1035 211 1035 300 q 979 62 1035 124 q 844 0 923 0 q 710 62 766 0 q 655 211 655 124 q 709 362 655 300 q 826 423 759 417 q 901 605 901 501 q 798 813 901 727 q 549 899 696 899 q 300 812 402 899 q 198 604 198 726 q 271 423 198 500 q 401 362 348 423 q 456 212 456 300 q 400 62 456 124 q 265 0 344 0 q 131 62 187 0 q 76 212 76 124 q 131 362 76 300 q 154 384 143 374 q 80 604 80 480 q 216 891 80 772 q 549 1010 353 1010 q 884 891 747 1010 q 1021 604 1021 772 q 949 389 1021 484 "},"𝙨":{"x_min":12.65625,"x_max":700.015625,"ha":744,"o":"m 700 735 l 668 546 q 540 598 603 580 q 419 616 476 616 q 320 597 355 616 q 285 544 285 578 q 304 511 285 523 q 381 485 324 499 l 421 477 q 606 397 553 446 q 660 260 660 348 q 566 54 660 128 q 305 -20 473 -20 q 161 -7 234 -20 q 12 28 88 4 l 45 219 q 172 160 104 180 q 310 141 239 141 q 414 159 379 141 q 449 212 449 177 q 429 250 449 237 q 348 278 409 264 l 308 286 q 142 366 192 314 q 92 513 92 419 q 178 708 92 640 q 424 777 264 777 q 563 766 495 777 q 700 735 631 756 "},"⚈":{"x_min":104,"x_max":1017,"ha":1121,"o":"m 560 1016 q 784 950 675 1016 q 955 762 893 885 q 1017 508 1017 640 q 956 255 1017 376 q 788 68 896 135 q 560 1 679 1 q 333 68 442 1 q 164 255 224 135 q 104 508 104 376 q 165 762 104 640 q 335 950 226 885 q 560 1016 444 1016 m 792 423 q 829 433 811 423 q 859 465 848 444 q 870 508 870 486 q 859 551 870 530 q 830 582 848 571 q 792 594 812 594 q 753 582 772 594 q 725 551 735 571 q 715 508 715 530 q 725 465 715 486 q 754 433 736 444 q 792 423 772 423 "},"ນ":{"x_min":-10.171875,"x_max":919.59375,"ha":913,"o":"m 20 130 q 172 152 113 119 q 210 251 197 176 l 247 460 q 88 630 58 479 q 300 823 128 823 q 457 578 500 823 l 394 210 q 497 136 433 136 q 628 207 616 136 l 729 778 l 919 778 l 819 210 q 468 -47 774 -47 q 298 14 362 -47 q -10 -52 181 -52 l 20 130 "},"𝌱":{"x_min":104,"x_max":1017,"ha":1121,"o":"m 311 260 l 104 260 l 104 396 l 311 396 l 311 260 m 810 260 l 810 396 l 1017 396 l 1017 260 l 810 260 m 663 260 l 457 260 l 457 396 l 663 396 l 663 260 m 104 136 l 475 136 l 475 0 l 104 0 l 104 136 m 646 136 l 1017 136 l 1017 0 l 646 0 l 646 136 m 104 657 l 475 657 l 475 521 l 104 521 l 104 657 m 646 657 l 1017 657 l 1017 521 l 646 521 l 646 657 m 104 917 l 475 917 l 475 781 l 104 781 l 104 917 m 646 917 l 1017 917 l 1017 781 l 646 781 l 646 917 "},"⊳":{"x_min":132,"x_max":914.828125,"ha":1047,"o":"m 276 629 l 276 241 l 720 435 l 276 629 m 132 -2 l 132 872 l 914 515 l 914 355 l 132 -2 "},"⪐":{"x_min":132,"x_max":915,"ha":1047,"o":"m 915 501 l 915 336 q 795 258 850 281 q 682 235 741 235 q 529 274 617 235 q 516 280 521 278 l 503 286 q 351 328 408 328 q 244 301 296 328 q 132 219 191 275 l 132 384 q 251 461 196 438 q 364 485 305 485 q 522 444 431 485 l 530 440 q 544 434 535 438 q 696 393 638 393 q 800 418 748 393 q 915 501 851 444 m 915 -175 l 915 -340 l 132 -200 l 132 44 l 915 186 l 915 21 l 367 -77 l 915 -175 m 132 896 l 132 1062 l 915 921 l 915 676 l 132 535 l 132 700 l 680 798 l 132 896 "},"מּ":{"x_min":11.171875,"x_max":876,"ha":969,"o":"m 588 760 q 876 460 876 760 q 861 311 876 393 l 807 0 l 429 0 l 384 0 l 415 173 l 618 173 l 639 290 q 650 398 650 351 q 524 561 650 561 q 446 538 479 561 q 382 457 414 516 q 318 290 350 398 l 229 0 l 11 0 l 112 336 q 232 583 157 486 l 144 760 l 362 760 l 385 714 q 588 760 476 760 m 508 379 l 508 379 m 458 448 l 580 448 l 557 312 l 435 312 l 458 448 m 508 379 l 508 379 "},"ᶪ":{"x_min":29.15625,"x_max":322.125,"ha":412,"o":"m 132 1044 l 271 1044 l 184 550 l 322 550 l 305 453 q 242 330 290 375 q 113 285 192 285 l 46 285 l 61 375 l 85 375 q 142 392 124 375 q 167 453 160 411 l 29 453 l 132 1044 "},"˞":{"x_min":-14.234375,"x_max":434.03125,"ha":438,"o":"m 15 599 l 229 727 l 351 727 l 331 612 q 327 455 310 493 q 407 418 343 418 l 434 418 l 413 296 l 354 296 q 207 371 242 296 q 198 545 177 432 l -14 424 l 15 599 "},"‷":{"x_min":201.421875,"x_max":890.4375,"ha":787,"o":"m 890 760 l 791 760 l 659 1013 l 828 1013 l 890 760 m 664 760 l 565 760 l 433 1013 l 602 1013 l 664 760 m 432 760 l 333 760 l 201 1013 l 370 1013 l 432 760 "},"ᔴ":{"x_min":26.453125,"x_max":1153.5625,"ha":1244,"o":"m 986 588 l 1153 588 l 1124 421 l 957 421 l 986 588 m 546 1012 l 870 540 l 838 351 l 322 351 l 261 0 l 26 0 l 120 540 l 635 540 l 311 1012 l 546 1012 m 383 1288 l 551 1288 l 522 1121 l 355 1121 l 383 1288 "},"Ϗ":{"x_min":51.546875,"x_max":1075.578125,"ha":968,"o":"m 229 1013 l 463 1013 l 399 643 l 802 1013 l 1075 1013 l 552 533 l 942 0 l 595 -288 l 438 -288 l 674 -35 l 356 398 l 286 0 l 51 0 l 229 1013 "},"⇓":{"x_min":240.96875,"x_max":806.03125,"ha":1047,"o":"m 478 195 l 523 144 l 569 195 l 569 1012 l 667 1012 l 667 304 l 717 359 l 806 262 l 566 -5 l 481 -5 l 240 262 l 329 359 l 380 304 l 380 1012 l 478 1012 l 478 195 "},"р":{"x_min":-12.234375,"x_max":846,"ha":895,"o":"m 278 109 l 207 -289 l -12 -289 l 171 760 l 391 760 l 370 648 q 476 746 421 715 q 596 778 531 778 q 778 696 711 778 q 846 474 846 615 q 822 304 846 387 q 755 153 799 221 q 629 24 699 68 q 479 -20 559 -20 q 360 11 409 -20 q 278 109 311 42 m 507 602 q 369 515 423 602 q 316 289 316 428 q 346 191 316 227 q 429 156 376 156 q 566 241 512 156 q 620 459 620 326 q 591 565 620 529 q 507 602 562 602 "},"Ö":{"x_min":45,"x_max":1017,"ha":1062,"o":"m 769 597 q 720 779 769 717 q 579 842 671 842 q 374 720 457 842 q 292 414 292 598 q 340 233 292 298 q 474 169 388 169 q 599 201 545 169 q 693 299 654 234 q 749 438 729 361 q 769 597 769 516 m 613 1031 q 906 918 795 1031 q 1017 625 1017 806 q 983 391 1017 501 q 884 194 949 281 q 696 33 805 86 q 447 -20 588 -20 q 155 91 265 -20 q 45 385 45 203 q 78 619 45 509 q 177 817 112 729 q 363 978 255 925 q 613 1031 472 1031 m 481 1288 l 625 1288 l 597 1121 l 453 1121 l 481 1288 m 722 1288 l 868 1288 l 838 1121 l 694 1121 l 722 1288 "},"Θ":{"x_min":49,"x_max":1012,"ha":1062,"o":"m 741 753 q 589 842 697 842 q 407 753 481 842 q 304 505 332 665 q 294 376 294 443 q 320 257 294 310 q 472 169 364 169 q 654 257 580 169 q 757 505 729 345 q 768 633 768 567 q 741 753 768 700 m 61 505 q 254 891 104 751 q 622 1031 403 1031 q 942 891 842 1031 q 1012 643 1012 793 q 999 505 1012 579 q 807 119 956 259 q 438 -20 658 -20 q 118 119 219 -20 q 49 367 49 217 q 61 505 49 431 m 396 626 l 708 626 l 673 429 l 361 429 l 396 626 "},"Ř":{"x_min":26.25,"x_max":856,"ha":962,"o":"m 458 563 q 579 604 538 563 q 621 725 621 645 q 592 799 621 776 q 503 823 564 823 l 406 823 l 359 563 l 458 563 m 328 383 l 260 0 l 26 0 l 203 1012 l 550 1012 q 778 949 700 1012 q 856 765 856 887 q 795 563 856 643 q 629 473 734 484 q 709 419 677 462 q 764 287 740 376 l 841 0 l 608 0 l 539 251 q 489 354 519 326 q 403 383 460 383 l 328 383 m 652 1109 l 439 1109 l 356 1288 l 461 1288 l 551 1178 l 692 1288 l 801 1288 l 652 1109 "},"ϙ":{"x_min":67.953125,"x_max":838.078125,"ha":859,"o":"m 493 604 q 372 546 420 604 q 305 379 324 488 q 314 211 285 269 q 414 154 341 154 q 534 211 485 154 q 600 379 581 269 q 592 546 619 488 q 493 604 564 604 m 509 -2 l 460 -289 l 220 -289 l 270 -2 q 125 86 175 21 q 77 379 44 191 q 228 672 109 566 q 523 778 346 778 q 780 672 699 778 q 828 379 861 566 q 678 86 796 191 q 509 -2 605 21 "},"⬐":{"x_min":46.453125,"x_max":975.0625,"ha":1046,"o":"m 286 -35 l 46 231 l 135 329 l 256 195 l 256 517 l 975 517 l 975 354 l 402 354 l 402 195 l 522 329 l 611 231 l 371 -35 l 286 -35 "},"ᶼ":{"x_min":44.046875,"x_max":548.609375,"ha":654,"o":"m 128 879 l 503 879 l 486 784 l 219 550 l 446 550 l 430 460 q 425 401 423 413 q 434 392 428 393 q 484 375 434 375 l 548 375 l 533 285 l 424 285 q 311 330 345 285 q 290 453 278 374 l 44 453 l 60 547 l 328 782 l 111 782 l 128 879 "},"и":{"x_min":38.65625,"x_max":837.53125,"ha":876,"o":"m 38 0 l 171 760 l 389 760 l 319 355 l 610 760 l 837 760 l 704 0 l 485 0 l 556 404 l 265 0 l 38 0 "},"א":{"x_min":28.484375,"x_max":884.328125,"ha":939,"o":"m 161 760 l 392 760 l 558 440 q 577 458 568 448 q 647 654 621 510 l 665 760 l 884 760 l 863 639 q 752 380 832 460 q 625 307 695 323 l 784 0 l 553 0 l 361 371 q 344 355 352 364 q 275 159 300 303 l 246 0 l 28 0 l 59 175 q 170 434 90 354 q 292 506 229 491 l 161 760 m 381 0 l 381 0 m 365 118 l 365 118 "},"³":{"x_min":50.46875,"x_max":534,"ha":548,"o":"m 406 759 q 476 719 452 750 q 500 636 500 687 q 428 493 500 543 q 225 443 356 443 q 132 451 176 443 q 50 474 88 459 l 70 591 q 142 554 106 567 q 215 542 178 542 q 319 567 281 542 q 357 638 357 593 q 326 692 357 675 q 232 710 295 710 l 186 710 l 203 803 l 255 803 q 354 822 320 803 q 389 879 389 842 q 365 918 389 905 q 297 931 342 931 q 225 922 264 931 q 139 894 186 913 l 158 1007 q 248 1024 203 1018 q 338 1031 293 1031 q 483 997 432 1031 q 534 900 534 963 q 499 807 534 845 q 406 759 464 769 "},"♬":{"x_min":114.9375,"x_max":1006,"ha":1121,"o":"m 1003 1012 l 1006 1009 l 1006 153 q 846 -5 1006 9 q 693 106 704 -5 q 835 205 693 205 q 949 169 901 205 l 952 169 l 952 617 l 425 617 l 425 157 q 274 -7 425 17 l 272 -7 q 114 116 114 -7 q 259 203 114 203 q 374 164 320 203 l 374 1012 l 1003 1012 m 427 872 l 427 766 l 952 766 l 952 872 l 427 872 "},"͘":{"x_min":0.671875,"x_max":198.703125,"ha":0,"o":"m 31 1075 l 198 1075 l 168 908 l 0 908 l 31 1075 "},"ᶣ":{"x_min":68.0625,"x_max":551.453125,"ha":569,"o":"m 72 619 l 118 878 l 257 878 l 249 835 l 222 680 q 211 604 211 625 q 215 572 211 582 q 233 552 220 559 q 263 545 246 545 q 337 577 306 545 q 377 669 366 610 l 413 878 l 551 878 l 447 287 l 310 287 l 350 515 q 274 460 312 478 q 194 443 236 443 q 88 487 119 443 q 72 619 58 532 "},"⣟":{"x_min":183,"x_max":793,"ha":976,"o":"m 183 1085 l 427 1085 l 427 814 l 183 814 l 183 1085 m 183 724 l 427 724 l 427 453 l 183 453 l 183 724 m 183 362 l 427 362 l 427 91 l 183 91 l 183 362 m 549 1085 l 793 1085 l 793 814 l 549 814 l 549 1085 m 549 724 l 793 724 l 793 453 l 549 453 l 549 724 m 183 0 l 427 0 l 427 -271 l 183 -271 l 183 0 m 549 0 l 793 0 l 793 -271 l 549 -271 l 549 0 "},"𝞳":{"x_min":38.65625,"x_max":849.0625,"ha":888,"o":"m 307 291 l 257 0 l 38 0 l 171 760 l 389 760 l 351 542 l 606 760 l 849 760 l 539 491 l 752 0 l 492 0 l 351 328 l 307 291 "},"Ρ":{"x_min":26.3125,"x_max":899,"ha":915,"o":"m 203 1012 l 593 1012 q 817 939 736 1012 q 899 736 899 866 q 871 585 899 657 q 795 460 844 514 q 665 377 741 403 q 477 351 590 351 l 321 351 l 260 0 l 26 0 l 203 1012 m 406 823 l 356 540 l 486 540 q 613 583 569 540 q 657 709 657 626 q 625 793 657 764 q 534 823 594 823 l 406 823 "},"⣥":{"x_min":183,"x_max":793,"ha":976,"o":"m 183 1085 l 427 1085 l 427 814 l 183 814 l 183 1085 m 183 362 l 427 362 l 427 91 l 183 91 l 183 362 m 549 362 l 793 362 l 793 91 l 549 91 l 549 362 m 183 0 l 427 0 l 427 -271 l 183 -271 l 183 0 m 549 0 l 793 0 l 793 -271 l 549 -271 l 549 0 "},"Ṙ":{"x_min":26.25,"x_max":856,"ha":962,"o":"m 509 1289 l 676 1289 l 648 1122 l 480 1122 l 509 1289 m 458 563 q 579 604 538 563 q 621 725 621 645 q 592 799 621 776 q 503 823 564 823 l 406 823 l 359 563 l 458 563 m 328 383 l 260 0 l 26 0 l 203 1012 l 550 1012 q 778 949 700 1012 q 856 765 856 887 q 795 563 856 643 q 629 473 734 484 q 709 419 677 462 q 764 287 740 376 l 841 0 l 608 0 l 539 251 q 489 354 519 326 q 403 383 460 383 l 328 383 "},"ᴄ":{"x_min":46,"x_max":726.578125,"ha":741,"o":"m 726 735 l 692 537 q 605 587 647 570 q 521 604 562 604 q 346 524 414 604 q 279 320 279 444 q 321 197 279 241 q 440 153 363 153 q 540 170 491 153 q 635 220 590 187 l 601 22 q 491 -9 546 1 q 381 -20 436 -20 q 133 60 220 -20 q 46 288 46 140 q 78 469 46 381 q 170 626 110 556 q 322 740 236 703 q 521 777 409 777 q 624 767 573 777 q 726 735 675 756 "},"š":{"x_min":12.65625,"x_max":719.671875,"ha":744,"o":"m 700 735 l 668 546 q 540 598 603 580 q 419 616 476 616 q 320 597 355 616 q 285 544 285 578 q 304 511 285 523 q 381 485 324 499 l 421 477 q 606 397 553 446 q 660 260 660 348 q 566 54 660 128 q 305 -20 473 -20 q 161 -7 234 -20 q 12 28 88 4 l 45 219 q 172 160 104 180 q 310 141 239 141 q 414 159 379 141 q 449 212 449 177 q 429 250 449 237 q 348 278 409 264 l 308 286 q 142 366 192 314 q 92 513 92 419 q 178 708 92 640 q 424 777 264 777 q 563 766 495 777 q 700 735 631 756 m 518 856 l 360 856 l 248 1110 l 355 1110 l 451 956 l 599 1111 l 719 1111 l 518 856 "},"ᐸ":{"x_min":63.75,"x_max":1091.171875,"ha":1107,"o":"m 958 249 l 914 0 l 63 350 l 119 662 l 1091 1012 l 1047 757 l 305 506 l 958 249 "},"ჟ":{"x_min":-19,"x_max":755.875,"ha":739,"o":"m 627 18 q 258 -275 577 -275 q -19 -76 -19 -275 q -13 -16 -19 -48 l 179 -16 q 177 -39 177 -29 q 283 -120 177 -120 q 441 19 417 -120 l 534 551 l 362 536 q 410 371 410 450 q 406 326 410 348 q 6 97 365 97 l 36 269 q 233 326 224 269 q 237 363 237 345 q 83 534 237 481 l 103 652 l 755 748 l 627 18 "},"1":{"x_min":53.578125,"x_max":722.921875,"ha":869,"o":"m 86 180 l 293 180 l 407 834 l 185 785 l 217 963 l 437 1012 l 661 1012 l 516 180 l 722 180 l 691 0 l 53 0 l 86 180 "},"ᕗ":{"x_min":63.75,"x_max":1090.5,"ha":1160,"o":"m 519 632 q 344 582 442 582 q 189 631 248 582 q 142 751 130 680 q 231 871 155 822 q 404 921 307 921 q 507 902 462 921 l 1090 662 l 1036 350 l 63 0 l 107 249 l 849 506 l 519 632 m 301 806 q 258 751 263 783 q 282 696 252 719 q 360 673 312 673 q 447 696 408 673 q 491 751 485 719 q 466 806 497 783 q 388 830 436 830 q 301 806 339 830 "},"בֿ":{"x_min":-19.640625,"x_max":764.421875,"ha":841,"o":"m 458 352 q 470 461 470 416 q 457 535 470 509 q 350 586 432 586 l 114 586 l 145 759 l 441 759 l 484 759 q 671 676 624 759 q 700 541 700 627 q 687 411 700 484 l 645 173 l 764 173 l 733 0 l 348 0 l -19 0 l 10 173 l 427 173 l 458 352 m 257 379 l 257 379 m 283 987 l 680 987 l 656 851 l 259 851 l 283 987 m 441 759 l 441 759 "},"צ":{"x_min":28.484375,"x_max":884.328125,"ha":939,"o":"m 161 759 l 392 759 l 558 440 q 577 458 568 448 q 647 654 621 510 l 665 759 l 884 759 l 863 638 q 752 379 831 457 q 625 307 695 323 l 784 0 l 367 0 l 28 0 l 59 173 l 463 173 l 161 759 m 225 379 l 225 379 "},"⟻":{"x_min":61,"x_max":1720,"ha":1791,"o":"m 1574 354 l 268 354 l 389 219 l 301 121 l 61 387 l 61 483 l 301 749 l 389 651 l 268 517 l 1574 517 l 1574 727 l 1720 727 l 1720 144 l 1574 144 l 1574 354 "},"♏":{"x_min":42.09375,"x_max":1079.140625,"ha":1121,"o":"m 780 183 q 811 65 780 108 q 898 23 843 23 l 953 23 l 953 103 l 955 103 l 1079 -14 l 955 -132 l 953 -130 l 953 -50 l 898 -50 q 732 31 773 -50 q 697 161 697 81 l 697 697 q 666 912 697 912 q 587 838 629 912 q 505 628 545 764 l 505 0 l 413 0 l 413 625 q 403 879 413 843 q 372 915 393 915 q 289 838 347 915 q 231 616 231 761 l 231 0 l 135 0 l 135 738 q 42 997 135 867 l 128 997 q 222 824 200 943 q 292 951 236 887 q 390 1015 348 1015 q 465 947 429 1015 q 501 793 501 880 q 586 944 526 874 q 692 1015 646 1015 q 754 958 729 1015 q 780 753 780 901 l 780 616 l 780 184 l 780 183 "},"ᵈ":{"x_min":60,"x_max":601.203125,"ha":598,"o":"m 272 540 q 359 588 326 540 q 393 714 393 637 q 374 770 393 749 q 321 790 355 790 q 235 741 269 790 q 202 619 202 694 q 220 560 202 580 q 272 540 238 540 m 418 815 l 462 1044 l 601 1044 l 485 453 l 346 453 l 359 514 q 292 459 327 477 q 217 442 258 442 q 101 487 143 442 q 60 611 60 532 q 74 707 60 660 q 117 791 89 753 q 196 863 152 839 q 290 888 240 888 q 365 870 334 888 q 418 815 397 852 "},"˕":{"x_min":181.078125,"x_max":477.4375,"ha":625,"o":"m 181 514 l 202 636 l 477 636 l 455 514 l 373 514 l 341 330 l 231 330 l 263 514 l 181 514 "},"ḽ":{"x_min":-141.734375,"x_max":442.171875,"ha":428,"o":"m 58 -79 l 218 -79 l 329 -333 l 221 -333 l 126 -181 l -21 -333 l -141 -333 l 58 -79 m 222 1055 l 442 1055 l 257 0 l 38 0 l 222 1055 "},"𝟘":{"x_min":60,"x_max":810,"ha":870,"o":"m 267 111 l 267 898 q 214 843 237 875 q 133 504 133 728 q 214 166 133 281 q 267 111 237 134 m 737 504 q 655 843 737 728 q 603 898 632 875 l 603 111 q 655 166 632 134 q 737 504 737 281 m 810 504 q 712 116 810 253 q 435 -20 614 -20 q 157 116 255 -20 q 60 504 60 253 q 157 893 60 756 q 435 1030 255 1030 q 712 893 614 1030 q 810 504 810 756 m 527 73 l 527 936 q 435 949 485 949 q 344 936 385 949 l 344 73 q 435 61 385 61 q 527 73 485 61 "},"ᓌ":{"x_min":43.65625,"x_max":1444.5,"ha":1535,"o":"m 561 443 q 461 480 530 480 q 349 443 393 480 q 294 338 306 406 q 313 233 282 270 q 412 197 344 197 q 524 233 480 197 q 580 338 568 270 q 561 443 592 406 m 377 0 q 101 89 187 0 q 51 338 22 171 q 187 583 80 497 q 494 669 295 669 q 772 583 693 669 q 821 338 850 497 q 773 197 808 260 l 1106 197 l 1071 0 l 377 0 m 1277 589 l 1444 589 l 1415 422 l 1248 422 l 1277 589 "},"ī":{"x_min":38.65625,"x_max":502.515625,"ha":428,"o":"m 171 760 l 391 760 l 257 0 l 38 0 l 171 760 m 118 1060 l 502 1060 l 480 932 l 94 932 l 118 1060 "},"∐":{"x_min":92,"x_max":890,"ha":984,"o":"m 92 -268 l 92 997 l 302 997 l 302 -72 l 680 -72 l 680 997 l 890 997 l 890 -268 l 92 -268 "},"̢":{"x_min":-395.375,"x_max":16.28125,"ha":0,"o":"m -360 162 l -141 162 l -166 12 q -165 -109 -183 -78 q -85 -141 -147 -141 l 16 -141 l -12 -300 l -183 -300 q -360 -220 -308 -300 q -386 13 -413 -138 l -360 162 "},"𝟀":{"x_min":-59,"x_max":867.375,"ha":806,"o":"m 463 499 l 636 759 l 867 759 l 514 226 l 563 -39 q 592 -111 573 -93 q 643 -130 610 -130 l 711 -130 l 684 -289 l 582 -289 q 421 -238 471 -289 q 349 -61 373 -188 l 343 -30 l 172 -289 l -59 -289 l 292 241 l 243 509 q 213 583 233 565 q 164 600 193 600 l 96 600 l 124 759 l 250 759 q 381 711 330 759 q 457 531 433 663 l 463 499 "},"Բ":{"x_min":24.421875,"x_max":928.578125,"ha":1015,"o":"m 259 0 l 24 0 l 130 606 q 283 926 168 821 q 597 1032 399 1032 q 875 926 794 1032 q 916 606 954 823 l 913 593 l 678 593 l 680 606 q 675 786 703 732 q 564 840 648 840 q 434 786 480 840 q 365 606 387 732 l 348 508 l 632 508 q 827 434 769 508 q 849 226 875 372 l 840 178 l 684 178 l 691 212 q 678 309 703 283 q 595 335 653 335 l 318 335 l 259 0 "},"ꞁ":{"x_min":13.5625,"x_max":415.046875,"ha":428,"o":"m 196 760 l 415 760 l 231 -289 l 13 -289 l 196 760 "},"Ễ":{"x_min":26.453125,"x_max":837.53125,"ha":854,"o":"m 455 1288 l 668 1288 l 760 1109 l 657 1109 l 556 1218 l 415 1109 l 306 1109 l 455 1288 m 577 1338 l 546 1363 q 522 1380 532 1376 q 501 1385 512 1385 q 463 1363 479 1385 q 440 1304 447 1341 l 357 1304 q 413 1437 373 1390 q 510 1484 453 1484 q 553 1475 533 1484 q 594 1449 573 1467 l 626 1422 q 647 1408 636 1413 q 668 1404 658 1404 q 708 1424 692 1404 q 730 1484 724 1445 l 815 1484 q 758 1350 798 1397 q 662 1304 718 1304 q 619 1311 638 1304 q 577 1338 600 1318 m 204 1013 l 837 1013 l 802 816 l 404 816 l 370 627 l 746 627 l 710 430 l 336 430 l 295 197 l 707 197 l 674 0 l 26 0 l 204 1013 "},"ˣ":{"x_min":-24.421875,"x_max":534.390625,"ha":515,"o":"m 179 670 l 58 878 l 205 878 l 273 751 l 385 878 l 534 878 l 339 671 l 467 453 l 319 453 l 244 587 l 123 453 l -24 453 l 179 670 "},"❉":{"x_min":59,"x_max":988,"ha":1047,"o":"m 620 617 q 661 509 661 572 q 620 401 661 446 q 523 357 580 357 q 426 401 466 357 q 386 509 386 446 q 426 617 386 572 q 523 662 466 662 q 620 617 580 662 m 175 178 l 356 380 l 409 322 l 227 121 l 175 178 m 638 693 l 819 894 l 871 836 l 690 635 l 638 693 m 227 894 l 409 693 l 356 635 l 175 836 l 227 894 m 690 380 l 871 178 l 819 121 l 638 322 l 690 380 m 622 925 q 634 854 634 892 q 622 783 634 816 q 585 722 609 745 q 524 695 557 695 q 462 722 490 695 q 425 783 438 745 q 414 854 414 816 q 425 925 414 892 q 462 986 438 963 q 524 1014 490 1014 q 585 986 557 1014 q 622 925 609 963 m 622 212 q 634 141 634 179 q 622 70 634 103 q 585 9 609 32 q 524 -18 557 -18 q 462 9 490 -18 q 425 70 438 32 q 414 141 414 103 q 425 212 414 179 q 462 273 438 250 q 524 301 490 301 q 585 273 557 301 q 622 212 609 250 m 138 607 q 202 620 168 620 q 266 607 236 620 q 321 566 300 592 q 346 498 346 535 q 321 429 346 460 q 266 388 300 403 q 202 376 236 376 q 138 388 168 376 q 83 429 105 403 q 59 498 59 460 q 83 566 59 535 q 138 607 105 592 m 780 607 q 844 620 810 620 q 908 607 878 620 q 963 566 942 592 q 988 498 988 535 q 963 429 988 460 q 908 388 942 403 q 844 376 878 376 q 780 388 810 376 q 725 429 747 403 q 701 498 701 460 q 725 566 701 535 q 780 607 747 592 "},"𝌸":{"x_min":104,"x_max":1017,"ha":1121,"o":"m 311 521 l 104 521 l 104 657 l 311 657 l 311 521 m 810 521 l 810 657 l 1017 657 l 1017 521 l 810 521 m 663 521 l 457 521 l 457 657 l 663 657 l 663 521 m 311 0 l 104 0 l 104 136 l 311 136 l 311 0 m 810 0 l 810 136 l 1017 136 l 1017 0 l 810 0 m 663 0 l 457 0 l 457 136 l 663 136 l 663 0 m 104 396 l 475 396 l 475 260 l 104 260 l 104 396 m 646 396 l 1017 396 l 1017 260 l 646 260 l 646 396 m 104 917 l 475 917 l 475 781 l 104 781 l 104 917 m 646 917 l 1017 917 l 1017 781 l 646 781 l 646 917 "},"❒":{"x_min":75,"x_max":1047,"ha":1121,"o":"m 935 56 l 935 956 l 125 956 l 125 56 l 935 56 m 985 0 l 75 0 l 75 1012 l 154 1080 l 1047 1080 l 1047 87 l 985 0 "},"⢣":{"x_min":183,"x_max":793,"ha":976,"o":"m 183 1085 l 427 1085 l 427 814 l 183 814 l 183 1085 m 183 724 l 427 724 l 427 453 l 183 453 l 183 724 m 549 362 l 793 362 l 793 91 l 549 91 l 549 362 m 549 0 l 793 0 l 793 -271 l 549 -271 l 549 0 "},"ƽ":{"x_min":-36.625,"x_max":716.828125,"ha":800,"o":"m 92 159 l 122 325 l 198 760 l 716 760 l 690 610 l 390 610 l 340 325 l 344 325 q 553 293 492 325 q 676 175 644 245 q 694 9 710 97 q 551 -219 668 -141 q 234 -298 433 -298 q 95 -285 164 -298 q -36 -247 27 -272 l -2 -46 q 120 -101 58 -82 q 244 -120 181 -120 q 393 -84 337 -120 q 461 18 449 -48 q 429 123 474 87 q 284 159 383 159 l 92 159 "},"↢":{"x_min":61,"x_max":991.453125,"ha":1047,"o":"m 61 387 l 61 483 l 301 749 l 389 651 l 268 517 l 693 517 l 902 749 l 991 651 l 796 435 l 991 219 l 902 121 l 693 354 l 268 354 l 389 219 l 301 121 l 61 387 "},"⧓":{"x_min":132,"x_max":1117,"ha":1249,"o":"m 1117 -67 l 624 337 l 132 -67 l 132 936 l 624 531 l 1117 936 l 1117 -67 "},"ᾯ":{"x_min":122.3125,"x_max":1297,"ha":1344,"o":"m 807 -289 l 697 -289 q 665 -165 644 -289 l 683 -62 l 802 -62 l 785 -166 q 803 -237 772 -237 l 815 -237 l 807 -289 m 341 1143 l 311 1168 q 287 1185 297 1181 q 266 1190 276 1190 q 228 1168 244 1190 q 205 1109 212 1146 l 122 1109 q 177 1242 137 1195 q 275 1289 217 1289 q 318 1280 298 1289 q 359 1254 337 1272 l 391 1227 q 412 1213 401 1218 q 433 1209 423 1209 q 473 1229 457 1209 q 495 1289 488 1250 l 579 1289 q 523 1155 563 1202 q 427 1109 483 1109 q 384 1116 403 1109 q 341 1143 365 1123 m 394 1090 l 378 1000 l 289 1000 q 363 909 273 909 l 348 826 q 215 1021 181 826 l 227 1090 l 394 1090 m 535 891 q 903 1031 684 1031 q 1223 891 1122 1031 q 1297 648 1297 788 q 1286 541 1297 597 q 1067 197 1245 304 l 1255 197 l 1220 0 l 802 0 l 839 211 q 886 245 865 225 q 1042 535 1012 364 q 1050 637 1050 579 q 1021 753 1050 696 q 870 842 978 842 q 687 753 762 842 q 590 535 613 665 q 583 449 583 490 q 645 245 583 332 q 680 211 659 225 l 643 0 l 225 0 l 260 197 l 447 197 q 340 439 340 280 q 348 541 340 487 q 535 891 386 751 "},"⢈":{"x_min":549,"x_max":793,"ha":976,"o":"m 549 1085 l 793 1085 l 793 814 l 549 814 l 549 1085 m 549 0 l 793 0 l 793 -271 l 549 -271 l 549 0 "},"p":{"x_min":-12.234375,"x_max":846,"ha":895,"o":"m 278 109 l 207 -289 l -12 -289 l 171 760 l 391 760 l 370 648 q 476 746 421 715 q 596 778 531 778 q 778 696 711 778 q 846 474 846 615 q 822 304 846 387 q 755 153 799 221 q 629 24 699 68 q 479 -20 559 -20 q 360 11 409 -20 q 278 109 311 42 m 507 602 q 369 515 423 602 q 316 289 316 428 q 346 191 316 227 q 429 156 376 156 q 566 241 512 156 q 620 459 620 326 q 591 565 620 529 q 507 602 562 602 "},"Ἤ":{"x_min":36.625,"x_max":1448.5625,"ha":1474,"o":"m 632 1011 l 867 1011 l 799 626 l 1146 626 l 1213 1011 l 1448 1011 l 1270 0 l 1036 0 l 1110 429 l 764 429 l 689 0 l 455 0 l 632 1011 m 82 1090 l 250 1090 l 238 1021 q 36 826 204 826 l 50 909 q 156 1000 140 909 l 67 1000 l 82 1090 m 447 1111 l 626 1111 l 358 855 l 236 855 l 447 1111 "},"Ѹ":{"x_min":71,"x_max":1482.046875,"ha":1435,"o":"m 778 505 q 635 157 744 307 q 339 -20 506 -20 q 132 100 203 -20 q 71 366 71 203 q 83 505 71 435 q 227 853 118 703 q 522 1031 355 1031 q 729 910 659 1031 q 791 644 791 807 q 778 505 791 575 m 556 609 q 570 728 570 686 q 490 842 570 842 q 381 757 421 842 q 342 609 360 709 q 325 505 337 575 q 305 404 325 505 q 293 286 293 333 q 372 169 293 169 q 479 253 442 169 q 519 401 502 302 l 556 609 m 1482 760 l 1049 -71 q 930 -238 989 -188 q 756 -300 858 -300 l 630 -300 l 657 -141 q 690 -141 669 -141 q 718 -141 711 -141 q 801 -123 774 -141 q 871 -29 835 -101 l 937 97 l 824 759 l 1042 759 l 1089 395 q 1263 760 1145 511 l 1482 760 "},"䷯":{"x_min":104,"x_max":1017,"ha":1121,"o":"m 104 574 l 475 574 l 475 438 l 104 438 l 104 574 m 646 574 l 1017 574 l 1017 438 l 646 438 l 646 574 m 104 793 l 1017 793 l 1017 657 l 104 657 l 104 793 m 104 1013 l 475 1013 l 475 877 l 104 877 l 104 1013 m 646 1013 l 1017 1013 l 1017 877 l 646 877 l 646 1013 m 104 -84 l 475 -84 l 475 -220 l 104 -220 l 104 -84 m 646 -84 l 1017 -84 l 1017 -220 l 646 -220 l 646 -84 m 104 135 l 1017 135 l 1017 -1 l 104 -1 l 104 135 m 104 355 l 1017 355 l 1017 219 l 104 219 l 104 355 "},"ⱡ":{"x_min":-42.71875,"x_max":488.28125,"ha":450,"o":"m 99 421 l 130 597 l 18 597 l 50 773 l 162 773 l 210 1055 l 429 1055 l 380 773 l 488 773 l 457 597 l 349 597 l 318 421 l 425 421 l 395 245 l 287 245 l 244 0 l 26 0 l 69 245 l -42 245 l -12 421 l 99 421 "},"►":{"x_min":3,"x_max":957.1875,"ha":961,"o":"m 3 14 l 3 706 l 957 360 l 3 14 "},"Ӭ":{"x_min":1.828125,"x_max":867,"ha":917,"o":"m 370 1288 l 514 1288 l 486 1121 l 342 1121 l 370 1288 m 611 1288 l 757 1288 l 726 1121 l 583 1121 l 611 1288 m 210 604 l 620 604 q 621 617 621 610 q 574 766 621 691 q 397 842 528 842 q 122 746 265 842 l 159 955 q 454 1031 302 1031 q 789 890 681 1031 q 867 633 867 787 q 855 505 867 573 q 655 121 813 263 q 269 -20 497 -20 q 1 55 119 -20 l 38 264 q 279 169 148 169 q 486 247 411 169 q 586 407 561 325 l 175 407 l 210 604 "},"῭":{"x_min":189.890625,"x_max":604.921875,"ha":625,"o":"m 218 1075 l 363 1075 l 333 908 l 189 908 l 218 1075 m 461 1075 l 604 1075 l 575 908 l 431 908 l 461 1075 m 379 1357 l 506 1103 l 386 1103 l 206 1357 l 379 1357 "},"ບ":{"x_min":11.796875,"x_max":895.1875,"ha":909,"o":"m 143 504 q 99 648 77 549 q 322 852 141 852 q 482 673 514 852 q 265 369 463 562 q 217 283 224 329 q 404 152 198 152 q 621 315 594 152 l 705 790 l 895 790 l 812 317 q 374 -20 753 -20 q 16 242 -28 -20 q 143 504 46 396 "},"ϕ":{"x_min":65.734375,"x_max":920.65625,"ha":995,"o":"m 637 588 l 566 180 l 609 211 q 691 378 670 255 q 670 558 709 479 q 637 588 655 588 m 484 -288 l 484 -288 m 532 -16 l 484 -289 l 266 -289 l 314 -16 q 125 86 188 4 q 74 379 42 196 q 209 672 105 553 q 453 773 284 756 l 502 1055 l 719 1055 l 670 773 q 877 672 832 756 q 910 379 941 553 q 756 86 878 196 q 532 -16 665 4 m 719 1055 l 719 1055 m 349 180 l 420 588 q 377 558 403 588 q 293 379 311 480 q 316 211 271 255 l 349 180 "},"y":{"x_min":0,"x_max":858.5625,"ha":814,"o":"m 82 759 l 288 759 l 382 232 l 625 760 l 858 760 l 425 -72 q 291 -256 353 -212 q 132 -300 229 -300 l 0 -300 l 22 -141 l 91 -141 q 174 -120 145 -141 q 227 -50 204 -100 l 247 -10 l 82 759 "},"Ⴌ":{"x_min":-16.15625,"x_max":772.328125,"ha":804,"o":"m 455 -50 l 518 311 q 523 348 523 329 q 518 387 523 363 q 499 434 514 410 q 460 472 484 458 q 406 486 436 486 q 348 477 376 486 q 297 451 320 469 q 258 404 274 433 q 234 334 242 375 l 167 -51 l -16 -51 l 113 687 q 162 830 125 763 q 252 946 199 896 q 370 1024 305 996 q 505 1053 436 1053 l 772 1053 l 740 869 l 473 869 q 413 854 442 869 q 360 815 383 840 q 319 758 336 791 q 296 688 303 725 l 278 583 q 319 625 298 608 q 361 652 340 641 q 401 666 381 662 q 438 671 421 671 q 658 593 603 671 q 714 414 714 516 q 703 310 714 367 l 640 -50 l 455 -50 "},"ḓ":{"x_min":45,"x_max":904.625,"ha":894,"o":"m 254 -79 l 413 -79 l 524 -333 l 416 -333 l 321 -181 l 174 -333 l 53 -333 l 254 -79 m 383 157 q 520 243 467 157 q 573 468 573 329 q 543 566 573 531 q 460 602 514 602 q 324 516 377 602 q 271 298 271 431 q 299 193 271 229 q 383 157 328 157 m 613 648 l 684 1055 l 904 1055 l 719 0 l 499 0 l 519 110 q 414 12 469 43 q 294 -19 359 -19 q 112 62 179 -19 q 45 283 45 143 q 68 454 45 371 q 135 604 91 536 q 261 733 191 689 q 411 778 331 778 q 529 746 480 778 q 613 648 579 715 "},"∵":{"x_min":75,"x_max":797,"ha":870,"o":"m 325 372 l 545 372 l 545 109 l 325 109 l 325 372 m 577 899 l 797 899 l 797 636 l 577 636 l 577 899 m 75 899 l 295 899 l 295 636 l 75 636 l 75 899 "},"б":{"x_min":30,"x_max":800,"ha":873,"o":"m 485 777 q 730 687 661 777 q 800 479 800 596 q 778 312 800 433 q 640 85 757 191 q 345 -20 522 -20 q 99 70 168 -20 q 30 277 30 161 q 45 415 30 324 q 61 562 61 505 q 68 625 61 585 q 142 844 90 756 q 328 1037 235 1004 q 709 1091 405 1065 q 776 1100 741 1094 l 798 949 q 508 913 750 936 q 353 870 402 903 q 250 715 273 816 q 485 777 351 777 m 548 557 q 454 604 526 604 q 334 546 382 604 q 272 411 286 488 q 259 289 259 334 q 281 199 259 245 q 375 153 303 153 q 496 211 448 153 q 557 346 543 269 q 571 467 571 423 q 548 557 571 511 "},"☻":{"x_min":104,"x_max":1017,"ha":1121,"o":"m 104 506 q 237 866 104 717 q 560 1015 371 1015 q 883 866 750 1015 q 1017 506 1017 717 q 883 147 1017 295 q 560 0 750 0 q 237 147 371 0 q 104 506 104 295 m 344 502 l 303 502 q 556 212 303 212 q 818 504 818 212 l 775 504 q 560 293 716 293 q 344 502 420 293 m 824 695 q 743 796 824 789 q 655 695 655 796 q 738 602 655 602 q 824 695 824 602 m 468 697 q 387 796 468 789 q 299 695 299 796 q 381 602 299 602 q 468 697 468 602 "},"‐":{"x_min":31.203125,"x_max":449.625,"ha":519,"o":"m 66 498 l 449 498 l 415 301 l 31 301 l 66 498 "},"ᒜ":{"x_min":100.375,"x_max":1205.109375,"ha":1286,"o":"m 129 588 l 296 588 l 267 421 l 100 421 l 129 588 m 969 330 l 1205 330 q 1058 68 1175 156 q 758 -20 941 -20 q 504 70 596 -20 q 442 329 413 161 l 561 1012 l 796 1012 l 676 330 q 698 210 663 251 q 791 169 733 169 q 905 212 852 169 q 969 330 957 255 "},"⨛":{"x_min":18.765625,"x_max":685.46875,"ha":703,"o":"m 424 -114 q 349 -278 424 -219 q 216 -315 303 -315 q 62 -262 108 -315 q 18 -128 29 -223 l 154 -113 q 202 -152 165 -152 q 243 -89 243 -152 q 279 847 279 -89 q 353 1011 279 952 q 486 1048 399 1048 q 641 995 595 1048 q 685 861 674 956 l 549 846 q 501 885 538 885 q 459 822 459 885 q 424 -114 424 822 m 678 1096 l 92 1096 l 92 1249 l 678 1249 l 678 1096 "},"➩":{"x_min":71,"x_max":955.484375,"ha":1047,"o":"m 505 104 l 505 266 l 71 266 l 71 605 l 505 605 l 505 766 l 657 766 l 955 435 l 657 104 l 505 104 m 554 320 l 554 158 l 802 435 l 554 712 l 554 551 l 120 551 l 120 320 l 554 320 "},"₰":{"x_min":2.15625,"x_max":825,"ha":870,"o":"m 113 332 l 2 421 q 234 605 135 605 q 344 558 308 605 q 419 485 404 485 q 465 503 446 485 q 386 718 386 597 q 392 789 386 752 q 472 965 412 906 q 644 1031 537 1031 q 797 965 749 1031 q 825 862 825 928 q 817 789 825 830 q 705 519 790 635 q 775 331 775 431 q 770 279 775 305 q 642 53 743 127 q 392 -20 539 -20 l 418 134 q 545 177 492 134 q 595 280 583 208 q 598 306 598 294 q 571 383 598 349 q 389 305 486 305 q 276 375 314 305 q 219 430 246 430 q 113 332 188 430 m 589 627 q 652 789 637 700 q 657 833 657 813 q 652 867 657 853 q 620 906 642 906 q 573 867 595 906 q 547 789 555 834 q 543 744 543 765 q 589 627 543 673 "},"ц":{"x_min":55.609375,"x_max":852.453125,"ha":926,"o":"m 187 759 l 406 759 l 303 173 l 520 173 l 623 759 l 841 759 l 739 174 l 852 174 l 789 -192 l 632 -192 l 666 0 l 55 0 l 187 759 "},"⌌":{"x_min":439,"x_max":949,"ha":1010,"o":"m 439 300 l 571 300 l 571 -107 l 439 -107 l 439 300 m 583 313 l 583 460 l 949 460 l 949 313 l 583 313 "},"о":{"x_min":45,"x_max":813,"ha":858,"o":"m 468 604 q 328 518 383 604 q 273 300 273 433 q 303 191 273 228 q 389 153 332 153 q 529 239 474 153 q 584 458 584 325 q 554 566 584 529 q 468 604 525 604 m 485 777 q 725 691 638 777 q 813 456 813 605 q 785 289 813 370 q 705 141 758 208 q 558 20 643 61 q 369 -20 473 -20 q 131 66 218 -20 q 45 300 45 152 q 72 468 45 386 q 153 617 100 549 q 298 736 214 696 q 485 777 383 777 "},"𝌛":{"x_min":104,"x_max":1017,"ha":1121,"o":"m 311 521 l 104 521 l 104 657 l 311 657 l 311 521 m 810 521 l 810 657 l 1017 657 l 1017 521 l 810 521 m 663 521 l 457 521 l 457 657 l 663 657 l 663 521 m 104 136 l 1017 136 l 1017 0 l 104 0 l 104 136 m 104 917 l 1017 917 l 1017 781 l 104 781 l 104 917 m 104 396 l 475 396 l 475 260 l 104 260 l 104 396 m 646 396 l 1017 396 l 1017 260 l 646 260 l 646 396 "},"⋜":{"x_min":132,"x_max":915,"ha":1047,"o":"m 915 647 l 132 647 l 132 808 l 915 808 l 915 647 m 915 165 l 915 0 l 132 226 l 132 385 l 915 613 l 915 448 l 367 307 l 915 165 "},"⊥":{"x_min":107,"x_max":1035,"ha":1141,"o":"m 505 147 l 505 979 l 637 979 l 637 147 l 1035 147 l 1035 0 l 107 0 l 107 147 l 505 147 "},"Д":{"x_min":-31.875,"x_max":1017.25,"ha":1113,"o":"m 386 197 l 640 197 l 748 815 l 551 815 l 540 753 q 386 197 464 319 m 350 1012 l 1017 1012 l 875 197 l 1004 197 l 931 -218 l 754 -218 l 791 0 l 183 0 l 145 -218 l -31 -218 l 40 197 l 109 197 q 210 312 181 243 q 316 821 240 381 l 350 1012 "},"𝘾":{"x_min":45,"x_max":905.421875,"ha":917,"o":"m 757 47 q 595 -3 673 13 q 448 -20 518 -20 q 154 91 264 -20 q 45 388 45 203 q 79 617 45 509 q 182 813 114 725 q 374 974 262 918 q 617 1031 487 1031 q 759 1012 688 1031 q 905 955 831 993 l 867 746 q 749 818 808 795 q 622 842 690 842 q 386 721 481 842 q 291 418 291 600 q 349 235 291 302 q 511 169 408 169 q 642 193 573 169 q 797 271 711 218 l 757 47 "},"ᒷ":{"x_min":26.453125,"x_max":1001.65625,"ha":1092,"o":"m 834 589 l 1001 589 l 972 422 l 805 422 l 834 589 m 438 1012 l 295 197 l 694 197 l 660 0 l 26 0 l 203 1012 l 438 1012 "},"❿":{"x_min":73,"x_max":985,"ha":1058,"o":"m 985 486 q 851 127 985 275 q 527 -20 717 -20 q 206 127 339 -20 q 73 486 73 275 q 134 740 73 618 q 305 927 195 862 q 527 993 414 993 q 753 927 643 993 q 923 740 862 862 q 985 486 985 619 m 220 224 l 509 224 l 509 346 l 421 346 l 421 795 l 315 795 l 217 766 l 217 646 l 307 672 l 307 346 l 220 346 l 220 224 m 711 333 q 673 370 685 333 q 662 509 662 407 q 673 646 662 609 q 711 683 685 683 q 748 646 736 683 q 760 509 760 609 q 748 370 760 407 q 711 333 736 333 m 712 804 q 587 725 631 804 q 544 507 544 647 q 587 289 544 367 q 712 212 631 212 q 836 289 792 212 q 880 507 880 367 q 836 725 880 647 q 712 804 792 804 "},"Ӂ":{"x_min":-70.296875,"x_max":1560.6875,"ha":1530,"o":"m 694 1288 l 781 1288 q 812 1228 787 1247 q 885 1210 837 1210 q 961 1230 929 1210 q 1007 1288 993 1251 l 1100 1288 q 1016 1154 1077 1200 q 866 1109 956 1109 q 738 1154 782 1109 q 694 1285 694 1200 l 694 1288 m -70 0 l 409 607 l 146 1013 l 393 1013 l 662 595 l 736 1013 l 971 1013 l 898 595 l 1314 1013 l 1560 1013 l 1157 607 l 1423 0 l 1164 0 l 977 426 l 845 294 l 794 0 l 559 0 l 610 294 l 525 426 l 188 0 l -70 0 "},"◜":{"x_min":3,"x_max":480,"ha":483,"o":"m 3 361 q 241 819 3 666 q 480 896 361 896 l 480 816 q 277 750 378 816 q 75 361 75 620 l 3 361 "},"͌":{"x_min":-545.921875,"x_max":-37.984375,"ha":0,"o":"m -326 830 l -356 855 q -381 872 -370 868 q -402 877 -391 877 q -439 855 -423 877 q -462 796 -455 833 l -545 796 q -490 929 -530 882 q -392 976 -450 976 q -349 967 -369 976 q -308 941 -330 959 l -276 914 q -255 900 -266 905 q -234 896 -244 896 q -194 916 -210 896 q -172 976 -179 937 l -88 976 q -144 842 -104 889 q -240 796 -184 796 q -283 803 -264 796 q -326 830 -303 810 m -276 1014 l -306 1039 q -330 1056 -320 1052 q -351 1061 -341 1061 q -389 1039 -373 1061 q -412 979 -405 1017 l -495 979 q -440 1113 -480 1066 q -342 1160 -400 1160 q -299 1151 -319 1160 q -258 1125 -280 1143 l -226 1097 q -205 1083 -216 1088 q -184 1079 -194 1079 q -144 1099 -160 1079 q -122 1160 -128 1120 l -37 1160 q -94 1026 -54 1073 q -190 979 -134 979 q -233 986 -214 979 q -276 1014 -252 994 "},"Ĵ":{"x_min":-207.515625,"x_max":566.265625,"ha":465,"o":"m 261 1288 l 473 1288 l 566 1109 l 462 1109 l 362 1218 l 221 1109 l 111 1109 l 261 1288 m 204 1013 l 438 1013 l 278 98 q 140 -188 243 -99 q -160 -278 36 -278 l -207 -278 l -172 -81 l -136 -81 q -17 -35 -63 -81 q 44 98 28 10 l 204 1013 "},"Ҕ":{"x_min":26.296875,"x_max":886,"ha":986,"o":"m 370 627 l 689 627 q 855 546 807 627 q 886 413 886 495 q 876 311 886 367 l 839 98 q 696 -184 805 -90 q 400 -278 588 -278 l 352 -278 l 387 -81 l 424 -81 q 543 -35 497 -81 q 604 98 589 10 l 620 187 q 638 324 638 292 q 638 343 638 334 q 633 379 638 366 q 606 417 625 403 q 558 430 587 430 l 336 430 l 260 0 l 26 0 l 203 1013 l 851 1013 l 816 816 l 404 816 l 370 627 "},"⪶":{"x_min":132,"x_max":915,"ha":1047,"o":"m 132 740 l 132 933 q 915 621 348 700 l 915 461 q 132 149 357 392 l 132 344 q 598 542 311 517 q 132 740 313 567 m 915 125 l 915 -36 l 629 -36 l 583 -123 l 915 -123 l 915 -284 l 499 -284 l 427 -422 l 302 -343 l 334 -284 l 132 -284 l 132 -123 l 418 -123 l 463 -36 l 132 -36 l 132 125 l 547 125 l 619 263 l 744 184 l 713 125 l 915 125 "},"г":{"x_min":35.265625,"x_max":686.3125,"ha":653,"o":"m 168 760 l 686 760 l 660 610 l 360 610 l 253 0 l 35 0 l 168 760 "},"⚤":{"x_min":99,"x_max":1372,"ha":1428,"o":"m 1035 273 q 790 162 933 162 q 614 213 692 162 q 504 178 562 185 l 504 0 l 670 0 l 670 -84 l 504 -84 l 504 -258 l 400 -258 l 400 -84 l 245 -84 l 245 0 l 400 0 l 400 178 q 202 276 285 189 q 99 544 99 383 q 201 819 99 706 q 449 932 303 932 q 619 883 543 932 q 783 925 694 925 q 991 850 923 925 l 1211 1087 l 986 1087 l 1071 1183 l 1372 1183 l 1372 849 l 1285 752 l 1285 1005 l 1065 767 q 1131 539 1131 694 q 1035 273 1131 383 m 954 728 q 786 807 882 807 q 714 798 747 807 q 799 544 799 692 q 711 292 799 392 q 787 278 746 278 q 956 356 887 278 q 1026 543 1026 435 q 954 728 1026 650 m 522 300 q 442 545 442 404 l 441 547 q 526 798 441 691 q 449 813 490 813 q 279 735 349 813 q 209 546 209 658 q 279 362 209 436 q 449 289 349 289 q 522 300 487 289 m 615 360 q 689 546 689 432 q 618 735 689 657 q 548 545 548 657 q 615 360 548 435 "},"⭔":{"x_min":47,"x_max":1038.3125,"ha":1086,"o":"m 633 1002 l 116 816 l 116 212 l 633 25 l 952 514 l 633 1002 m 659 1093 l 1038 514 l 659 -65 l 47 156 l 47 872 l 659 1093 "},"ᾙ":{"x_min":81.078125,"x_max":1163.0625,"ha":1189,"o":"m 347 1012 l 581 1012 l 514 627 l 860 627 l 927 1012 l 1163 1012 l 985 0 l 750 0 l 825 430 l 479 430 l 404 0 l 169 0 l 347 1012 m 265 1090 l 250 1000 l 160 1000 q 234 909 145 909 l 219 826 q 86 1021 52 826 l 99 1090 l 265 1090 m 659 -289 l 550 -289 q 518 -165 496 -289 l 535 -62 l 655 -62 l 637 -166 q 655 -237 624 -237 l 668 -237 l 659 -289 "},"⡳":{"x_min":183,"x_max":793,"ha":976,"o":"m 183 1085 l 427 1085 l 427 814 l 183 814 l 183 1085 m 183 724 l 427 724 l 427 453 l 183 453 l 183 724 m 549 724 l 793 724 l 793 453 l 549 453 l 549 724 m 549 362 l 793 362 l 793 91 l 549 91 l 549 362 m 183 0 l 427 0 l 427 -271 l 183 -271 l 183 0 "},"Յ":{"x_min":28,"x_max":945.96875,"ha":991,"o":"m 142 768 q 262 963 164 896 q 588 1031 360 1031 q 888 964 815 1031 q 940 768 963 897 q 873 624 925 681 q 733 538 820 566 q 857 445 820 510 q 876 284 893 382 q 746 56 849 133 q 404 -20 642 -20 q 88 56 168 -20 q 28 254 28 118 l 262 254 q 290 184 266 218 q 432 144 316 144 q 589 184 537 144 q 656 297 643 223 q 630 413 666 359 q 485 442 609 442 l 104 442 l 135 616 l 515 616 q 655 648 609 616 q 713 741 702 681 q 687 834 721 789 q 559 867 664 867 q 418 834 466 867 q 364 768 370 801 l 142 768 "},"ʟ":{"x_min":38.65625,"x_max":591.359375,"ha":673,"o":"m 171 759 l 392 759 l 294 197 l 591 197 l 556 0 l 38 0 l 171 759 "},"Җ":{"x_min":-50.859375,"x_max":1580.140625,"ha":1530,"o":"m -50 0 l 428 607 l 166 1013 l 413 1013 l 682 594 l 755 1013 l 990 1013 l 918 594 l 1333 1013 l 1580 1013 l 1175 607 l 1356 197 l 1477 197 l 1443 0 l 1405 -218 l 1170 -218 l 1208 0 l 1184 0 l 996 426 l 864 294 l 813 0 l 578 0 l 630 294 l 544 426 l 208 0 l -50 0 "},"⊻":{"x_min":128,"x_max":886,"ha":1014,"o":"m 188 1055 l 406 1055 l 507 530 l 606 1055 l 826 1055 l 626 251 l 387 251 l 188 1055 m 128 159 l 886 159 l 886 0 l 128 0 l 128 159 "},"ᓅ":{"x_min":-24.421875,"x_max":1120.859375,"ha":1164,"o":"m 852 443 q 753 480 821 480 q 641 443 684 480 q 585 338 597 406 q 604 233 573 270 q 703 197 635 197 q 815 233 771 197 q 871 338 859 270 q 852 443 882 406 m 668 0 l -24 0 l 10 197 l 342 197 q 343 338 329 260 q 479 583 370 497 q 786 669 587 669 q 1063 583 985 669 q 1113 338 1141 497 q 976 89 1083 171 q 668 0 858 0 m 731 926 l 899 926 l 870 759 l 703 759 l 731 926 "},"։":{"x_min":83.421875,"x_max":416.390625,"ha":500,"o":"m 195 645 l 416 645 l 370 382 l 149 382 l 195 645 m 129 263 l 349 263 l 303 0 l 83 0 l 129 263 "},"ﬗ":{"x_min":72.53125,"x_max":2101.5,"ha":2141,"o":"m 1024 881 l 837 881 q 798 851 800 881 q 802 809 798 828 l 819 749 q 814 553 838 687 l 717 0 l 498 0 l 518 109 q 396 11 457 43 q 269 -20 335 -20 q 103 60 151 -20 q 81 295 55 141 l 163 759 l 383 759 l 369 683 q 342 528 359 622 q 319 404 325 435 q 301 272 301 312 q 305 213 301 231 q 333 176 314 189 q 381 164 353 164 q 498 222 449 164 q 566 384 548 280 l 596 557 q 603 691 613 654 l 573 797 q 581 972 543 906 q 747 1055 629 1055 l 1273 1055 l 1202 648 q 1297 745 1224 709 q 1425 778 1358 778 q 1590 697 1543 778 q 1611 462 1637 616 l 1601 404 q 1580 272 1580 301 q 1585 213 1580 231 q 1613 176 1594 189 q 1661 164 1633 164 q 1750 222 1700 164 q 1818 384 1799 280 l 1883 760 l 2101 760 l 1969 0 l 1750 0 l 1769 109 q 1676 12 1712 30 q 1549 -20 1615 -20 q 1382 60 1430 -20 q 1362 295 1335 141 l 1372 354 q 1392 489 1387 440 q 1388 544 1396 523 q 1359 581 1379 568 q 1312 595 1339 595 q 1221 535 1270 595 q 1154 373 1172 476 l 1038 -289 l 819 -289 l 1024 881 "},"Ἀ":{"x_min":-80.703125,"x_max":864.671875,"ha":967,"o":"m 614 185 l 250 185 l 160 0 l -80 0 l 434 1013 l 703 1013 l 864 1 l 640 1 l 614 185 m 339 369 l 583 369 l 528 759 l 339 369 m 158 1091 l 326 1091 l 314 1022 q 112 827 280 827 l 126 910 q 232 1001 216 910 l 143 1001 l 158 1091 "},"𝟜":{"x_min":56.390625,"x_max":812.21875,"ha":869,"o":"m 426 862 l 124 374 l 426 374 l 426 862 m 609 931 l 499 931 l 499 81 l 609 81 l 609 931 m 421 1012 l 682 1012 l 682 374 l 812 374 l 812 293 l 682 293 l 682 0 l 426 0 l 426 293 l 56 293 l 56 408 l 421 1012 "},"Ὕ":{"x_min":78.359375,"x_max":1604.546875,"ha":1498,"o":"m 672 1013 l 907 1013 l 1062 637 l 1333 1013 l 1604 1013 l 1154 422 l 1081 0 l 846 0 l 920 422 l 672 1013 m 263 1090 l 247 1000 l 158 1000 q 231 909 142 909 l 217 826 q 84 1021 50 826 l 96 1090 l 263 1090 m 484 1111 l 663 1111 l 396 856 l 273 856 l 484 1111 "},"պ":{"x_min":99.71875,"x_max":1290.5625,"ha":1302,"o":"m 545 124 q 427 17 491 53 q 295 -20 363 -20 q 130 60 177 -20 q 109 295 82 141 l 190 757 l 410 757 l 341 361 q 337 343 339 352 q 332 316 335 333 q 332 198 317 235 q 395 163 347 163 q 501 219 457 163 q 564 384 545 276 l 630 758 l 850 758 l 781 361 q 771 198 758 235 q 835 163 785 163 q 942 220 898 163 q 1005 384 986 277 l 1070 758 l 1290 758 l 1107 -289 l 887 -289 l 956 109 q 848 12 906 45 q 727 -20 790 -20 q 608 17 656 -20 q 545 124 560 55 "},"Ԥ":{"x_min":45.4375,"x_max":1131.1875,"ha":1196,"o":"m 896 197 l 1131 197 l 1058 -218 l 823 -218 l 861 0 l 626 0 l 769 815 l 423 815 l 280 0 l 45 0 l 222 1012 l 1038 1012 l 896 197 "},"𝙂":{"x_min":45,"x_max":972.203125,"ha":1025,"o":"m 851 74 q 666 3 761 26 q 460 -20 570 -20 q 155 89 266 -20 q 45 388 45 199 q 79 618 45 511 q 183 815 114 726 q 382 977 267 923 q 643 1031 496 1031 q 808 1012 725 1031 q 972 955 891 993 l 936 746 q 790 818 861 794 q 647 842 719 842 q 391 725 490 842 q 292 425 292 608 q 349 236 292 303 q 512 169 407 169 q 580 174 546 169 q 649 190 614 179 l 684 387 l 540 387 l 570 562 l 936 562 l 851 74 "},"⨒":{"x_min":18.71875,"x_max":685.53125,"ha":703,"o":"m 263 474 l 439 474 l 439 264 l 263 264 l 263 474 m 252 -89 l 252 178 l 542 178 l 542 553 l 299 553 l 299 848 q 367 1011 299 954 q 491 1048 410 1048 q 639 994 591 1048 q 685 861 674 955 l 549 846 q 499 885 537 885 q 456 823 456 885 l 456 699 l 674 699 l 674 32 l 399 32 l 399 -114 q 331 -278 399 -221 q 209 -315 289 -315 q 63 -261 110 -315 q 18 -128 29 -222 l 154 -113 q 206 -152 165 -152 q 252 -89 252 -152 "},"ᔾ":{"x_min":70.53125,"x_max":562.203125,"ha":618,"o":"m 242 453 l 101 453 l 402 712 l 70 712 l 124 1019 l 265 1019 l 229 818 l 562 818 l 543 712 l 242 453 "},"ḳ":{"x_min":38.65625,"x_max":894.5,"ha":831,"o":"m 222 1055 l 442 1055 l 342 483 l 637 760 l 894 760 l 497 408 l 786 0 l 536 0 l 314 327 l 257 0 l 38 0 l 222 1055 m 449 -295 l 282 -295 l 311 -128 l 480 -128 l 449 -295 "},"ѫ":{"x_min":-14.53125,"x_max":854.515625,"ha":859,"o":"m 578 610 l 359 610 l 431 399 l 578 610 m 181 0 l -14 0 q 136 293 18 187 q 267 371 195 345 l 134 760 l 854 760 l 585 371 q 687 293 648 345 q 746 101 746 217 q 735 0 746 53 l 540 0 q 547 70 547 38 q 523 167 547 129 q 466 214 502 200 l 428 0 l 291 0 l 328 213 q 257 167 288 198 q 181 0 200 109 "},"Ѝ":{"x_min":26.453125,"x_max":1019.96875,"ha":1046,"o":"m 624 1288 l 712 1109 l 603 1109 l 463 1288 l 624 1288 m 1019 1013 l 842 0 l 619 0 l 741 694 l 288 0 l 26 0 l 203 1013 l 425 1013 l 304 318 l 757 1013 l 1019 1013 "},"䷼":{"x_min":104,"x_max":1018,"ha":1121,"o":"m 104 574 l 475 574 l 475 438 l 104 438 l 104 574 m 646 574 l 1017 574 l 1017 438 l 646 438 l 646 574 m 104 793 l 1017 793 l 1017 657 l 104 657 l 104 793 m 104 1013 l 1017 1013 l 1017 877 l 104 877 l 104 1013 m 104 -84 l 1017 -84 l 1017 -220 l 104 -220 l 104 -84 m 105 135 l 1018 135 l 1018 -1 l 105 -1 l 105 135 m 104 355 l 475 355 l 475 219 l 104 219 l 104 355 m 646 355 l 1017 355 l 1017 219 l 646 219 l 646 355 "},"ǲ":{"x_min":26.640625,"x_max":1770.34375,"ha":1813,"o":"m 1174 759 l 1770 759 l 1740 590 l 1314 173 l 1667 173 l 1638 0 l 1027 0 l 1055 169 l 1482 586 l 1144 586 l 1174 759 m 405 816 l 295 197 l 380 197 q 640 299 544 197 q 736 576 736 402 q 673 755 736 695 q 487 816 611 816 l 405 816 m 204 1013 l 451 1013 q 716 989 628 1013 q 864 911 805 966 q 953 777 923 856 q 983 600 983 699 q 932 340 983 462 q 789 136 881 219 q 601 31 708 62 q 274 0 495 0 l 26 0 l 204 1013 "},"͞":{"x_min":-362.828125,"x_max":773.109375,"ha":0,"o":"m -339 1235 l 773 1235 l 750 1107 l -362 1107 l -339 1235 "},"⤆":{"x_min":60.625,"x_max":975,"ha":1046,"o":"m 829 486 l 241 486 l 194 435 l 241 385 l 829 385 l 829 486 m 829 276 l 338 276 l 388 219 l 300 121 l 60 388 l 60 482 l 300 749 l 388 651 l 338 595 l 829 595 l 829 727 l 975 727 l 975 144 l 829 144 l 829 276 "},"У":{"x_min":95.625,"x_max":1015.21875,"ha":964,"o":"m 124 1012 l 369 1012 l 491 551 l 768 1013 l 1015 1013 l 509 168 q 432 73 474 110 q 138 0 345 0 l 95 0 l 130 197 l 194 197 q 308 243 280 197 l 321 264 l 124 1012 "},"𝟇":{"x_min":65.734375,"x_max":920.65625,"ha":995,"o":"m 637 588 l 566 180 l 609 211 q 691 378 670 255 q 670 558 709 479 q 637 588 655 588 m 484 -288 l 484 -288 m 532 -16 l 484 -289 l 266 -289 l 314 -16 q 125 86 188 4 q 74 379 42 196 q 209 672 105 553 q 453 773 284 756 l 502 1055 l 719 1055 l 670 773 q 877 672 832 756 q 910 379 941 553 q 756 86 878 196 q 532 -16 665 4 m 719 1055 l 719 1055 m 349 180 l 420 588 q 377 558 403 588 q 293 379 311 480 q 316 211 271 255 l 349 180 "},"ᴎ":{"x_min":38.65625,"x_max":837.53125,"ha":876,"o":"m 38 0 l 171 760 l 389 760 l 319 355 l 610 760 l 837 760 l 704 0 l 485 0 l 556 404 l 265 0 l 38 0 "},"⟦":{"x_min":9.5,"x_max":622.5625,"ha":609,"o":"m 265 974 l 94 -102 l 193 -102 l 364 974 l 265 974 m 205 1055 l 622 1055 l 609 974 l 438 974 l 267 -102 l 438 -102 l 425 -183 l 9 -183 l 205 1055 "},"➍":{"x_min":5,"x_max":1041,"ha":1046,"o":"m 563 815 l 563 382 l 314 382 l 563 815 m 537 911 l 234 397 l 234 292 l 564 292 l 564 101 l 661 101 l 661 292 l 766 292 l 766 383 l 661 383 l 661 911 l 537 911 m 324 1039 q 523 1083 417 1083 q 722 1039 629 1083 q 889 912 814 997 q 1003 725 966 826 q 1041 503 1041 623 q 1003 284 1041 387 q 889 98 966 183 q 722 -28 814 13 q 523 -72 629 -72 q 324 -28 417 -72 q 156 98 232 13 q 43 284 80 183 q 5 503 5 387 q 43 726 5 623 q 156 912 80 827 q 324 1039 232 997 "},"Ģ":{"x_min":45,"x_max":972.203125,"ha":1025,"o":"m 374 -109 l 572 -109 l 401 -311 l 283 -311 l 374 -109 m 851 74 q 666 3 761 26 q 460 -20 570 -20 q 155 89 266 -20 q 45 388 45 199 q 79 618 45 511 q 183 815 114 726 q 382 977 267 923 q 643 1031 496 1031 q 808 1012 725 1031 q 972 955 891 993 l 936 746 q 790 818 861 794 q 647 842 719 842 q 391 725 490 842 q 292 425 292 608 q 349 236 292 303 q 512 169 407 169 q 580 174 546 169 q 649 190 614 179 l 684 387 l 540 387 l 570 562 l 936 562 l 851 74 "},"⣂":{"x_min":183,"x_max":793,"ha":976,"o":"m 183 724 l 427 724 l 427 453 l 183 453 l 183 724 m 183 0 l 427 0 l 427 -271 l 183 -271 l 183 0 m 549 0 l 793 0 l 793 -271 l 549 -271 l 549 0 "},"⡞":{"x_min":183,"x_max":793,"ha":976,"o":"m 183 724 l 427 724 l 427 453 l 183 453 l 183 724 m 183 362 l 427 362 l 427 91 l 183 91 l 183 362 m 549 1085 l 793 1085 l 793 814 l 549 814 l 549 1085 m 549 724 l 793 724 l 793 453 l 549 453 l 549 724 m 183 0 l 427 0 l 427 -271 l 183 -271 l 183 0 "},"ᕻ":{"x_min":86.390625,"x_max":689,"ha":772,"o":"m 205 635 l 235 813 l 163 705 l 86 794 l 242 1019 l 412 1019 l 374 804 q 474 824 446 824 q 644 782 600 824 q 689 677 689 741 q 685 635 689 658 q 596 491 668 540 q 408 443 523 443 q 253 487 306 443 q 201 597 201 531 q 205 635 201 615 m 425 542 q 493 566 458 542 q 536 635 528 590 q 539 654 539 646 q 517 704 539 684 q 456 725 495 725 q 383 703 414 725 q 344 635 352 681 q 343 616 343 625 q 366 564 343 586 q 425 542 390 542 "},"⁵":{"x_min":15.59375,"x_max":490.3125,"ha":547,"o":"m 131 1019 l 490 1019 l 472 912 l 228 912 l 212 825 q 246 832 229 829 q 282 835 263 835 q 432 782 384 835 q 463 638 480 731 q 377 494 447 545 q 195 443 305 443 q 103 451 147 443 q 15 480 58 461 l 35 595 q 115 555 76 568 q 190 542 153 542 q 277 568 241 542 q 320 638 312 594 q 301 709 327 683 q 223 735 276 735 q 155 726 192 735 q 75 701 120 718 l 131 1019 "},"ớ":{"x_min":49,"x_max":960,"ha":858,"o":"m 472 604 q 332 518 387 604 q 277 300 277 433 q 307 191 277 228 q 393 153 336 153 q 533 239 478 153 q 588 458 588 325 q 558 566 588 529 q 472 604 529 604 m 489 777 q 729 691 642 777 q 817 456 817 605 q 789 289 817 370 q 709 141 762 208 q 562 20 647 61 q 373 -20 477 -20 q 135 66 222 -20 q 49 300 49 152 q 76 468 49 386 q 157 617 104 549 q 302 736 218 696 q 489 777 387 777 m 693 576 l 709 671 q 764 624 744 637 q 800 612 784 612 q 843 632 824 612 q 867 685 861 652 q 872 737 872 711 q 867 791 872 764 l 960 791 q 960 721 960 753 q 955 662 960 690 q 905 542 941 584 q 816 501 869 501 q 753 519 784 501 q 693 576 723 537 m 508 1110 l 686 1110 l 419 856 l 296 856 l 508 1110 "},"á":{"x_min":22,"x_max":784.34375,"ha":843,"o":"m 411 342 q 287 313 329 342 q 246 230 246 285 q 270 164 246 188 q 339 141 295 141 q 451 186 405 141 q 511 314 496 231 l 516 342 l 411 342 m 753 432 l 676 0 l 458 0 l 476 112 q 362 12 422 44 q 232 -20 302 -20 q 78 35 135 -20 q 22 186 22 91 q 122 409 22 332 q 414 486 222 486 l 543 486 l 545 504 q 547 518 547 514 q 548 525 548 522 q 509 593 548 570 q 396 616 471 616 q 264 600 328 616 q 142 553 201 584 l 174 738 q 315 767 243 757 q 464 777 387 777 q 690 719 616 777 q 764 542 764 661 q 761 492 764 519 q 753 432 758 464 m 605 1111 l 784 1111 l 516 856 l 393 856 l 605 1111 "},"ᵡ":{"x_min":-30.515625,"x_max":540.5,"ha":507,"o":"m 289 732 l 394 878 l 540 878 l 324 579 l 358 431 q 377 391 365 401 q 410 381 389 381 l 453 381 l 437 291 l 373 291 q 271 319 303 291 q 223 419 240 348 l 219 436 l 115 291 l -30 291 l 185 588 l 149 738 q 130 778 143 769 q 99 789 118 789 l 56 789 l 71 878 l 151 878 q 235 851 202 878 q 284 750 267 824 l 289 732 "},"ꟽ":{"x_min":26.453125,"x_max":1217.3125,"ha":1244,"o":"m 26 0 l 203 1013 l 425 1013 l 296 271 l 601 818 l 750 818 l 865 271 l 994 1013 l 1217 1013 l 1040 0 l 741 0 l 627 541 l 325 0 l 26 0 "},"Ⅎ":{"x_min":26.453125,"x_max":837.53125,"ha":854,"o":"m 659 0 l 26 0 l 61 197 l 459 197 l 492 386 l 117 386 l 152 583 l 527 583 l 602 1012 l 837 1012 l 659 0 "},"໔":{"x_min":30.1875,"x_max":809.0625,"ha":910,"o":"m 764 -217 q 390 -112 536 -112 q 90 -23 161 -112 q 39 263 6 80 q 217 578 72 455 l 368 705 q 596 988 577 881 l 809 988 q 514 571 773 787 l 358 442 q 254 279 270 368 q 292 105 235 168 q 404 57 339 57 q 503 46 451 57 q 457 294 436 177 q 649 469 486 469 q 783 303 813 469 q 674 161 761 176 q 796 -33 710 18 l 764 -217 "},"☦":{"x_min":104,"x_max":708,"ha":812,"o":"m 340 912 l 340 871 l 464 871 l 464 912 l 340 912 m 352 946 l 352 1016 l 456 1016 l 456 946 l 533 946 l 533 836 l 456 836 l 456 776 l 461 776 l 708 776 l 708 657 l 456 657 l 456 293 l 543 199 l 543 93 l 460 183 l 460 -2 l 352 -2 l 352 299 l 269 389 l 269 495 l 352 406 l 352 657 l 104 657 l 104 777 l 352 777 l 352 836 l 280 836 l 280 946 l 352 946 m 380 392 l 423 392 l 423 692 l 587 692 l 587 741 l 423 741 l 423 808 l 380 808 l 380 741 l 217 741 l 217 692 l 380 692 l 380 392 "},"ứ":{"x_min":72,"x_max":991,"ha":889,"o":"m 81 295 l 161 759 l 380 759 l 311 363 q 300 298 304 325 q 297 255 297 270 q 318 188 297 212 q 379 165 339 165 q 495 223 446 165 q 562 385 544 281 l 628 759 l 848 759 l 715 0 l 494 0 l 515 110 q 397 12 459 45 q 267 -20 335 -20 q 123 34 174 -20 q 72 190 72 89 q 74 240 72 213 q 81 295 76 266 m 724 576 l 741 671 q 796 624 776 637 q 831 612 816 612 q 874 632 855 612 q 898 685 892 652 q 903 737 903 711 q 898 791 903 763 l 991 791 q 991 721 991 753 q 986 662 991 690 q 936 542 972 584 q 848 501 900 501 q 785 519 815 501 q 724 576 754 537 m 578 1109 l 757 1109 l 489 854 l 366 854 l 578 1109 "},"ȴ":{"x_min":40.015625,"x_max":523.9375,"ha":614,"o":"m 335 155 q 426 216 417 155 q 413 233 429 233 q 335 198 367 233 l 307 166 q 335 155 318 155 m 301 348 q 423 411 358 411 q 501 378 476 411 q 516 221 537 332 q 446 52 497 112 q 286 -18 387 -18 q 190 0 230 -18 q 131 -104 159 -50 l 40 -55 q 100 57 58 -18 q 88 378 45 133 l 206 1055 l 424 1055 l 301 348 "},"ⱴ":{"x_min":55.078125,"x_max":858.03125,"ha":814,"o":"m 344 457 l 377 235 l 638 760 l 858 760 l 455 0 l 216 0 l 147 366 l 79 338 l 55 450 l 129 481 l 129 602 q 233 776 159 734 q 411 814 301 814 q 518 790 499 814 q 529 661 560 747 q 344 457 487 543 m 324 592 l 356 617 q 402 697 393 646 q 390 716 405 716 q 320 625 336 716 q 324 592 316 607 "},"ᴇ":{"x_min":48.15625,"x_max":657.140625,"ha":698,"o":"m 181 760 l 657 760 l 631 612 l 331 612 l 307 470 l 588 470 l 562 322 l 280 322 l 251 155 l 560 155 l 534 0 l 48 0 l 181 760 "},"K":{"x_min":26.453125,"x_max":1046.421875,"ha":968,"o":"m 204 1013 l 438 1013 l 375 648 l 762 1013 l 1046 1013 l 523 521 l 917 0 l 641 0 l 335 422 l 261 0 l 26 0 l 204 1013 "},"ן":{"x_min":-52.890625,"x_max":392.65625,"ha":428,"o":"m 209 -289 l -8 -289 l 174 760 l 392 760 l 209 -289 m -52 0 l -52 0 "},"ᔫ":{"x_min":99.015625,"x_max":965.03125,"ha":970,"o":"m 423 0 l 99 472 l 131 661 l 646 661 l 708 1012 l 943 1012 l 849 472 l 334 472 l 658 0 l 423 0 m 797 1289 l 965 1289 l 936 1122 l 769 1122 l 797 1289 "},"b":{"x_min":38.625,"x_max":846,"ha":895,"o":"m 507 601 q 369 514 423 601 q 316 289 316 428 q 346 191 316 227 q 429 156 376 156 q 566 241 512 156 q 620 459 620 326 q 591 564 620 528 q 507 601 562 601 m 278 109 l 257 0 l 38 0 l 222 1055 l 442 1055 l 370 647 q 476 745 421 714 q 596 777 531 777 q 778 695 711 777 q 846 474 846 614 q 822 303 846 386 q 755 153 799 221 q 629 24 699 68 q 479 -20 559 -20 q 360 11 409 -20 q 278 109 311 42 "},"≕":{"x_min":121,"x_max":1208,"ha":1329,"o":"m 121 670 l 904 670 l 904 511 l 121 511 l 121 670 m 121 361 l 904 361 l 904 200 l 121 200 l 121 361 m 988 722 l 1208 722 l 1208 459 l 988 459 l 988 722 m 988 405 l 1208 405 l 1208 142 l 988 142 l 988 405 "},"≮":{"x_min":132,"x_max":915,"ha":1047,"o":"m 524 510 l 326 434 l 472 379 l 524 510 m 417 240 l 132 355 l 132 515 l 601 704 l 703 958 l 817 902 l 765 769 l 915 829 l 915 659 l 686 572 l 590 334 l 915 210 l 915 41 l 534 193 l 454 -6 l 340 50 l 417 240 "},"ɢ":{"x_min":44.328125,"x_max":716.140625,"ha":784,"o":"m 625 48 q 484 -3 556 14 q 341 -20 413 -20 q 99 82 177 -20 q 53 369 21 184 q 201 657 86 556 q 486 759 316 759 q 609 745 552 759 q 716 704 667 731 l 687 544 q 586 593 638 577 q 480 610 535 610 q 314 549 380 610 q 229 369 249 490 q 249 189 207 249 q 389 129 291 129 q 438 133 415 129 q 481 143 461 136 l 500 257 l 332 257 l 362 427 l 691 427 l 625 48 "},"ຣ":{"x_min":18.109375,"x_max":959.609375,"ha":962,"o":"m 463 370 q 101 622 74 412 q 311 825 120 769 q 554 855 413 855 q 786 820 691 855 q 959 669 904 777 l 815 540 q 517 677 727 677 q 316 639 323 677 q 517 560 307 590 q 859 261 904 505 q 424 -14 809 -14 q 64 49 132 -14 q 22 201 4 104 q 227 377 54 377 q 351 166 445 377 q 454 156 356 156 q 654 250 637 156 q 619 344 665 318 q 463 370 600 355 "},"⧐":{"x_min":132,"x_max":1174.828125,"ha":1307,"o":"m 276 -2 l 132 -2 l 132 873 l 276 873 l 276 -2 m 536 629 l 536 241 l 980 435 l 536 629 m 393 -2 l 393 873 l 1174 515 l 1174 355 l 393 -2 "},"ᑾ":{"x_min":100.375,"x_max":1152.328125,"ha":1225,"o":"m 129 588 l 296 588 l 267 421 l 100 421 l 129 588 m 381 329 l 500 1012 l 735 1012 l 672 654 q 817 671 738 671 q 1095 585 1017 671 q 1144 329 1173 499 q 997 68 1114 156 q 697 -20 880 -20 q 443 70 535 -20 q 381 329 351 161 m 730 169 q 837 210 787 169 q 901 329 888 251 q 884 442 914 403 q 783 482 853 482 q 673 444 717 482 q 616 329 630 407 q 637 210 602 251 q 730 169 672 169 "},"⍺":{"x_min":60,"x_max":806,"ha":858,"o":"m 587 686 l 608 760 l 797 760 l 680 368 l 696 264 q 755 153 714 153 l 806 153 l 806 0 l 743 0 q 597 57 646 0 q 583 76 586 69 q 524 9 553 35 q 344 -17 495 -17 q 126 85 192 -17 q 60 389 60 188 q 129 671 60 589 q 383 776 216 776 q 587 686 524 776 m 503 399 l 484 510 q 387 613 467 613 q 311 554 345 613 q 278 376 278 495 q 308 203 278 257 q 384 150 339 150 q 461 252 431 150 l 503 399 "},"Ḡ":{"x_min":45,"x_max":972.203125,"ha":1025,"o":"m 851 74 q 666 3 761 26 q 460 -20 570 -20 q 155 89 266 -20 q 45 388 45 199 q 79 618 45 511 q 183 815 114 726 q 382 977 267 923 q 643 1031 496 1031 q 808 1012 725 1031 q 972 955 891 993 l 936 746 q 790 818 861 794 q 647 842 719 842 q 391 725 490 842 q 292 425 292 608 q 349 236 292 303 q 512 169 407 169 q 580 174 546 169 q 649 190 614 179 l 684 387 l 540 387 l 570 562 l 936 562 l 851 74 m 494 1249 l 879 1249 l 856 1121 l 471 1121 l 494 1249 "},"ȭ":{"x_min":45,"x_max":813,"ha":858,"o":"m 468 604 q 328 518 383 604 q 273 300 273 433 q 303 191 273 228 q 389 153 332 153 q 529 239 474 153 q 584 458 584 325 q 554 566 584 529 q 468 604 525 604 m 485 777 q 725 691 638 777 q 813 456 813 605 q 785 289 813 370 q 705 141 758 208 q 558 20 643 61 q 369 -20 473 -20 q 131 66 218 -20 q 45 300 45 152 q 72 468 45 386 q 153 617 100 549 q 298 736 214 696 q 485 777 383 777 m 505 924 l 474 949 q 468 954 473 951 q 427 975 445 975 q 391 951 407 975 q 369 887 375 928 l 283 887 q 339 1030 299 980 q 437 1080 379 1080 q 479 1070 459 1080 q 523 1041 499 1061 l 554 1012 q 576 996 566 1001 q 596 991 586 991 q 635 1013 619 991 q 657 1079 651 1036 l 742 1079 q 686 936 726 986 q 590 886 646 886 q 550 893 569 886 q 505 924 532 901 m 363 1270 l 747 1270 l 724 1142 l 339 1142 l 363 1270 "},"Ŋ":{"x_min":38.875,"x_max":968,"ha":1045,"o":"m 864 98 q 734 -184 828 -103 q 438 -278 625 -278 l 390 -278 l 424 -81 l 461 -81 q 581 -34 534 -81 q 643 98 628 12 l 708 468 q 734 659 734 615 q 722 727 734 703 q 679 770 710 752 q 605 788 648 788 q 442 710 510 788 q 350 495 373 632 l 263 0 l 38 0 l 215 1013 l 442 1013 l 415 858 q 577 990 499 950 q 744 1031 655 1031 q 936 923 882 1031 q 968 776 968 859 q 953 612 968 694 l 864 98 "},"Ẋ":{"x_min":-63.0625,"x_max":1015.890625,"ha":964,"o":"m 514 1288 l 682 1288 l 653 1121 l 486 1121 l 514 1288 m 620 512 l 844 0 l 605 0 l 457 339 l 190 0 l -63 0 l 346 519 l 130 1013 l 370 1013 l 510 694 l 760 1013 l 1015 1013 l 620 512 "},"ͷ":{"x_min":38.65625,"x_max":837.53125,"ha":876,"o":"m 38 0 l 171 760 l 389 760 l 319 355 l 610 760 l 837 760 l 704 0 l 485 0 l 556 404 l 265 0 l 38 0 "},"ď":{"x_min":45,"x_max":1183.34375,"ha":894,"o":"m 383 157 q 520 243 467 157 q 573 468 573 329 q 543 566 573 531 q 460 602 514 602 q 324 516 377 602 q 271 298 271 431 q 299 193 271 229 q 383 157 328 157 m 613 648 l 684 1055 l 904 1055 l 719 0 l 499 0 l 519 110 q 414 12 469 43 q 294 -19 359 -19 q 112 62 179 -19 q 45 283 45 143 q 68 454 45 371 q 135 604 91 536 q 261 733 191 689 q 411 778 331 778 q 529 746 480 778 q 613 648 579 715 m 1004 1054 l 1183 1054 l 1052 799 l 929 799 l 1004 1054 "},"Ⴠ":{"x_min":95.1875,"x_max":1076.9375,"ha":1114,"o":"m 1013 310 q 963 168 1000 234 q 874 53 926 102 q 755 -23 821 4 q 619 -51 690 -51 q 493 -23 549 -51 q 399 53 436 4 q 351 152 363 102 q 340 239 340 202 q 346 310 340 273 l 444 868 l 300 868 l 265 663 l 95 663 l 163 1052 l 663 1052 l 534 310 q 531 274 531 292 q 535 233 531 257 q 556 186 540 209 q 597 149 572 163 q 652 136 621 136 q 713 149 684 136 q 764 186 741 163 q 803 241 788 209 q 826 310 819 273 l 889 671 l 1076 671 l 1013 310 "},"䷨":{"x_min":104,"x_max":1018,"ha":1121,"o":"m 104 574 l 475 574 l 475 438 l 104 438 l 104 574 m 646 574 l 1017 574 l 1017 438 l 646 438 l 646 574 m 104 793 l 475 793 l 475 657 l 104 657 l 104 793 m 646 793 l 1017 793 l 1017 657 l 646 657 l 646 793 m 104 1013 l 1017 1013 l 1017 877 l 104 877 l 104 1013 m 104 -84 l 1017 -84 l 1017 -220 l 104 -220 l 104 -84 m 105 135 l 1018 135 l 1018 -1 l 105 -1 l 105 135 m 104 355 l 475 355 l 475 219 l 104 219 l 104 355 m 646 355 l 1017 355 l 1017 219 l 646 219 l 646 355 "},"⟸":{"x_min":61,"x_max":1720,"ha":1791,"o":"m 241 385 l 1720 385 l 1720 276 l 338 276 l 389 219 l 301 121 l 61 388 l 61 482 l 301 749 l 389 651 l 338 595 l 1720 595 l 1720 486 l 241 486 l 195 435 l 241 385 "},"Ώ":{"x_min":-1.609375,"x_max":1070,"ha":1117,"o":"m 238 1110 l 410 1110 l 141 856 l 22 856 l 238 1110 m 308 891 q 676 1031 457 1031 q 996 891 895 1031 q 1070 649 1070 788 q 1059 541 1070 597 q 840 197 1018 304 l 1028 197 l 993 0 l 575 0 l 612 211 q 659 245 638 225 q 815 535 785 364 q 823 637 823 579 q 794 753 823 696 q 643 842 751 842 q 460 753 535 842 q 363 535 386 665 q 356 449 356 490 q 418 245 356 332 q 453 211 432 225 l 416 0 l -1 0 l 33 197 l 220 197 q 113 439 113 280 q 121 541 113 487 q 308 891 159 751 "},"ᴧ":{"x_min":-46.796875,"x_max":730.390625,"ha":814,"o":"m 730 0 l 512 0 l 434 525 l 172 0 l -46 0 l 355 760 l 595 760 l 730 0 "},"̟":{"x_min":-472.6875,"x_max":-159.375,"ha":0,"o":"m -378 -229 l -472 -229 l -451 -113 l -357 -113 l -339 -8 l -234 -8 l -252 -113 l -159 -113 l -179 -229 l -273 -229 l -292 -333 l -396 -333 l -378 -229 "},"䷋":{"x_min":104,"x_max":1017,"ha":1121,"o":"m 104 -84 l 475 -84 l 475 -220 l 104 -220 l 104 -84 m 646 -84 l 1017 -84 l 1017 -220 l 646 -220 l 646 -84 m 104 135 l 475 135 l 475 -1 l 104 -1 l 104 135 m 646 135 l 1017 135 l 1017 -1 l 646 -1 l 646 135 m 104 355 l 475 355 l 475 219 l 104 219 l 104 355 m 646 355 l 1017 355 l 1017 219 l 646 219 l 646 355 m 104 574 l 1017 574 l 1017 438 l 104 438 l 104 574 m 104 794 l 1017 794 l 1017 658 l 104 658 l 104 794 m 104 1013 l 1017 1013 l 1017 877 l 104 877 l 104 1013 "},"סּ":{"x_min":82.046875,"x_max":916,"ha":966,"o":"m 205 586 l 82 586 l 112 760 l 235 760 l 454 760 l 644 760 q 881 657 816 760 q 916 509 916 602 q 904 387 916 454 q 465 -26 831 -26 q 210 73 288 -26 q 158 259 158 142 q 169 380 158 314 l 205 586 m 423 586 l 402 460 q 384 293 384 356 q 389 237 384 259 q 497 154 410 154 q 642 231 604 154 q 685 386 667 280 q 695 479 695 439 q 691 522 695 502 q 614 586 681 586 l 423 586 m 537 379 l 537 379 m 475 0 l 475 0 m 488 448 l 610 448 l 586 312 l 464 312 l 488 448 m 537 379 l 537 379 "},"ჼ":{"x_min":47,"x_max":442.296875,"ha":460,"o":"m 261 689 q 263 725 265 710 q 255 752 261 741 q 242 767 250 762 q 227 772 234 772 q 212 767 221 772 q 195 751 203 761 q 179 723 187 740 q 168 685 172 707 q 167 642 167 660 q 171 612 167 624 q 183 594 176 600 q 196 588 190 588 q 213 594 204 588 q 232 613 223 600 q 249 644 241 626 q 261 689 257 663 m 236 870 q 312 861 280 870 q 361 831 343 852 q 382 787 379 810 q 386 750 386 763 q 379 688 386 723 q 178 473 341 473 q 47 615 47 473 q 54 689 47 648 l 91 902 q 266 1052 118 1052 l 442 1052 l 424 956 l 235 956 l 218 858 l 236 870 "},"Ѿ":{"x_min":41,"x_max":1310,"ha":1366,"o":"m 1135 1263 l 1034 1100 l 997 1100 l 974 1182 l 845 1182 l 795 1100 l 758 1100 l 735 1182 l 607 1182 l 557 1100 l 521 1100 l 475 1263 l 1135 1263 m 296 251 q 381 178 318 178 q 489 249 445 178 q 554 436 535 325 l 583 599 l 815 599 l 786 436 q 775 331 775 378 q 786 249 775 285 q 869 178 807 178 q 979 251 935 178 q 1060 515 1027 332 q 1073 667 1073 594 q 1068 747 1073 708 q 1011 1012 1043 964 l 1206 1012 q 1284 818 1262 921 q 1310 599 1310 696 q 1302 498 1310 545 q 1140 100 1253 220 q 873 -20 1028 -20 q 700 43 763 -20 q 637 224 637 107 q 498 43 584 107 q 305 -20 413 -20 q 81 100 146 -20 q 41 298 41 173 q 60 498 41 386 q 189 818 85 637 q 335 1012 251 926 l 530 1012 q 381 747 482 964 q 309 515 331 639 q 289 325 289 397 q 296 251 289 279 "},"Ⴃ":{"x_min":49,"x_max":1075.34375,"ha":1046,"o":"m 783 442 q 789 510 789 476 q 789 545 789 519 q 778 608 789 570 q 748 677 767 645 q 703 731 729 708 q 645 767 677 754 q 574 780 612 780 q 499 767 536 780 q 429 731 463 754 q 364 677 395 708 q 311 608 334 645 q 270 528 287 570 q 246 442 253 486 q 241 379 241 409 q 249 307 241 349 q 286 223 257 265 q 360 158 315 182 q 461 135 404 135 q 572 158 519 135 q 669 222 625 181 q 742 319 712 263 q 783 442 772 375 m 969 442 q 900 248 951 338 q 777 91 850 157 q 614 -13 704 24 q 428 -51 524 -51 q 310 -33 365 -51 q 210 15 255 -16 q 130 91 164 46 q 76 191 96 136 q 52 287 56 246 q 49 349 49 328 q 57 442 49 394 q 99 574 70 511 q 171 691 129 637 q 266 790 213 746 q 377 868 318 835 l 133 868 l 164 1046 l 1075 1046 l 1044 868 l 799 868 q 883 790 846 835 q 943 691 920 746 q 971 592 966 636 q 977 522 977 548 q 969 442 977 483 "},"ṏ":{"x_min":45,"x_max":813,"ha":858,"o":"m 546 921 l 516 946 q 491 963 501 959 q 470 968 481 968 q 433 946 449 968 q 410 886 417 924 l 327 886 q 382 1020 342 973 q 480 1067 422 1067 q 522 1058 503 1067 q 564 1032 542 1050 l 596 1004 q 617 990 606 995 q 638 986 628 986 q 677 1006 661 986 q 699 1067 693 1027 l 784 1067 q 728 933 768 980 q 632 886 688 886 q 589 894 608 886 q 546 921 569 901 m 411 1250 l 554 1250 l 526 1083 l 382 1083 l 411 1250 m 651 1250 l 797 1250 l 766 1083 l 623 1083 l 651 1250 m 468 604 q 328 518 383 604 q 273 300 273 433 q 303 191 273 228 q 389 153 332 153 q 529 239 474 153 q 584 458 584 325 q 554 566 584 529 q 468 604 525 604 m 485 777 q 725 691 638 777 q 813 456 813 605 q 785 289 813 370 q 705 141 758 208 q 558 20 643 61 q 369 -20 473 -20 q 131 66 218 -20 q 45 300 45 152 q 72 468 45 386 q 153 617 100 549 q 298 736 214 696 q 485 777 383 777 "},"ᖒ":{"x_min":91.96875,"x_max":1611.328125,"ha":1618,"o":"m 348 926 q 276 906 305 926 q 241 848 247 886 q 255 791 234 812 q 321 771 276 771 q 395 791 367 771 q 429 848 423 811 q 415 905 436 884 q 348 926 394 926 m 514 642 l 521 679 l 305 679 q 130 728 185 679 q 95 865 80 773 q 173 973 107 933 q 366 1028 261 1028 q 541 973 483 1028 q 580 865 591 926 q 533 771 571 809 l 678 771 l 655 642 q 669 585 649 605 q 729 565 689 565 q 797 585 770 565 q 830 642 823 605 l 853 771 l 993 771 l 971 642 q 893 509 955 555 q 712 465 831 465 q 545 510 592 465 q 514 642 499 557 m 946 329 q 971 212 933 255 q 1070 169 1009 169 q 1176 210 1127 169 q 1239 329 1226 251 l 1359 1012 l 1594 1012 l 1474 329 q 1322 70 1445 161 q 1036 -20 1199 -20 q 767 68 853 -20 q 711 329 681 156 l 946 329 m 1443 1288 l 1611 1288 l 1582 1121 l 1415 1121 l 1443 1288 "},"Ć":{"x_min":45,"x_max":905.421875,"ha":917,"o":"m 757 47 q 595 -3 673 13 q 448 -20 518 -20 q 154 91 264 -20 q 45 388 45 203 q 79 617 45 509 q 182 813 114 725 q 374 974 262 918 q 617 1031 487 1031 q 759 1012 688 1031 q 905 955 831 993 l 867 746 q 749 818 808 795 q 622 842 690 842 q 386 721 481 842 q 291 418 291 600 q 349 235 291 302 q 511 169 408 169 q 642 193 573 169 q 797 271 711 218 l 757 47 m 716 1288 l 887 1288 l 692 1109 l 566 1109 l 716 1288 "},"ẓ":{"x_min":-10.171875,"x_max":733.09375,"ha":727,"o":"m 136 759 l 733 759 l 703 590 l 277 173 l 630 173 l 600 0 l -10 0 l 18 169 l 445 586 l 107 586 l 136 759 m 362 -295 l 194 -295 l 224 -128 l 392 -128 l 362 -295 "},"↫":{"x_min":61,"x_max":976,"ha":1047,"o":"m 735 517 l 782 517 q 800 521 792 517 q 816 532 808 525 q 827 549 823 540 q 830 569 830 558 q 827 589 830 580 q 816 606 823 598 q 800 617 808 613 q 782 622 792 622 q 765 617 772 622 q 748 606 756 613 q 738 589 741 598 q 735 569 735 580 l 735 517 m 735 354 l 735 191 l 589 191 l 589 354 l 268 354 l 389 219 l 301 121 l 61 387 l 61 483 l 301 749 l 389 651 l 268 517 l 589 517 l 589 569 q 603 651 589 611 q 645 722 618 692 q 708 769 672 751 q 782 785 740 785 q 856 769 824 785 q 919 722 892 751 q 961 651 945 693 q 976 569 976 613 q 961 487 976 527 q 919 416 946 446 q 857 369 892 387 q 782 354 825 354 l 735 354 "},"Ͱ":{"x_min":26.453125,"x_max":778.53125,"ha":872,"o":"m 203 1011 l 438 1011 l 370 626 l 778 626 l 743 429 l 336 429 l 261 0 l 26 0 l 203 1011 "},"Ğ":{"x_min":45,"x_max":972.375,"ha":1025,"o":"m 851 74 q 666 3 762 26 q 460 -20 570 -20 q 155 89 266 -20 q 45 388 45 199 q 79 618 45 511 q 183 815 114 726 q 382 977 267 923 q 644 1031 496 1031 q 808 1012 725 1031 q 972 955 891 993 l 936 746 q 790 818 861 794 q 647 842 719 842 q 391 725 490 842 q 292 425 292 608 q 349 236 292 303 q 512 169 407 169 q 580 174 546 169 q 649 190 614 179 l 684 387 l 541 387 l 570 562 l 936 562 l 851 74 m 440 1288 l 527 1288 q 558 1228 533 1247 q 631 1210 583 1210 q 707 1230 675 1210 q 754 1288 739 1251 l 846 1288 q 762 1154 823 1200 q 612 1109 702 1109 q 484 1154 528 1109 q 440 1285 440 1200 l 440 1288 "},"Ї":{"x_min":26.453125,"x_max":585.9375,"ha":465,"o":"m 204 1013 l 438 1013 l 261 0 l 26 0 l 204 1013 m 199 1288 l 343 1288 l 314 1121 l 170 1121 l 199 1288 m 440 1288 l 585 1288 l 555 1121 l 411 1121 l 440 1288 "},"Ṁ":{"x_min":26.453125,"x_max":1217.984375,"ha":1244,"o":"m 651 1289 l 819 1289 l 790 1122 l 623 1122 l 651 1289 m 204 1013 l 492 1013 l 609 475 l 917 1013 l 1217 1013 l 1040 0 l 817 0 l 947 747 l 631 195 l 504 195 l 379 747 l 248 0 l 26 0 l 204 1013 "},"𝕒":{"x_min":54,"x_max":782,"ha":880,"o":"m 598 81 l 709 81 l 709 433 q 647 634 709 577 q 576 674 620 659 q 598 580 598 633 l 598 81 m 782 433 l 782 0 l 525 0 l 525 112 q 426 11 480 43 q 292 -19 371 -19 q 120 49 186 -19 q 54 227 54 117 q 136 423 54 361 q 396 486 218 486 l 525 486 l 525 580 q 483 665 525 638 q 356 692 442 692 q 225 676 286 692 q 114 629 165 660 l 114 739 q 263 768 188 758 q 413 778 338 778 q 695 696 608 778 q 782 433 782 615 m 525 366 l 525 405 l 396 405 q 317 400 352 405 l 317 62 q 489 165 420 72 q 525 366 525 214 m 244 66 l 244 388 q 177 356 203 376 q 127 235 127 318 q 170 107 127 153 q 244 66 200 77 "},"ໝ":{"x_min":36.078125,"x_max":1695.03125,"ha":1704,"o":"m 1096 606 q 1000 664 1106 664 q 877 598 960 664 l 814 238 q 387 -28 767 -28 q 40 216 -2 -28 q 156 504 70 385 q 96 651 78 550 q 320 856 132 856 q 479 668 510 856 q 354 464 458 554 q 239 224 239 367 q 422 165 239 165 q 624 237 611 165 l 670 505 q 618 498 658 489 q 515 691 485 526 q 717 861 545 861 q 862 808 822 861 q 1042 859 951 859 q 1286 609 1329 859 l 1223 241 q 1296 184 1253 184 q 1404 238 1394 184 l 1504 809 l 1695 809 l 1596 241 q 1265 -17 1549 -17 q 1127 45 1193 -17 q 818 -21 1010 -21 l 852 178 q 1003 200 946 167 q 1039 282 1029 224 l 1096 606 "},"Ⴋ":{"x_min":27,"x_max":1088.78125,"ha":1125,"o":"m 402 486 q 340 472 369 486 q 286 436 310 459 q 245 380 262 412 q 221 310 228 348 q 218 273 218 290 q 222 233 218 256 q 242 186 226 210 q 283 149 258 163 q 341 136 308 136 q 401 149 372 136 q 453 186 430 163 q 493 242 477 210 q 515 310 509 273 l 546 486 l 402 486 m 793 -30 l 883 486 l 733 486 l 702 310 q 652 169 689 235 q 561 54 614 103 q 442 -22 508 5 q 307 -51 377 -51 q 181 -22 238 -51 q 87 54 124 6 q 38 154 50 103 q 27 242 27 204 q 33 310 27 275 q 85 453 47 388 q 177 568 122 519 q 297 643 231 616 q 435 671 363 671 l 578 671 l 613 867 l 205 867 l 237 1053 l 832 1053 l 765 671 l 1088 671 l 966 -30 l 793 -30 "},"ʚ":{"x_min":34.203125,"x_max":840,"ha":914,"o":"m 374 135 q 520 200 456 135 q 602 378 583 263 q 583 555 624 499 q 451 623 534 623 q 356 599 393 623 q 312 546 317 574 q 338 493 307 516 q 436 473 364 473 l 512 473 l 485 321 l 413 321 q 292 295 334 321 q 240 228 246 269 q 268 161 233 188 q 374 135 303 135 m 322 -20 q 90 38 163 -20 q 38 215 18 97 q 98 340 51 291 q 223 409 145 388 q 134 468 160 426 q 119 578 107 512 q 216 729 136 680 q 436 778 295 778 q 777 672 691 778 q 830 379 863 566 q 674 85 797 191 q 322 -20 552 -20 "},"↶":{"x_min":13.125,"x_max":1019,"ha":1046,"o":"m 1019 506 l 873 506 q 854 614 873 564 q 798 705 836 662 q 716 766 761 744 q 620 788 672 788 q 524 766 568 788 q 442 705 479 744 q 387 614 404 662 q 368 506 368 564 l 489 640 l 577 541 l 338 275 l 253 275 l 13 541 l 101 640 l 222 506 q 252 676 222 596 q 339 821 282 758 q 468 918 394 881 q 620 951 536 951 q 772 918 704 951 q 901 821 846 881 q 989 676 958 758 q 1019 506 1019 596 "},"ῖ":{"x_min":53,"x_max":530.140625,"ha":487,"o":"m 294 246 q 286 171 286 196 q 290 137 286 147 q 336 116 302 116 q 391 118 370 116 l 368 -9 q 198 -26 328 -26 q 120 -13 157 -26 q 53 84 53 10 q 61 158 53 112 l 166 760 l 385 760 l 294 246 m 292 925 l 262 950 q 256 955 260 952 q 214 976 233 976 q 178 952 194 976 q 156 888 162 928 l 71 888 q 127 1031 87 981 q 225 1081 167 1081 q 267 1071 246 1081 q 310 1042 287 1062 l 342 1013 q 363 997 353 1002 q 383 992 374 992 q 422 1014 406 992 q 444 1080 438 1037 l 530 1080 q 474 937 513 987 q 377 887 434 887 q 338 894 356 887 q 292 925 319 902 "},"𝌔":{"x_min":104,"x_max":1017,"ha":1121,"o":"m 104 917 l 1017 917 l 1017 781 l 104 781 l 104 917 m 104 657 l 475 657 l 475 521 l 104 521 l 104 657 m 646 657 l 1017 657 l 1017 521 l 646 521 l 646 657 m 104 396 l 475 396 l 475 260 l 104 260 l 104 396 m 646 396 l 1017 396 l 1017 260 l 646 260 l 646 396 m 311 0 l 104 0 l 104 136 l 311 136 l 311 0 m 810 0 l 810 136 l 1017 136 l 1017 0 l 810 0 m 663 0 l 457 0 l 457 136 l 663 136 l 663 0 "},"ᓿ":{"x_min":-36.625,"x_max":1108.125,"ha":1198,"o":"m 941 589 l 1108 589 l 1078 422 l 912 422 l 941 589 m 210 64 l 198 0 l -36 0 l -12 138 q 231 525 31 388 q 590 663 432 663 l 651 1013 l 887 1013 l 792 472 l 660 472 q 365 376 478 472 q 210 64 252 280 m 729 1289 l 897 1289 l 868 1122 l 701 1122 l 729 1289 "},"ԝ":{"x_min":132,"x_max":1157.671875,"ha":1154,"o":"m 132 760 l 321 760 l 321 237 l 539 760 l 725 760 l 725 238 l 942 760 l 1157 760 l 845 0 l 602 0 l 602 522 l 382 0 l 132 0 l 132 760 "},"𝕠":{"x_min":54,"x_max":805,"ha":859,"o":"m 430 777 q 706 671 607 777 q 805 378 805 565 q 706 85 805 191 q 430 -20 607 -20 q 153 85 253 -20 q 54 378 54 191 q 153 671 54 565 q 430 777 253 777 m 245 109 l 245 647 q 204 612 222 632 q 127 378 127 531 q 204 144 127 225 q 245 109 222 124 m 318 75 q 430 61 368 61 q 541 75 491 61 l 541 681 q 430 696 491 696 q 318 681 368 696 l 318 75 m 614 647 l 614 109 q 655 144 637 124 q 732 378 732 225 q 655 612 732 531 q 614 647 637 632 "},"⠘":{"x_min":549,"x_max":793,"ha":976,"o":"m 549 1085 l 793 1085 l 793 814 l 549 814 l 549 1085 m 549 723 l 793 723 l 793 452 l 549 452 l 549 723 "},"ᕈ":{"x_min":26.453125,"x_max":902.78125,"ha":916,"o":"m 26 0 l 120 540 l 485 540 q 597 576 554 540 q 653 681 641 613 q 634 786 665 749 q 535 823 603 823 l 170 823 l 203 1012 l 593 1012 q 845 926 767 1012 q 895 681 923 840 q 759 436 868 522 q 478 351 651 351 l 322 351 l 261 0 l 26 0 "},"à":{"x_min":22,"x_max":764,"ha":843,"o":"m 411 342 q 287 313 329 342 q 246 230 246 285 q 270 164 246 188 q 339 141 295 141 q 451 186 405 141 q 511 314 496 231 l 516 342 l 411 342 m 753 432 l 676 0 l 458 0 l 476 112 q 362 12 422 44 q 232 -20 302 -20 q 78 35 135 -20 q 22 186 22 91 q 122 409 22 332 q 414 486 222 486 l 543 486 l 545 504 q 547 518 547 514 q 548 525 548 522 q 509 593 548 570 q 396 616 471 616 q 264 600 328 616 q 142 553 201 584 l 174 738 q 315 767 243 757 q 464 777 387 777 q 690 719 616 777 q 764 542 764 661 q 761 492 764 519 q 753 432 758 464 m 446 1110 l 574 856 l 454 856 l 273 1110 l 446 1110 "},"𝙍":{"x_min":26.25,"x_max":856,"ha":962,"o":"m 458 563 q 579 604 538 563 q 621 725 621 645 q 592 799 621 776 q 503 823 564 823 l 406 823 l 359 563 l 458 563 m 328 383 l 260 0 l 26 0 l 203 1012 l 550 1012 q 778 949 700 1012 q 856 765 856 887 q 795 563 856 643 q 629 473 734 484 q 709 419 677 462 q 764 287 740 376 l 841 0 l 608 0 l 539 251 q 489 354 519 326 q 403 383 460 383 l 328 383 "},"⡂":{"x_min":183,"x_max":427,"ha":976,"o":"m 183 724 l 427 724 l 427 453 l 183 453 l 183 724 m 183 0 l 427 0 l 427 -271 l 183 -271 l 183 0 "},"♲":{"x_min":105,"x_max":1016,"ha":1120,"o":"m 492 984 l 734 984 q 787 935 769 984 l 834 845 l 893 883 l 899 883 q 902 878 902 883 l 796 675 l 583 675 l 581 678 l 581 681 q 642 721 592 693 l 642 725 q 517 959 527 945 q 490 977 490 974 l 490 980 l 492 984 m 420 972 l 435 972 q 536 885 502 972 q 555 845 555 851 q 437 621 448 632 l 436 621 q 250 742 252 737 l 250 744 q 356 940 346 935 q 420 972 383 972 m 551 956 l 551 954 l 673 714 l 661 704 l 661 702 l 784 702 l 842 819 l 825 810 q 746 952 756 944 l 734 956 l 551 956 m 283 750 l 429 657 l 527 846 q 442 944 490 944 l 425 944 q 347 874 374 944 l 283 750 m 911 693 q 1013 497 922 682 l 1016 469 l 1016 456 q 966 358 1016 403 q 930 346 953 346 l 842 346 q 725 568 834 353 l 725 572 l 911 693 m 758 561 l 853 373 l 934 373 q 990 443 967 373 l 990 461 q 961 546 990 499 l 903 655 q 758 561 764 568 m 307 640 l 319 640 q 395 495 324 640 q 427 433 427 442 l 424 430 l 420 430 l 359 468 q 241 236 250 258 l 239 221 l 241 194 l 237 191 l 235 191 q 117 414 222 209 q 105 452 105 432 l 105 457 q 156 565 105 476 l 168 593 l 168 593 l 107 632 l 107 636 l 109 640 l 307 640 m 188 614 l 188 610 l 198 602 l 201 602 l 201 600 q 130 461 201 595 l 130 454 q 225 264 130 436 l 347 501 l 349 501 l 366 495 l 366 497 l 307 614 l 188 614 m 696 411 l 699 411 l 703 407 l 703 329 l 929 329 q 976 351 954 329 l 978 351 l 981 347 l 981 346 q 857 104 977 331 q 821 85 843 85 l 703 85 l 703 3 l 699 0 l 694 0 q 590 204 590 195 l 590 206 l 696 411 m 539 329 l 545 323 l 545 88 l 541 85 l 359 85 q 259 175 289 85 l 256 201 l 256 210 q 309 329 256 244 l 539 329 m 675 320 l 618 203 l 675 88 l 679 88 l 679 93 q 683 113 679 113 l 825 113 q 867 178 838 113 l 931 301 l 683 301 q 679 314 679 301 l 679 320 l 675 320 m 322 301 q 282 210 285 234 l 282 203 q 336 117 282 146 l 355 113 l 520 113 l 520 301 l 322 301 "},"ᔖ":{"x_min":45,"x_max":1374,"ha":1419,"o":"m 808 321 q 726 171 730 176 q 567 29 661 79 q 375 -20 473 -20 q 105 76 198 -20 q 45 249 45 139 q 53 338 45 290 q 179 567 78 486 q 492 649 280 649 l 457 452 q 341 422 377 452 q 295 338 305 393 q 291 290 291 312 q 312 224 291 244 q 410 177 366 177 q 527 227 473 177 q 612 334 581 278 q 692 477 689 474 q 837 616 760 563 q 1043 669 913 669 q 1313 573 1222 669 q 1374 400 1374 511 q 1365 310 1374 359 q 1238 81 1339 162 q 926 0 1137 0 l 960 197 q 1077 226 1041 197 q 1123 310 1113 255 q 1128 357 1128 336 q 1105 425 1128 404 q 1008 472 1054 472 q 884 416 938 472 q 808 321 829 361 m 677 926 l 844 926 l 816 759 l 648 759 l 677 926 "},"ᒰ":{"x_min":100.375,"x_max":1133.21875,"ha":1079,"o":"m 129 589 l 296 589 l 267 422 l 100 422 l 129 589 m 556 0 l 322 0 l 499 1013 l 1133 1013 l 1098 816 l 699 816 l 556 0 m 807 1289 l 974 1289 l 946 1122 l 778 1122 l 807 1289 "},"ҁ":{"x_min":41,"x_max":716.203125,"ha":740,"o":"m 423 170 l 604 170 l 524 -288 l 305 -288 l 356 0 q 97 99 175 0 q 41 284 41 172 q 50 379 41 329 q 205 672 83 567 q 513 778 328 778 q 617 767 567 778 q 716 735 668 756 l 680 537 q 600 588 642 571 q 510 604 558 604 q 356 545 418 604 q 277 379 295 485 q 272 320 272 347 q 295 226 272 264 q 423 170 331 170 "},"ꜞ":{"x_min":189.609375,"x_max":426.96875,"ha":359,"o":"m 189 453 l 227 670 l 275 829 l 370 829 l 370 670 l 327 453 l 189 453 m 265 885 l 288 1020 l 426 1020 l 403 885 l 265 885 "},"☯":{"x_min":104,"x_max":1017,"ha":1121,"o":"m 561 515 l 561 497 q 621 336 561 401 q 771 271 682 271 q 924 341 862 271 q 986 515 986 411 q 859 842 986 704 q 557 981 732 981 q 259 849 378 981 q 140 505 140 717 q 203 682 148 622 q 350 743 258 743 q 499 677 438 743 q 561 515 561 612 m 835 505 q 816 458 835 478 q 774 439 797 439 q 730 458 748 439 q 712 505 712 478 q 730 554 712 534 q 774 575 748 575 q 816 554 798 575 q 835 505 835 534 m 408 505 q 390 554 408 534 q 347 575 372 575 q 304 554 322 575 q 287 505 287 534 q 304 458 287 478 q 347 439 322 439 q 390 459 372 439 q 408 505 408 479 m 1017 506 q 883 147 1017 295 q 560 0 750 0 q 237 147 371 0 q 104 506 104 295 q 237 866 104 717 q 560 1015 371 1015 q 883 866 750 1015 q 1017 506 1017 717 "},"⡫":{"x_min":183,"x_max":793,"ha":976,"o":"m 183 1085 l 427 1085 l 427 814 l 183 814 l 183 1085 m 183 724 l 427 724 l 427 453 l 183 453 l 183 724 m 549 1085 l 793 1085 l 793 814 l 549 814 l 549 1085 m 549 362 l 793 362 l 793 91 l 549 91 l 549 362 m 183 0 l 427 0 l 427 -271 l 183 -271 l 183 0 "},"ງ":{"x_min":-3.375,"x_max":703.734375,"ha":711,"o":"m 424 824 q 692 434 760 824 l 623 41 q 525 -226 590 -150 q 249 -334 435 -334 q 26 -239 75 -334 q 3 -26 -17 -155 l 220 -26 q 281 -159 195 -159 q 379 -33 358 -159 l 459 435 q 429 661 492 626 q 236 441 429 441 q 91 617 60 441 q 424 824 127 824 "},"ᑯ":{"x_min":14,"x_max":904.671875,"ha":928,"o":"m 784 329 q 632 70 755 161 q 346 -20 509 -20 q 77 68 163 -20 q 21 329 -8 156 q 159 585 51 499 q 467 671 267 671 q 606 654 547 671 l 669 1012 l 904 1012 l 784 329 m 286 210 q 380 169 322 169 q 486 210 437 169 q 550 329 536 251 q 533 444 564 407 q 436 482 502 482 q 321 442 365 482 q 264 329 277 403 q 286 210 250 251 "},"e":{"x_min":45,"x_max":800,"ha":847,"o":"m 785 350 l 778 312 l 267 312 q 266 300 267 307 q 265 288 265 292 q 305 177 265 214 q 425 141 345 141 q 571 164 494 141 q 732 232 647 187 l 698 44 q 539 -4 618 11 q 378 -20 460 -20 q 131 62 218 -20 q 45 293 45 144 q 72 462 45 380 q 153 611 99 543 q 304 734 216 692 q 498 777 391 777 q 718 694 637 777 q 800 474 800 612 q 796 416 800 446 q 785 350 793 386 m 579 462 q 582 479 582 470 q 582 497 582 489 q 552 584 582 552 q 473 616 523 616 q 365 576 410 616 q 296 462 320 537 l 579 462 "},"⊏":{"x_min":132,"x_max":914.828125,"ha":1047,"o":"m 132 811 l 914 811 l 914 652 l 276 652 l 276 159 l 914 159 l 914 0 l 132 0 l 132 811 "},"ᐮ":{"x_min":77.3125,"x_max":1534.703125,"ha":1622,"o":"m 810 674 l 318 506 l 752 337 l 810 674 m 927 0 l 77 350 l 132 662 l 1104 1012 l 927 0 m 1158 902 l 1283 1003 l 1534 569 l 1409 469 l 1158 902 "},"ᑦ":{"x_min":68.734375,"x_max":582.546875,"ha":604,"o":"m 484 453 l 409 453 q 219 471 280 453 q 118 532 158 489 q 74 619 85 570 q 74 732 63 668 q 114 847 86 798 q 189 934 142 896 q 309 995 242 978 q 508 1018 392 1018 l 582 1018 l 564 912 l 444 912 q 295 863 360 912 q 222 732 238 819 q 250 605 208 650 q 383 560 292 560 l 502 560 l 484 453 "},"𝌀":{"x_min":104,"x_max":1017,"ha":1121,"o":"m 311 326 l 104 326 l 104 462 l 311 462 l 311 326 m 810 326 l 810 462 l 1017 462 l 1017 326 l 810 326 m 663 326 l 457 326 l 457 462 l 663 462 l 663 326 "},"ò":{"x_min":45,"x_max":813,"ha":858,"o":"m 468 604 q 328 518 383 604 q 273 300 273 433 q 303 191 273 228 q 389 153 332 153 q 529 239 474 153 q 584 458 584 325 q 554 566 584 529 q 468 604 525 604 m 485 777 q 725 691 638 777 q 813 456 813 605 q 785 289 813 370 q 705 141 758 208 q 558 20 643 61 q 369 -20 473 -20 q 131 66 218 -20 q 45 300 45 152 q 72 468 45 386 q 153 617 100 549 q 298 736 214 696 q 485 777 383 777 m 453 1110 l 581 856 l 461 856 l 281 1110 l 453 1110 "},"ℎ":{"x_min":38.65625,"x_max":817,"ha":890,"o":"m 806 462 l 724 0 l 505 0 l 575 396 q 586 461 582 434 q 590 504 590 488 q 568 571 590 547 q 507 595 546 595 q 390 536 439 595 q 323 373 342 477 l 257 0 l 38 0 l 222 1055 l 442 1055 l 370 648 q 492 746 431 714 q 619 778 553 778 q 765 723 714 778 q 817 568 817 668 q 814 520 817 546 q 806 462 811 493 "},"♻":{"x_min":104.890625,"x_max":1014,"ha":1120,"o":"m 494 977 l 731 977 q 787 920 767 977 l 832 835 l 893 873 l 897 873 l 897 871 q 790 670 801 685 l 582 670 l 582 674 q 643 716 640 710 l 522 956 q 494 974 502 974 l 494 977 m 431 970 q 521 908 496 970 l 551 849 l 433 625 q 253 743 270 730 q 358 938 344 919 q 431 970 388 970 m 912 681 q 1014 477 1014 493 l 1014 450 q 955 342 1014 381 q 921 337 946 337 l 845 337 q 729 560 837 347 q 867 651 744 575 l 912 681 m 316 632 q 422 429 420 437 l 353 471 q 233 237 235 248 l 233 209 l 235 190 l 232 190 l 109 425 l 104 447 q 155 555 106 468 q 172 590 172 583 l 111 629 l 111 632 l 249 632 l 316 632 m 693 396 l 695 396 l 695 318 l 936 318 q 973 336 955 318 l 976 336 q 853 93 976 329 q 820 78 839 78 l 695 78 l 695 0 l 692 0 l 589 198 l 693 396 m 532 318 l 535 313 l 535 81 l 532 78 l 355 78 q 255 164 284 78 l 253 197 q 303 318 253 229 l 532 318 "},"Ȣ":{"x_min":31,"x_max":961,"ha":1011,"o":"m 496 453 q 338 412 398 453 q 264 298 278 372 q 262 267 262 281 q 298 184 262 214 q 441 144 344 144 q 600 184 540 144 q 671 298 658 223 q 674 330 674 315 q 639 413 674 382 q 496 453 594 453 m 612 912 l 633 1027 q 887 966 804 1027 q 961 818 961 912 q 956 769 961 795 q 881 624 941 682 q 714 538 819 566 q 866 446 820 510 q 900 335 900 399 q 894 284 900 311 q 746 56 868 133 q 413 -20 625 -20 q 105 56 200 -20 q 31 222 31 117 q 36 284 31 252 q 122 446 53 382 q 305 538 189 510 q 169 617 206 559 q 137 713 137 667 q 139 734 137 724 q 267 877 151 807 q 539 925 345 925 l 520 825 q 415 799 452 825 q 351 721 358 762 q 351 707 351 714 q 387 641 351 669 q 525 616 422 616 q 672 655 606 616 q 741 768 727 688 q 744 799 744 785 q 710 874 744 848 q 612 912 668 907 "},"𝞶":{"x_min":85.140625,"x_max":816,"ha":851,"o":"m 719 760 q 816 535 816 709 q 811 485 816 508 q 684 233 788 352 q 460 0 549 78 l 220 0 l 85 760 l 303 760 l 386 200 q 608 572 608 391 q 551 760 608 706 l 719 760 "},"￼":{"x_min":0,"x_max":0,"ha":0},"⠆":{"x_min":183,"x_max":427,"ha":976,"o":"m 183 723 l 427 723 l 427 452 l 183 452 l 183 723 m 183 361 l 427 361 l 427 90 l 183 90 l 183 361 "},"⁻":{"x_min":83,"x_max":576,"ha":659,"o":"m 83 742 l 576 742 l 576 652 l 83 652 l 83 742 "},"ṉ":{"x_min":38.65625,"x_max":817,"ha":890,"o":"m 806 462 l 724 0 l 505 0 l 575 396 q 586 461 582 434 q 590 504 590 488 q 568 571 590 547 q 507 595 546 595 q 390 536 439 595 q 323 373 342 477 l 257 0 l 38 0 l 171 760 l 391 760 l 370 648 q 492 746 431 714 q 619 778 553 778 q 765 723 714 778 q 817 568 817 668 q 814 520 817 546 q 806 462 811 493 m 163 -129 l 547 -129 l 525 -257 l 140 -257 l 163 -129 "},"ᵒ":{"x_min":61,"x_max":545,"ha":609,"o":"m 327 791 q 240 742 274 791 q 205 621 205 695 q 223 560 205 581 q 278 539 242 539 q 366 587 332 539 q 401 709 401 635 q 382 770 401 749 q 327 791 363 791 m 339 888 q 490 839 435 888 q 545 708 545 791 q 527 614 545 660 q 477 532 510 569 q 385 464 438 487 q 265 442 331 442 q 115 490 170 442 q 61 621 61 538 q 78 715 61 669 q 129 798 96 760 q 221 865 168 842 q 339 888 274 888 "},"ѻ":{"x_min":43,"x_max":1028,"ha":1078,"o":"m 497 601 l 465 601 q 344 544 392 601 q 277 378 295 485 q 270 298 270 334 q 286 211 270 246 q 387 154 314 154 l 417 154 q 429 166 423 160 q 465 189 440 178 q 503 198 483 198 q 539 189 523 198 q 567 166 558 178 q 573 154 570 160 l 607 154 q 726 211 678 154 q 793 379 773 269 q 801 457 801 422 q 784 544 801 509 q 685 601 757 601 l 650 601 l 641 591 q 605 568 630 579 q 567 560 587 560 q 531 568 546 560 q 503 591 510 579 l 497 601 m 673 736 l 708 736 q 967 642 896 736 q 1028 456 1028 564 q 1021 379 1028 418 q 875 112 993 218 q 583 20 771 20 l 547 20 l 539 11 q 503 -12 528 0 q 464 -20 484 -20 q 429 -12 444 -20 q 402 11 411 -1 q 396 20 399 15 l 363 20 q 103 112 174 20 q 43 300 43 191 q 50 378 43 338 q 196 642 77 536 q 489 736 300 736 l 521 736 l 530 745 q 566 769 541 758 q 604 778 584 778 q 640 769 624 778 q 668 745 661 758 l 673 736 "},"ˆ":{"x_min":132.25,"x_max":603.578125,"ha":625,"o":"m 332 1111 l 492 1111 l 603 856 l 495 856 l 400 1008 l 252 856 l 132 856 l 332 1111 "},"ū":{"x_min":75,"x_max":851.359375,"ha":889,"o":"m 84 295 l 164 759 l 383 759 l 314 363 q 303 297 307 325 q 300 255 300 270 q 321 188 300 212 q 382 165 342 165 q 498 223 449 165 q 565 385 547 281 l 631 760 l 851 760 l 718 0 l 498 0 l 518 110 q 400 12 462 45 q 270 -20 338 -20 q 126 34 177 -20 q 75 190 75 89 q 77 240 75 213 q 84 295 79 266 m 344 1059 l 729 1059 l 706 931 l 321 931 l 344 1059 "},"䷌":{"x_min":104,"x_max":1017,"ha":1121,"o":"m 104 574 l 1017 574 l 1017 438 l 104 438 l 104 574 m 104 794 l 1017 794 l 1017 658 l 104 658 l 104 794 m 104 1013 l 1017 1013 l 1017 877 l 104 877 l 104 1013 m 104 -84 l 1017 -84 l 1017 -220 l 104 -220 l 104 -84 m 104 135 l 475 135 l 475 -1 l 104 -1 l 104 135 m 646 135 l 1017 135 l 1017 -1 l 646 -1 l 646 135 m 104 355 l 1017 355 l 1017 219 l 104 219 l 104 355 "},"ꙗ":{"x_min":38.390625,"x_max":1131,"ha":1210,"o":"m 1119 432 l 1043 0 l 825 0 l 843 112 q 730 12 790 44 q 600 -20 670 -20 q 445 35 502 -20 q 389 186 389 91 q 409 305 389 252 l 310 305 l 256 0 l 38 0 l 171 759 l 389 759 l 336 455 l 575 455 q 781 486 659 486 l 910 486 l 912 504 q 914 518 914 514 q 915 525 915 522 q 877 593 915 570 q 763 616 839 616 q 632 600 695 616 q 509 553 569 584 l 542 739 q 682 767 611 757 q 831 777 754 777 q 1057 719 983 777 q 1131 542 1131 661 q 1127 492 1131 519 q 1119 432 1124 464 m 778 342 q 655 313 697 342 q 613 230 613 285 q 637 164 613 188 q 705 141 662 141 q 818 186 773 141 q 879 313 863 231 l 883 342 l 778 342 "},"☬":{"x_min":104,"x_max":784,"ha":888,"o":"m 444 1016 q 534 964 485 1016 l 523 954 l 514 869 q 622 784 591 838 q 657 671 657 729 q 532 470 657 536 l 532 420 l 459 420 l 459 338 q 620 426 533 338 q 702 666 702 532 q 625 863 702 785 l 638 876 l 641 876 q 784 589 784 764 q 693 182 784 393 q 572 301 620 301 q 538 270 538 301 q 611 151 538 251 q 630 94 630 124 q 595 54 621 54 q 552 75 557 48 q 458 270 515 237 l 458 168 q 508 40 458 119 q 444 0 508 0 q 376 41 376 0 q 425 171 425 119 l 425 270 q 332 77 332 207 q 289 54 327 54 q 255 94 263 54 q 302 194 255 137 q 347 273 349 251 q 319 301 347 301 q 198 183 268 301 q 104 605 104 379 q 243 876 104 763 l 246 876 l 259 863 q 183 663 183 781 q 313 382 183 492 q 425 338 351 350 l 425 420 l 353 420 l 353 470 q 229 671 229 532 q 373 869 229 800 l 358 954 l 349 966 q 444 1016 402 1016 m 277 667 q 358 518 277 568 l 361 518 q 404 683 404 589 q 386 825 404 739 q 301 758 332 808 q 277 667 277 715 m 501 825 q 480 680 480 747 q 520 518 480 587 q 608 673 608 559 q 501 825 608 776 "},"ᕂ":{"x_min":106.21875,"x_max":1244.4375,"ha":1291,"o":"m 408 649 l 349 310 q 367 205 337 242 q 466 169 398 169 q 578 205 535 169 q 634 310 622 242 l 693 649 l 1244 649 l 1209 452 l 893 452 l 869 310 q 735 65 841 151 q 434 -20 629 -20 q 162 64 238 -20 q 113 310 85 148 l 173 649 l 408 649 "},"ֺ":{"x_min":-41.375,"x_max":103.765625,"ha":0,"o":"m -18 1004 l 103 1004 l 80 868 l -41 868 l -18 1004 "},"✘":{"x_min":154,"x_max":943,"ha":1047,"o":"m 833 1027 q 866 1006 850 1027 q 883 952 879 991 q 906 949 900 952 q 934 932 925 941 q 943 909 943 923 q 932 871 943 882 q 642 510 785 722 q 822 261 732 371 q 833 233 833 249 q 815 182 833 199 q 780 170 803 170 q 770 134 778 157 q 736 95 755 95 q 696 111 714 95 q 682 91 691 99 q 644 73 660 73 q 613 92 630 73 q 485 286 559 156 q 291 17 345 109 q 268 0 281 0 q 246 24 257 -1 q 235 54 236 45 q 212 46 223 46 q 179 66 197 46 q 157 101 157 90 q 175 150 157 120 q 164 161 169 152 q 154 193 154 177 q 167 229 154 208 q 367 492 247 348 q 232 801 293 620 q 219 862 219 843 q 233 913 219 880 q 256 935 242 935 q 302 908 272 935 q 308 935 302 918 q 333 969 323 969 q 367 950 359 969 q 523 691 432 817 q 816 1018 664 871 q 833 1027 824 1027 "},"⟱":{"x_min":53.296875,"x_max":997.703125,"ha":1048,"o":"m 566 -5 l 483 -5 l 53 472 l 142 569 l 193 514 l 193 1012 l 291 1012 l 291 405 l 381 304 l 381 1012 l 479 1012 l 479 195 l 525 144 l 571 195 l 571 1012 l 669 1012 l 669 304 l 760 405 l 760 1012 l 858 1012 l 858 514 l 908 569 l 997 472 l 566 -5 "},"ᐰ":{"x_min":-82.296875,"x_max":873.03125,"ha":967,"o":"m 637 0 l 531 775 l 154 0 l -82 0 l 432 1013 l 712 1013 l 873 0 l 637 0 m 793 1266 q 742 1128 793 1184 q 620 1073 692 1073 q 496 1128 546 1073 q 446 1266 446 1184 q 496 1403 446 1347 q 620 1459 546 1459 q 742 1403 692 1459 q 793 1266 793 1347 m 711 1266 q 685 1338 711 1310 q 620 1367 659 1367 q 554 1338 579 1367 q 529 1266 529 1310 q 554 1193 529 1222 q 620 1165 580 1165 q 685 1193 659 1165 q 711 1266 711 1221 "},"ȝ":{"x_min":-58.765625,"x_max":705,"ha":758,"o":"m 705 590 q 648 432 705 508 q 500 312 591 356 q 569 281 540 300 q 612 239 598 262 q 633 195 627 217 q 640 150 640 173 q 636 113 640 131 q -58 -293 583 -163 l -28 -138 q 5 -129 -14 -134 q 62 -114 25 -124 q 136 -90 100 -103 q 213 -60 171 -77 q 291 -22 255 -43 q 355 21 326 -1 q 401 72 385 44 q 418 128 418 99 q 388 193 418 169 q 318 216 358 216 q 249 202 286 216 l 122 156 l 149 295 l 287 348 q 375 390 337 367 q 433 434 413 413 q 467 478 454 455 q 483 516 479 500 q 487 548 487 532 q 475 589 487 571 q 443 616 463 607 q 405 628 424 624 q 367 633 386 633 q 137 547 281 633 l 164 687 q 457 778 305 778 q 554 767 511 778 q 625 738 597 756 q 671 696 652 721 q 697 645 689 671 q 705 590 705 620 "},"∡":{"x_min":95.734375,"x_max":1025,"ha":1121,"o":"m 531 682 l 741 1012 l 928 1012 l 646 571 q 759 399 710 494 q 843 170 815 287 l 1025 170 l 1025 0 l 869 0 q 869 -61 869 -30 l 780 -61 q 780 0 780 -30 l 95 0 l 479 602 q 442 630 461 617 l 489 712 q 531 682 510 698 m 594 489 l 389 170 l 751 170 q 683 349 727 261 q 594 489 644 426 "},"☡":{"x_min":105.4375,"x_max":1012.9375,"ha":1120,"o":"m 665 1014 q 821 918 752 1014 q 853 813 853 866 q 778 653 853 719 l 374 240 l 368 198 q 427 120 368 138 l 962 262 q 1012 196 1012 262 l 1012 194 q 951 134 1012 134 l 425 0 q 261 117 326 0 q 245 191 245 153 l 245 207 q 329 374 245 301 q 721 778 708 759 q 728 811 728 796 q 668 887 728 865 l 661 887 l 146 749 q 105 803 112 749 l 105 823 q 165 875 105 866 l 173 875 l 665 1014 "},"ℕ":{"x_min":115,"x_max":931,"ha":1046,"o":"m 262 931 l 669 81 l 781 81 l 374 931 l 262 931 m 115 1012 l 418 1012 l 858 93 l 858 1012 l 931 1012 l 931 0 l 625 0 l 188 913 l 188 0 l 115 0 l 115 1012 "},"ᕕ":{"x_min":0.625,"x_max":874.84375,"ha":967,"o":"m 162 204 q 118 149 124 181 q 142 94 112 117 q 221 71 172 71 q 307 94 269 71 q 350 149 345 117 q 326 204 356 181 q 248 228 296 228 q 162 204 200 228 m 16 190 l 434 1013 l 714 1013 l 874 0 l 638 0 l 533 775 l 309 316 q 419 269 375 306 q 466 149 478 219 q 377 29 454 78 q 205 -20 301 -20 q 49 29 109 -20 q 2 149 -9 79 q 16 190 6 171 "},"œ":{"x_min":45,"x_max":1317,"ha":1367,"o":"m 1096 462 q 1099 479 1098 470 q 1101 497 1101 489 q 1071 584 1101 552 q 991 616 1041 616 q 881 576 928 616 q 813 462 835 536 l 1096 462 m 1302 350 l 1296 312 l 783 312 q 783 300 783 307 q 783 288 783 292 q 823 177 783 214 q 942 141 863 141 q 1088 164 1011 141 q 1249 232 1165 187 l 1216 44 q 1056 -4 1136 11 q 894 -20 977 -20 q 738 6 799 -20 q 642 88 677 32 q 522 6 587 32 q 373 -20 456 -20 q 132 65 220 -20 q 45 300 45 151 q 72 468 45 386 q 152 617 99 550 q 299 737 213 696 q 489 777 384 777 q 637 750 575 777 q 738 667 698 722 q 865 749 795 722 q 1018 777 934 777 q 1235 694 1154 777 q 1317 475 1317 611 q 1313 416 1317 448 q 1302 350 1309 385 m 468 604 q 328 518 383 604 q 273 300 273 433 q 303 191 273 228 q 389 153 332 153 q 529 239 474 153 q 584 458 584 325 q 554 566 584 529 q 468 604 525 604 "},"Ὲ":{"x_min":105.109375,"x_max":1145.421875,"ha":1161,"o":"m 512 1013 l 1145 1013 l 1110 816 l 712 816 l 678 627 l 1054 627 l 1018 430 l 644 430 l 603 197 l 1015 197 l 981 0 l 334 0 l 512 1013 m 278 1111 l 405 856 l 285 856 l 105 1111 l 278 1111 "},"⇦":{"x_min":33.46875,"x_max":975,"ha":1046,"o":"m 282 578 l 154 436 l 282 293 l 282 358 l 890 358 l 890 514 l 282 514 l 282 578 m 368 64 l 33 436 l 368 807 l 368 609 l 975 609 l 975 263 l 368 263 l 368 64 "},"Ɵ":{"x_min":45,"x_max":1017,"ha":1062,"o":"m 613 1031 q 906 918 795 1031 q 1017 625 1017 806 q 983 391 1017 501 q 884 194 949 281 q 696 33 805 86 q 447 -20 588 -20 q 155 91 265 -20 q 45 385 45 203 q 78 619 45 509 q 177 817 112 729 q 363 978 255 925 q 613 1031 472 1031 m 472 169 q 654 257 579 169 q 744 449 715 329 l 295 449 q 293 392 293 419 q 319 257 293 311 q 472 169 363 169 m 767 624 q 741 753 767 701 q 589 842 697 842 q 406 753 481 842 q 334 624 362 701 l 767 624 "},"℆":{"x_min":32,"x_max":1462.71875,"ha":1435,"o":"m 573 992 l 541 811 q 460 861 490 849 q 403 873 430 873 q 284 817 331 873 q 237 674 237 762 q 264 590 237 619 q 342 562 291 562 q 412 573 377 562 q 509 632 447 585 l 476 440 q 384 413 426 421 q 298 405 341 405 q 101 469 171 405 q 32 650 32 533 q 56 789 32 721 q 127 911 81 857 q 248 1000 180 971 q 403 1030 315 1030 q 483 1021 443 1030 q 573 992 523 1013 m 396 -33 l 211 -33 l 984 1043 l 1169 1043 l 396 -33 m 854 237 l 916 596 l 1112 596 l 1057 284 q 1049 235 1052 255 q 1047 205 1047 216 q 1058 164 1047 177 q 1093 151 1070 151 q 1169 190 1136 151 q 1215 305 1202 230 l 1267 596 l 1462 596 l 1358 -1 l 1162 -1 l 1170 44 q 1113 11 1162 36 q 1009 -14 1065 -14 q 888 31 931 -14 q 846 156 846 76 q 848 194 846 174 q 854 237 850 215 "},"ᓄ":{"x_min":-24.421875,"x_max":1120.859375,"ha":1164,"o":"m 852 443 q 753 480 821 480 q 641 443 684 480 q 585 338 597 406 q 604 233 573 270 q 703 197 635 197 q 815 233 771 197 q 871 338 859 270 q 852 443 882 406 m 668 0 l -24 0 l 10 197 l 342 197 q 343 338 329 260 q 479 583 370 497 q 786 669 587 669 q 1063 583 985 669 q 1113 338 1141 497 q 976 89 1083 171 q 668 0 858 0 "},"𝙟":{"x_min":-159.375,"x_max":442.84375,"ha":428,"o":"m 172 759 l 391 759 l 260 13 q 155 -223 232 -146 q -50 -300 79 -300 l -159 -300 l -131 -141 l -93 -141 q -3 -110 -31 -141 q 40 12 25 -79 l 172 759 m 223 1055 l 442 1055 l 408 857 l 187 857 l 223 1055 "},"ᵛ":{"x_min":104.4375,"x_max":588.65625,"ha":626,"o":"m 104 878 l 231 878 l 286 581 l 448 878 l 588 878 l 335 453 l 189 453 l 104 878 "},"ș":{"x_min":12.65625,"x_max":700.015625,"ha":744,"o":"m 171 -126 l 369 -126 l 198 -328 l 81 -328 l 171 -126 m 700 736 l 668 547 q 540 599 603 581 q 419 617 476 617 q 320 598 355 617 q 285 545 285 579 q 304 512 285 524 q 381 486 324 500 l 421 478 q 606 398 553 447 q 660 261 660 349 q 566 55 660 129 q 305 -19 473 -19 q 161 -6 234 -19 q 12 29 88 5 l 45 220 q 172 161 104 181 q 310 142 239 142 q 414 160 379 142 q 449 213 449 178 q 429 251 449 238 q 348 279 409 265 l 308 287 q 142 367 192 315 q 92 514 92 420 q 178 709 92 641 q 424 778 264 778 q 563 767 495 778 q 700 736 631 757 "},"ἱ":{"x_min":53,"x_max":391.109375,"ha":487,"o":"m 294 246 q 286 171 286 196 q 290 137 286 147 q 336 116 302 116 q 391 118 370 116 l 368 -9 q 198 -26 328 -26 q 120 -13 157 -26 q 53 84 53 10 q 61 158 53 112 l 166 760 l 385 760 l 294 246 m 389 1091 l 373 1001 l 283 1001 q 357 909 268 909 l 342 826 q 210 1022 176 826 l 222 1091 l 389 1091 "},"ˈ":{"x_min":100.375,"x_max":282.125,"ha":382,"o":"m 282 1054 l 216 678 l 100 678 l 166 1054 l 282 1054 "},"ɘ":{"x_min":28.015625,"x_max":796.78125,"ha":848,"o":"m 54 381 q 201 669 85 561 q 478 777 316 777 q 737 670 655 777 q 787 378 820 564 q 632 84 754 189 q 327 -20 512 -20 q 173 -3 249 -20 q 28 45 99 13 l 60 232 q 197 163 129 186 q 334 141 266 141 q 474 183 419 141 q 552 312 529 226 l 42 312 l 54 381 m 293 462 l 578 462 q 545 575 578 536 q 450 616 513 616 q 348 573 392 616 q 293 462 305 531 "},"ạ":{"x_min":22,"x_max":764,"ha":843,"o":"m 411 342 q 287 313 329 342 q 246 230 246 285 q 270 165 246 189 q 339 142 295 142 q 451 187 405 142 q 511 314 496 232 l 516 342 l 411 342 m 753 433 l 676 0 l 458 0 l 476 112 q 362 12 422 44 q 232 -19 302 -19 q 78 36 135 -19 q 22 187 22 92 q 122 409 22 332 q 414 486 222 486 l 543 486 l 545 505 q 547 518 547 514 q 548 526 548 522 q 509 594 548 571 q 396 617 471 617 q 264 601 328 617 q 142 554 201 585 l 174 739 q 315 768 243 758 q 464 778 387 778 q 690 720 616 778 q 764 543 764 662 q 761 492 764 520 q 753 433 758 465 m 398 -295 l 230 -295 l 260 -128 l 428 -128 l 398 -295 "},"❥":{"x_min":210,"x_max":910.546875,"ha":1047,"o":"m 910 507 q 617 130 765 412 q 439 0 547 0 q 351 18 393 0 q 277 74 309 36 q 226 156 245 109 q 210 252 210 200 q 226 348 210 304 q 277 431 243 394 q 351 487 308 466 q 439 507 391 506 q 351 525 391 507 q 277 581 308 544 q 226 664 243 618 q 210 760 210 707 q 226 856 210 811 q 277 938 245 902 q 351 994 309 975 q 439 1013 393 1013 q 617 882 549 1013 q 910 507 765 599 "},"ӥ":{"x_min":38.65625,"x_max":837.53125,"ha":876,"o":"m 343 1075 l 488 1075 l 459 908 l 315 908 l 343 1075 m 586 1075 l 730 1075 l 700 908 l 556 908 l 586 1075 m 38 0 l 171 760 l 389 760 l 319 355 l 610 760 l 837 760 l 704 0 l 485 0 l 556 404 l 265 0 l 38 0 "},"ʛ":{"x_min":18.859375,"x_max":959.609375,"ha":855,"o":"m 600 68 q 461 17 531 34 q 316 0 389 0 q 75 102 153 0 q 27 379 -2 204 q 173 657 58 556 q 459 759 289 759 q 478 759 468 759 q 583 975 505 898 q 788 1055 662 1055 l 959 1055 l 931 896 l 830 896 q 739 864 767 896 q 694 741 710 833 l 687 704 l 687 704 l 659 544 q 559 593 611 577 q 453 610 507 610 q 287 549 351 610 q 202 379 222 490 q 225 209 183 269 q 364 149 267 149 q 414 153 391 149 q 457 163 437 156 l 476 277 l 307 277 l 333 427 l 663 427 l 600 68 "},"ᐔ":{"x_min":100.375,"x_max":1358.375,"ha":1436,"o":"m 129 589 l 296 589 l 267 422 l 100 422 l 129 589 m 684 675 l 625 337 l 1117 506 l 684 675 m 331 0 l 508 1012 l 1358 662 l 1303 350 l 331 0 m 846 1289 l 1013 1289 l 985 1122 l 817 1122 l 846 1289 "},"כּ":{"x_min":28.125,"x_max":776,"ha":811,"o":"m 28 0 l 58 173 l 273 173 q 472 212 433 173 q 542 379 521 261 q 551 467 551 430 q 531 547 551 523 q 345 586 498 586 l 130 586 l 161 759 l 476 759 l 527 759 q 749 661 693 759 q 776 531 776 615 q 760 379 776 466 q 650 97 722 162 q 394 0 542 0 l 343 0 l 28 0 m 326 379 l 326 379 m 277 448 l 399 448 l 375 312 l 253 312 l 277 448 m 326 379 l 326 379 "},"➱":{"x_min":77.421875,"x_max":998.546875,"ha":1047,"o":"m 168 398 l 77 622 l 107 690 l 603 690 l 603 730 l 633 797 l 700 797 l 998 466 l 968 398 l 670 67 l 603 67 l 603 175 l 77 175 l 168 398 m 225 398 l 156 229 l 652 229 l 652 122 l 900 398 l 652 675 l 652 568 l 156 568 l 225 398 "},"Ḙ":{"x_min":55.609375,"x_max":866.703125,"ha":854,"o":"m 233 1013 l 866 1013 l 832 816 l 433 816 l 400 627 l 775 627 l 739 430 l 365 430 l 324 197 l 736 197 l 703 0 l 55 0 l 233 1013 m 339 -26 l 499 -26 l 610 -281 l 501 -281 l 406 -128 l 259 -280 l 139 -280 l 339 -26 "},"ﬢ":{"x_min":98.328125,"x_max":1116.9375,"ha":1112,"o":"m 967 586 l 865 0 l 646 0 l 749 586 l 98 586 l 128 759 l 1116 759 l 1086 586 l 967 586 "},"ᐧ":{"x_min":100.375,"x_max":296.359375,"ha":387,"o":"m 129 589 l 296 589 l 267 422 l 100 422 l 129 589 "},"✡":{"x_min":113.9375,"x_max":933.15625,"ha":1047,"o":"m 523 1033 l 660 770 l 933 770 l 796 507 l 933 245 l 660 245 l 523 -18 l 387 245 l 113 245 l 250 507 l 113 770 l 387 770 l 523 1033 m 422 702 l 320 507 l 422 312 l 625 312 l 726 507 l 625 702 l 422 702 m 523 896 l 457 770 l 589 770 l 523 896 m 695 702 l 761 575 l 827 702 l 695 702 m 761 439 l 695 312 l 827 312 l 761 439 m 589 245 l 457 245 l 523 117 l 589 245 m 351 312 l 285 439 l 219 312 l 351 312 m 285 575 l 351 702 l 219 702 l 285 575 "},"ữ":{"x_min":72,"x_max":991,"ha":889,"o":"m 81 295 l 161 759 l 380 759 l 311 363 q 300 298 304 325 q 297 255 297 270 q 318 188 297 212 q 379 165 339 165 q 495 223 446 165 q 562 385 544 281 l 628 759 l 848 759 l 715 0 l 494 0 l 515 110 q 397 12 459 45 q 267 -20 335 -20 q 123 34 174 -20 q 72 190 72 89 q 74 240 72 213 q 81 295 76 266 m 724 576 l 741 671 q 796 624 776 637 q 831 612 816 612 q 874 632 855 612 q 898 685 892 652 q 903 737 903 711 q 898 791 903 763 l 991 791 q 991 721 991 753 q 986 662 991 690 q 936 542 972 584 q 848 501 900 501 q 785 519 815 501 q 724 576 754 537 m 491 924 l 461 950 q 454 954 459 951 q 413 975 431 975 q 377 951 393 975 q 355 888 361 928 l 269 888 q 326 1030 286 980 q 423 1080 366 1080 q 465 1070 445 1080 q 509 1041 486 1061 l 541 1012 q 562 996 552 1001 q 582 991 572 991 q 621 1013 605 991 q 643 1079 637 1036 l 728 1079 q 672 936 712 986 q 576 886 633 886 q 536 893 555 886 q 491 924 518 901 "},"ᓲ":{"x_min":-36.625,"x_max":897.21875,"ha":912,"o":"m 210 64 l 198 0 l -36 0 l -12 138 q 231 525 31 388 q 590 663 432 663 l 651 1013 l 887 1013 l 792 472 l 660 472 q 365 376 478 472 q 210 64 252 280 m 729 1289 l 897 1289 l 868 1122 l 701 1122 l 729 1289 "},"ʐ":{"x_min":15.546875,"x_max":813.75,"ha":867,"o":"m 164 759 l 760 759 l 730 590 l 297 173 l 658 173 l 630 13 q 620 -94 615 -72 q 632 -109 623 -106 q 712 -141 632 -141 l 813 -141 l 785 -300 l 613 -300 q 436 -220 488 -300 q 408 0 387 -141 l 15 0 l 46 169 l 478 586 l 133 586 l 164 759 "},"ὂ":{"x_min":45,"x_max":813,"ha":858,"o":"m 468 604 q 328 518 383 604 q 273 300 273 433 q 303 191 273 228 q 389 153 332 153 q 529 239 474 153 q 584 458 584 325 q 554 566 584 529 q 468 604 525 604 m 485 777 q 725 691 638 777 q 813 456 813 605 q 785 289 813 370 q 705 141 758 208 q 558 20 643 61 q 369 -20 473 -20 q 131 66 218 -20 q 45 300 45 152 q 72 468 45 386 q 153 617 100 549 q 298 736 214 696 q 485 777 383 777 m 241 1090 l 409 1090 l 396 1021 q 195 826 363 826 l 209 909 q 315 1000 299 909 l 226 1000 l 241 1090 m 638 1110 l 765 856 l 645 856 l 465 1110 l 638 1110 "},"î":{"x_min":38.65625,"x_max":517.4375,"ha":428,"o":"m 171 760 l 391 760 l 257 0 l 38 0 l 171 760 m 246 1111 l 406 1111 l 517 856 l 408 856 l 314 1008 l 166 856 l 46 856 l 246 1111 "},"ύ":{"x_min":68,"x_max":806,"ha":844,"o":"m 610 1111 l 782 1111 l 513 856 l 393 856 l 610 1111 m 584 434 q 598 541 598 510 q 547 759 598 700 l 714 759 q 798 587 774 695 q 806 518 806 556 q 797 432 806 480 q 660 102 759 218 q 348 -14 561 -14 q 119 37 169 -14 q 68 174 68 88 q 74 243 68 206 l 164 759 l 383 759 l 291 233 q 289 197 289 217 q 303 158 289 176 q 384 139 320 139 q 521 229 449 139 q 584 434 556 273 "},"ັ":{"x_min":-814.5,"x_max":-34.046875,"ha":0,"o":"m -478 848 q -743 911 -626 848 q -810 1072 -831 960 q -605 1241 -777 1241 q -452 1079 -422 1241 q -473 1010 -458 1043 q -227 1052 -233 1010 q -274 1117 -227 1086 q -127 1245 -203 1186 q -35 1061 -24 1139 q -478 848 -73 848 "},"ϰ":{"x_min":19.734375,"x_max":906.953125,"ha":928,"o":"m 371 239 q 88 -7 260 -23 q 23 119 3 0 q 77 223 26 146 q 244 380 113 277 q 281 565 295 466 q 213 606 276 606 q 110 532 178 606 l 144 730 q 276 760 197 769 q 476 576 493 736 q 456 459 476 481 l 555 513 q 838 760 665 776 q 903 633 922 752 q 849 529 899 606 q 682 372 813 475 q 644 187 631 286 q 713 147 650 147 q 816 220 747 147 l 782 22 q 649 -7 729 -16 q 450 176 433 16 q 470 293 450 271 l 371 239 "},"ɓ":{"x_min":14.921875,"x_max":824.65625,"ha":895,"o":"m 307 213 q 405 156 335 156 q 522 213 475 156 q 588 379 569 270 q 580 544 607 487 q 483 602 553 602 q 365 544 413 602 q 299 379 318 487 q 307 213 280 270 m 347 650 q 463 746 404 715 q 595 778 524 778 q 783 666 722 778 q 814 379 845 554 q 682 91 783 203 q 455 -20 582 -20 q 335 11 384 -20 q 252 109 285 43 l 233 0 l 14 0 l 143 741 q 252 975 170 892 q 457 1055 332 1055 l 628 1055 l 600 896 l 499 896 q 408 864 436 896 q 363 742 379 833 l 347 650 "},"ᒂ":{"x_min":65.109375,"x_max":1152.328125,"ha":1225,"o":"m 381 329 l 500 1012 l 735 1012 l 672 654 q 817 671 738 671 q 1095 585 1017 671 q 1144 329 1173 499 q 997 68 1114 156 q 697 -20 880 -20 q 443 70 535 -20 q 381 329 351 161 m 730 169 q 837 210 787 169 q 901 329 888 251 q 884 442 914 403 q 783 482 853 482 q 673 444 717 482 q 616 329 630 407 q 637 210 602 251 q 730 169 672 169 m 164 790 l 331 790 l 302 623 l 134 623 l 164 790 m 94 388 l 261 388 l 231 221 l 65 221 l 94 388 "},"ǫ":{"x_min":45,"x_max":813,"ha":858,"o":"m 468 604 q 328 518 383 604 q 273 301 273 433 q 303 191 273 229 q 389 153 332 153 q 529 239 474 153 q 584 458 584 325 q 554 567 584 529 q 468 604 525 604 m 485 778 q 725 691 638 778 q 813 457 813 605 q 785 289 813 370 q 705 141 758 208 q 558 20 643 61 q 369 -20 473 -20 q 131 66 218 -20 q 45 300 45 152 q 72 468 45 386 q 153 617 100 550 q 298 737 214 696 q 485 778 383 778 m 297 -11 l 384 -11 q 324 -88 340 -61 q 309 -134 309 -115 q 324 -170 309 -157 q 366 -183 339 -183 q 413 -177 388 -183 q 465 -162 439 -172 l 447 -265 q 385 -278 412 -274 q 334 -283 357 -283 q 235 -259 269 -283 q 202 -191 202 -236 q 224 -104 202 -147 q 297 -11 247 -61 "},"⋕":{"x_min":132,"x_max":915,"ha":1047,"o":"m 725 -138 l 591 -138 l 591 200 l 456 200 l 456 -138 l 322 -138 l 322 200 l 132 200 l 132 361 l 322 361 l 322 511 l 132 511 l 132 670 l 322 670 l 322 1013 l 456 1013 l 456 670 l 591 670 l 591 1013 l 725 1013 l 725 670 l 915 670 l 915 511 l 725 511 l 725 361 l 915 361 l 915 200 l 725 200 l 725 -138 m 591 361 l 591 511 l 456 511 l 456 361 l 591 361 "},"₠":{"x_min":58.140625,"x_max":1148.8125,"ha":1161,"o":"m 672 760 l 1148 760 l 1122 612 l 823 612 l 798 470 l 1080 470 l 1053 322 l 772 322 l 741 148 l 1051 148 l 1025 0 l 539 0 l 589 281 q 480 239 535 253 q 368 225 425 225 q 116 331 197 225 q 67 619 35 437 q 217 906 99 800 q 506 1013 335 1013 q 613 998 563 1013 q 707 956 663 984 l 680 799 q 592 853 637 836 q 495 871 547 871 q 335 803 401 871 q 248 618 269 736 q 270 434 228 501 q 407 367 313 367 q 510 384 459 367 q 617 438 561 401 l 672 760 "},"ᕩ":{"x_min":59,"x_max":1223.90625,"ha":1314,"o":"m 1057 589 l 1223 589 l 1194 422 l 1027 422 l 1057 589 m 687 787 q 765 764 717 764 q 851 787 813 764 q 895 843 889 810 q 896 853 896 848 q 870 898 896 879 q 792 922 840 922 q 706 898 744 922 q 662 843 668 875 q 662 832 662 837 q 687 787 662 806 m 546 800 q 428 736 479 780 q 313 507 339 657 q 305 423 305 462 q 348 276 305 331 q 554 197 410 197 l 873 197 l 839 0 l 591 0 q 289 32 386 0 q 132 144 192 65 q 65 302 81 213 q 59 386 59 341 q 70 507 59 443 q 136 710 90 620 q 259 868 183 799 q 453 980 345 947 q 768 1013 560 1013 l 811 1013 q 963 963 903 1013 q 1013 866 1013 922 q 1010 842 1013 855 q 921 722 998 772 q 749 673 844 673 q 594 722 653 673 q 546 800 554 756 m 561 1289 l 728 1289 l 699 1122 l 532 1122 l 561 1289 "},"⠗":{"x_min":183,"x_max":793,"ha":976,"o":"m 183 1085 l 427 1085 l 427 814 l 183 814 l 183 1085 m 183 723 l 427 723 l 427 452 l 183 452 l 183 723 m 183 361 l 427 361 l 427 90 l 183 90 l 183 361 m 549 723 l 793 723 l 793 452 l 549 452 l 549 723 "},"⌅":{"x_min":241.65625,"x_max":807.34375,"ha":1047,"o":"m 787 588 l 787 425 l 262 425 l 262 588 l 787 588 m 481 152 l 330 -16 l 241 82 l 481 349 l 567 349 l 807 82 l 718 -16 l 567 152 l 481 152 "},"℁":{"x_min":19,"x_max":1381.828125,"ha":1382,"o":"m 1347 179 q 1061 -16 1313 -16 q 839 22 937 -16 l 869 191 l 884 182 q 1065 131 970 131 q 1168 177 1160 131 q 1160 203 1171 194 q 1102 219 1149 212 l 1074 223 q 924 283 964 239 q 901 419 885 327 q 1172 609 934 609 q 1381 574 1286 609 l 1352 406 l 1338 413 q 1160 462 1243 462 q 1069 420 1076 462 q 1077 398 1066 406 q 1131 383 1088 390 l 1159 378 q 1326 314 1288 357 q 1347 179 1364 272 m 326 676 q 244 658 270 676 q 218 606 218 640 q 232 567 218 580 q 271 554 247 554 q 345 583 315 554 q 386 670 375 613 l 387 676 l 326 676 m 597 756 l 538 419 l 344 419 l 350 464 q 297 430 344 457 q 192 404 249 404 q 66 450 113 404 q 19 573 19 497 q 99 750 19 689 q 328 812 180 812 l 410 812 l 411 814 q 412 823 412 820 q 413 828 413 826 q 390 869 413 855 q 315 883 367 883 q 220 871 266 883 q 105 822 175 860 l 136 999 q 253 1023 198 1016 q 366 1031 307 1031 q 545 983 485 1031 q 606 841 606 936 q 603 802 606 823 q 597 756 601 781 m 460 -33 l 275 -33 l 1047 1044 l 1233 1044 l 460 -33 "},"‸":{"x_min":126.140625,"x_max":790.0625,"ha":916,"o":"m 790 -330 l 666 -330 l 457 -159 l 249 -330 l 126 -330 l 457 41 l 790 -330 "},"↨":{"x_min":241.65625,"x_max":807.34375,"ha":1047,"o":"m 481 163 l 241 429 l 330 527 l 451 393 l 451 787 l 330 652 l 241 751 l 481 1017 l 566 1017 l 807 751 l 718 652 l 597 787 l 597 393 l 718 527 l 807 429 l 566 163 l 787 163 l 787 0 l 262 0 l 262 163 l 481 163 "},"Ξ":{"x_min":33.90625,"x_max":773.109375,"ha":789,"o":"m 208 627 l 642 627 l 607 430 l 173 430 l 208 627 m 210 1013 l 773 1013 l 739 816 l 177 816 l 210 1013 m 68 197 l 630 197 l 596 0 l 33 0 l 68 197 "},"⎩":{"x_min":382,"x_max":834,"ha":936,"o":"m 554 1084 l 554 17 q 574 -116 554 -87 q 662 -149 603 -149 l 834 -149 l 834 -334 l 666 -334 q 457 -239 533 -334 q 382 22 382 -141 l 382 1084 l 554 1084 "},"Ԃ":{"x_min":43,"x_max":1394.9375,"ha":1449,"o":"m 296 -20 q 91 58 167 -20 q 43 209 43 107 q 52 312 43 255 q 183 546 81 474 q 467 626 295 626 l 623 626 l 690 1012 l 924 1012 l 819 405 q 809 307 809 349 q 824 226 809 256 q 917 172 851 172 q 1029 226 983 172 q 1097 405 1076 280 l 1160 759 l 1394 759 l 1333 405 q 1179 85 1295 190 q 883 -20 1064 -20 q 625 85 703 -20 q 589 151 603 114 q 451 21 523 62 q 296 -20 380 -20 m 588 429 l 450 429 q 338 398 375 429 q 286 304 297 366 q 283 271 283 286 q 305 208 283 231 q 404 177 333 177 q 517 233 468 177 q 582 399 563 288 l 588 429 "},"𝕗":{"x_min":28.171875,"x_max":659,"ha":633,"o":"m 319 798 q 359 974 319 912 q 240 938 266 974 q 209 811 209 896 l 209 81 l 319 81 l 319 798 m 659 1055 l 659 974 l 552 974 q 426 935 461 974 q 392 798 392 897 l 392 751 l 628 751 l 628 670 l 392 670 l 392 0 l 136 0 l 136 670 l 28 670 l 28 751 l 136 751 l 136 812 q 188 996 136 940 q 357 1055 242 1055 l 659 1055 "},"⡉":{"x_min":183,"x_max":793,"ha":976,"o":"m 183 1085 l 427 1085 l 427 814 l 183 814 l 183 1085 m 549 1085 l 793 1085 l 793 814 l 549 814 l 549 1085 m 183 0 l 427 0 l 427 -271 l 183 -271 l 183 0 "},"ŵ":{"x_min":132,"x_max":1157.671875,"ha":1154,"o":"m 615 1111 l 775 1111 l 886 856 l 777 856 l 683 1008 l 536 856 l 415 856 l 615 1111 m 132 760 l 321 760 l 321 237 l 539 760 l 725 760 l 725 238 l 942 760 l 1157 760 l 845 0 l 602 0 l 602 522 l 382 0 l 132 0 l 132 760 "},"ᾚ":{"x_min":37.296875,"x_max":1536.734375,"ha":1563,"o":"m 720 1012 l 955 1012 l 887 627 l 1234 627 l 1301 1012 l 1536 1012 l 1359 0 l 1124 0 l 1199 430 l 853 430 l 777 0 l 543 0 l 720 1012 m 83 1090 l 250 1090 l 238 1021 q 37 826 204 826 l 51 909 q 157 1000 141 909 l 67 1000 l 83 1090 m 480 1111 l 607 856 l 487 856 l 307 1111 l 480 1111 m 1033 -289 l 924 -289 q 892 -165 870 -289 l 910 -62 l 1029 -62 l 1011 -166 q 1030 -237 998 -237 l 1042 -237 l 1033 -289 "},"№":{"x_min":-45.78125,"x_max":1445,"ha":1503,"o":"m 203 1013 l 466 1013 l 675 318 l 757 780 q 845 964 780 916 q 1092 1013 909 1013 l 1066 863 q 999 841 1013 863 q 979 780 986 820 l 843 0 l 580 0 l 370 694 l 289 231 q 201 48 266 96 q -45 0 137 0 l -20 150 q 46 170 33 150 q 66 231 60 191 l 203 1013 m 1132 658 q 1286 725 1196 725 q 1411 669 1377 725 q 1445 548 1445 614 q 1438 477 1445 516 q 1355 295 1418 361 q 1200 229 1291 229 q 1075 284 1109 229 q 1042 406 1042 339 q 1048 477 1042 438 q 1132 658 1069 592 m 1268 623 q 1207 585 1233 623 q 1170 477 1182 547 q 1164 415 1164 442 q 1173 359 1164 388 q 1218 331 1182 331 q 1315 477 1290 331 q 1322 538 1322 512 q 1312 594 1322 565 q 1268 623 1303 623 m 989 136 l 1378 136 l 1354 0 l 965 0 l 989 136 "},"⁐":{"x_min":-39,"x_max":1075,"ha":1035,"o":"m 1075 1067 q 791 1138 929 1115 q 517 1162 652 1162 q 244 1138 382 1162 q -39 1067 106 1114 l -39 1176 q 247 1259 110 1232 q 518 1287 385 1287 q 788 1259 652 1287 q 1075 1176 924 1232 l 1075 1067 m 1075 -109 l 1075 -218 q 788 -301 924 -274 q 518 -329 652 -329 q 247 -301 385 -329 q -39 -218 110 -274 l -39 -109 q 244 -180 106 -156 q 517 -204 382 -204 q 791 -180 652 -204 q 1075 -109 929 -157 "},"ᐛ":{"x_min":77.3125,"x_max":1104.734375,"ha":1131,"o":"m 810 675 l 318 506 l 752 337 l 810 675 m 927 0 l 77 350 l 132 662 l 1104 1012 l 927 0 m 541 1289 l 708 1289 l 680 1122 l 512 1122 l 541 1289 m 244 1051 l 412 1051 l 383 884 l 216 884 l 244 1051 "},"𝌦":{"x_min":104,"x_max":1017,"ha":1121,"o":"m 104 396 l 475 396 l 475 260 l 104 260 l 104 396 m 646 396 l 1017 396 l 1017 260 l 646 260 l 646 396 m 104 657 l 1017 657 l 1017 521 l 104 521 l 104 657 m 311 0 l 104 0 l 104 136 l 311 136 l 311 0 m 810 0 l 810 136 l 1017 136 l 1017 0 l 810 0 m 663 0 l 457 0 l 457 136 l 663 136 l 663 0 m 104 917 l 475 917 l 475 781 l 104 781 l 104 917 m 646 917 l 1017 917 l 1017 781 l 646 781 l 646 917 "},"ƫ":{"x_min":59.671875,"x_max":642.90625,"ha":597,"o":"m 455 975 l 417 759 l 642 759 l 612 586 l 387 586 l 330 263 q 337 192 321 210 q 408 173 352 173 l 521 173 l 491 0 q 386 -219 462 -142 q 181 -300 306 -300 l 73 -300 l 101 -141 l 139 -141 q 229 -109 201 -141 q 271 4 257 -80 q 130 57 168 4 q 112 263 87 119 l 168 586 l 59 586 l 90 759 l 198 759 l 236 975 l 455 975 "},"ᒋ":{"x_min":24.421875,"x_max":914.71875,"ha":928,"o":"m 672 682 q 647 799 684 756 q 548 843 609 843 q 441 801 491 843 q 379 682 392 760 l 259 0 l 24 0 l 143 682 q 296 941 173 850 q 582 1032 419 1032 q 851 943 765 1032 q 906 682 937 855 l 672 682 "},"ເ":{"x_min":63.78125,"x_max":581,"ha":644,"o":"m 350 -18 q 113 33 174 -18 q 66 160 52 85 l 141 589 q 405 778 174 778 q 581 597 581 778 l 419 533 q 377 602 410 602 q 353 556 361 602 l 296 236 q 397 277 328 277 q 516 137 540 277 q 350 -18 489 -18 "},"𝙖":{"x_min":22,"x_max":764,"ha":843,"o":"m 411 342 q 287 313 329 342 q 246 230 246 285 q 270 164 246 188 q 339 141 295 141 q 451 186 405 141 q 511 314 496 231 l 516 342 l 411 342 m 753 432 l 676 0 l 458 0 l 476 112 q 362 12 422 44 q 232 -20 302 -20 q 78 35 135 -20 q 22 186 22 91 q 122 409 22 332 q 414 486 222 486 l 543 486 l 545 504 q 547 518 547 514 q 548 525 548 522 q 509 593 548 570 q 396 616 471 616 q 264 600 328 616 q 142 553 201 584 l 174 738 q 315 767 243 757 q 464 777 387 777 q 690 719 616 777 q 764 542 764 661 q 761 492 764 519 q 753 432 758 464 "},"̆":{"x_min":-276,"x_max":136.171875,"ha":0,"o":"m -273 1089 l -188 1089 l -188 1082 q -161 1015 -188 1039 q -86 992 -135 992 q -5 1015 -36 992 q 43 1089 26 1039 l 136 1089 q 53 940 115 992 q -104 888 -9 888 q -232 929 -189 888 q -276 1053 -276 971 q -276 1075 -276 1068 q -273 1089 -276 1082 "},"⚯":{"x_min":6,"x_max":1041,"ha":1047,"o":"m 619 557 q 631 598 623 577 q 678 675 644 639 q 747 727 708 708 q 828 745 783 745 q 909 727 874 745 q 978 675 950 706 q 1025 598 1009 641 q 1041 505 1041 555 q 1025 415 1041 458 q 978 338 1009 372 q 909 286 948 304 q 828 269 872 269 q 747 286 782 269 q 678 338 706 307 q 631 415 645 373 q 619 455 623 438 l 427 455 q 416 415 423 435 q 368 338 400 372 q 300 286 338 305 q 219 269 263 269 q 137 286 173 269 q 69 338 96 307 q 21 415 38 372 q 6 505 6 458 q 21 598 6 555 q 69 675 38 641 q 137 727 98 709 q 218 745 174 745 q 300 727 265 745 q 368 675 341 706 q 416 598 402 639 q 427 557 423 577 l 619 557 m 874 632 q 828 643 853 643 q 781 632 802 643 q 741 603 759 622 q 715 558 724 582 q 706 506 706 534 q 715 455 706 479 q 741 410 724 431 q 781 381 759 391 q 828 371 802 371 q 874 381 853 371 q 914 410 896 391 q 941 455 931 431 q 950 506 950 479 q 941 559 950 534 q 914 603 931 582 q 874 632 896 622 m 265 632 q 219 643 244 643 q 172 632 193 643 q 132 602 147 620 q 106 558 115 581 q 97 506 97 534 q 106 455 97 479 q 132 411 115 429 q 172 381 150 392 q 219 371 193 371 q 265 381 244 371 q 305 410 287 391 q 332 455 322 431 q 341 506 341 479 q 332 559 341 534 q 305 603 321 585 q 265 632 287 622 "},"₩":{"x_min":28.984375,"x_max":1427.40625,"ha":1378,"o":"m 137 678 l 137 758 l 60 758 l 77 857 l 128 857 l 128 1012 l 354 1012 l 354 857 l 605 857 l 665 1012 l 893 1012 l 893 857 l 1143 857 l 1204 1012 l 1427 1012 l 1367 857 l 1421 857 l 1403 758 l 1329 758 l 1297 678 l 1389 678 l 1372 579 l 1259 579 l 1035 0 l 753 0 l 753 579 l 661 579 l 436 0 l 154 0 l 154 579 l 28 579 l 46 678 l 137 678 m 912 579 l 912 276 l 1035 579 l 912 579 m 902 758 l 902 678 l 1074 678 l 1105 758 l 902 758 m 374 579 l 374 276 l 497 579 l 374 579 m 730 758 l 699 678 l 737 678 l 737 758 l 730 758 m 362 758 l 362 678 l 536 678 l 566 758 l 362 758 "},"ῳ":{"x_min":41,"x_max":1043,"ha":1086,"o":"m 529 -289 l 420 -289 q 388 -165 366 -289 l 406 -62 l 525 -62 l 508 -166 q 526 -237 495 -237 l 538 -237 l 529 -289 m 509 176 q 253 -19 453 -19 q 41 234 41 -19 q 55 384 41 300 q 240 759 86 558 l 427 759 q 283 387 320 599 q 272 278 272 323 q 332 174 272 174 q 453 482 401 174 l 671 482 q 645 258 645 343 q 684 174 645 174 q 808 387 770 174 q 823 571 823 476 q 793 759 823 666 l 980 759 q 1043 478 1043 611 q 1034 384 1043 430 q 695 -19 964 -19 q 508 152 508 -19 q 509 176 508 164 "},"ˬ":{"x_min":17.625,"x_max":425.21875,"ha":625,"o":"m 107 -361 l 17 -29 l 120 -29 l 181 -249 l 321 -29 l 425 -29 l 217 -361 l 107 -361 "},"⢶":{"x_min":183,"x_max":793,"ha":976,"o":"m 183 724 l 427 724 l 427 453 l 183 453 l 183 724 m 183 362 l 427 362 l 427 91 l 183 91 l 183 362 m 549 724 l 793 724 l 793 453 l 549 453 l 549 724 m 549 362 l 793 362 l 793 91 l 549 91 l 549 362 m 549 0 l 793 0 l 793 -271 l 549 -271 l 549 0 "},"Ӳ":{"x_min":95.625,"x_max":1015.21875,"ha":964,"o":"m 800 1288 l 971 1288 l 776 1109 l 650 1109 l 800 1288 m 516 1288 l 687 1288 l 493 1109 l 366 1109 l 516 1288 m 124 1012 l 369 1012 l 491 551 l 768 1013 l 1015 1013 l 509 168 q 432 73 474 110 q 138 0 345 0 l 95 0 l 130 197 l 194 197 q 308 243 280 197 l 321 264 l 124 1012 "},"▇":{"x_min":-12,"x_max":974,"ha":961,"o":"m -12 -347 l -12 892 l 974 892 l 974 -347 l -12 -347 "},"✏":{"x_min":33,"x_max":1024.09375,"ha":1047,"o":"m 878 489 q 881 505 881 497 q 878 521 881 513 q 872 534 876 527 q 863 542 869 538 l 736 628 q 722 592 736 606 q 754 505 754 554 q 722 418 754 456 q 736 382 736 405 l 863 468 q 872 476 869 472 q 878 489 876 483 m 197 432 l 197 579 l 139 654 l 83 579 l 83 432 l 139 356 l 197 432 m 33 600 l 139 736 l 658 736 l 1024 505 l 658 275 l 139 275 l 33 410 l 33 600 m 233 614 l 656 614 q 671 646 671 631 q 649 682 671 665 l 184 682 l 233 614 m 668 451 q 699 505 699 467 q 668 560 699 543 l 252 560 l 252 451 l 668 451 m 111 479 q 109 505 109 491 q 111 531 109 519 q 118 553 113 542 q 127 568 122 562 q 139 574 133 574 q 151 568 145 574 q 161 553 156 562 q 167 531 165 542 q 170 505 170 519 q 167 479 170 491 q 161 457 165 468 q 151 443 156 448 q 139 438 145 438 q 127 443 133 438 q 118 457 122 448 q 111 479 113 468 m 233 397 l 184 329 l 649 329 q 671 364 671 346 q 656 397 671 379 l 233 397 "},"Ý":{"x_min":78.671875,"x_max":1011.15625,"ha":905,"o":"m 78 1013 l 314 1013 l 468 637 l 739 1013 l 1011 1013 l 561 422 l 487 0 l 252 0 l 326 422 l 78 1013 m 609 1288 l 779 1288 l 585 1109 l 459 1109 l 609 1288 "},"ᴞ":{"x_min":48.828125,"x_max":1120.328125,"ha":1184,"o":"m 48 183 l 76 343 l 227 343 l 198 183 l 48 183 m 95 452 l 123 611 l 273 611 l 246 452 l 95 452 m 720 15 l 303 15 l 345 259 l 414 259 q 553 259 469 259 q 665 259 637 259 q 784 263 747 259 q 840 278 821 268 q 879 317 863 293 q 901 373 895 342 q 870 492 914 449 q 731 536 825 536 l 394 536 l 436 779 l 1120 779 l 1077 536 l 979 536 q 1046 419 1028 480 q 1051 283 1064 358 q 943 83 1028 152 q 720 15 859 15 "},"ຸ":{"x_min":-518.078125,"x_max":-200.484375,"ha":0,"o":"m -376 -180 q -410 -208 -407 -180 q -387 -239 -417 -239 q -353 -208 -356 -239 q -376 -180 -347 -180 m -339 -326 q -402 -339 -367 -339 q -514 -211 -537 -339 q -362 -76 -489 -76 q -241 -133 -286 -76 q -204 -300 -187 -199 q -387 -535 -221 -387 l -451 -446 q -339 -326 -351 -377 "},"ℝ":{"x_min":123,"x_max":991.390625,"ha":1001,"o":"m 570 421 q 682 266 631 379 l 767 81 l 863 81 l 780 266 q 689 387 745 344 q 570 421 647 421 m 727 468 q 794 406 759 451 q 866 276 828 362 l 991 0 l 710 0 l 591 266 q 508 385 553 350 q 391 421 464 421 l 379 421 l 379 0 l 123 0 l 123 1012 l 560 1012 q 793 939 716 1012 q 870 720 870 866 q 798 513 870 579 q 727 468 769 485 m 379 931 l 379 502 l 576 502 q 606 503 591 502 l 606 929 q 576 931 591 931 l 379 931 m 682 912 l 682 521 q 735 557 717 537 q 785 716 785 609 q 736 876 785 823 q 682 912 716 898 m 196 931 l 196 81 l 306 81 l 306 931 l 196 931 "},"⁉":{"x_min":-1.6875,"x_max":1000,"ha":1036,"o":"m 176 1013 l 396 1013 l 327 624 l 247 341 l 98 341 l 98 624 l 176 1013 m 41 241 l 260 241 l 218 0 l -1 0 l 41 241 m 480 241 l 699 241 l 657 0 l 437 0 l 480 241 m 717 342 l 497 342 l 501 375 q 538 472 511 429 q 644 583 564 514 l 689 623 q 759 700 737 664 q 782 772 782 736 q 757 832 782 811 q 686 853 732 853 q 576 830 637 853 q 444 762 514 807 l 482 975 q 624 1017 560 1004 q 747 1031 688 1031 q 932 973 865 1031 q 1000 814 1000 915 q 967 669 1000 733 q 857 536 935 606 l 810 496 q 744 428 761 454 q 722 372 727 401 l 717 342 "},"ẅ":{"x_min":132,"x_max":1157.671875,"ha":1154,"o":"m 504 1075 l 649 1075 l 619 908 l 475 908 l 504 1075 m 746 1075 l 890 1075 l 860 908 l 716 908 l 746 1075 m 132 760 l 321 760 l 321 237 l 539 760 l 725 760 l 725 238 l 942 760 l 1157 760 l 845 0 l 602 0 l 602 522 l 382 0 l 132 0 l 132 760 "},"ǡ":{"x_min":22,"x_max":774.84375,"ha":843,"o":"m 467 1048 l 635 1048 l 606 881 l 439 881 l 467 1048 m 390 1224 l 774 1224 l 752 1096 l 367 1096 l 390 1224 m 411 342 q 287 313 329 342 q 246 230 246 285 q 270 164 246 188 q 339 141 295 141 q 451 186 405 141 q 511 314 496 231 l 516 342 l 411 342 m 753 432 l 676 0 l 458 0 l 476 112 q 362 12 422 44 q 232 -20 302 -20 q 78 35 135 -20 q 22 186 22 91 q 122 409 22 332 q 414 486 222 486 l 543 486 l 545 504 q 547 518 547 514 q 548 525 548 522 q 509 593 548 570 q 396 616 471 616 q 264 600 328 616 q 142 553 201 584 l 174 738 q 315 767 243 757 q 464 777 387 777 q 690 719 616 777 q 764 542 764 661 q 761 492 764 519 q 753 432 758 464 "},"ᐥ":{"x_min":-2.03125,"x_max":690.375,"ha":705,"o":"m 567 1040 l 690 986 l 423 454 l 299 508 l 567 1040 m 265 1040 l 387 986 l 120 454 l -2 508 l 265 1040 "},"⪛":{"x_min":132,"x_max":915,"ha":1047,"o":"m 915 840 l 132 612 l 132 777 l 915 1005 l 915 840 m 915 588 l 132 360 l 132 525 l 915 753 l 915 588 m 915 53 l 915 -111 l 132 114 l 132 274 l 915 501 l 915 337 l 367 195 l 915 53 "},"К":{"x_min":26.453125,"x_max":1071.5,"ha":1021,"o":"m 26 0 l 203 1013 l 438 1013 l 364 595 l 805 1013 l 1071 1013 l 638 602 l 914 0 l 656 0 l 457 431 l 312 294 l 261 0 l 26 0 "},"ΰ":{"x_min":68,"x_max":824.984375,"ha":844,"o":"m 306 1075 l 451 1075 l 422 908 l 278 908 l 306 1075 m 549 1075 l 693 1075 l 663 908 l 519 908 l 549 1075 m 652 1357 l 824 1357 l 555 1102 l 435 1102 l 652 1357 m 584 434 q 598 541 598 510 q 547 759 598 700 l 714 759 q 798 587 774 695 q 806 518 806 556 q 797 432 806 480 q 660 102 759 218 q 348 -14 561 -14 q 119 37 169 -14 q 68 174 68 88 q 74 243 68 206 l 164 759 l 383 759 l 291 233 q 289 197 289 217 q 303 158 289 176 q 384 139 320 139 q 521 229 449 139 q 584 434 556 273 "},"꜋":{"x_min":72.5625,"x_max":588.65625,"ha":625,"o":"m 189 209 l 72 209 l 94 337 l 211 337 l 189 209 m 305 0 l 474 963 l 588 963 l 420 0 l 305 0 "},"Ⴡ":{"x_min":-28.390625,"x_max":686.84375,"ha":751,"o":"m 368 330 l 400 470 q 407 531 407 514 q 407 553 407 548 q 406 588 407 574 q 386 619 399 608 q 352 630 373 630 q 319 622 334 630 q 291 602 303 615 q 270 571 278 588 q 258 532 261 553 l 156 -51 l -28 -51 l 164 1052 l 349 1052 l 301 775 q 342 806 321 794 q 384 818 364 818 q 482 795 438 818 q 553 734 525 773 q 589 656 581 696 q 598 588 598 617 q 593 532 598 561 l 589 515 l 686 515 l 654 330 l 368 330 "},"⅞":{"x_min":64.421875,"x_max":1258.78125,"ha":1294,"o":"m 362 -18 l 212 -18 l 966 1031 l 1116 1031 l 362 -18 m 101 1020 l 522 1020 l 507 938 l 205 453 l 64 453 l 351 913 l 82 913 l 101 1020 m 1018 254 q 952 231 977 254 q 918 167 926 209 q 929 104 911 126 q 988 82 947 82 q 1052 104 1027 82 q 1085 167 1078 126 q 1075 231 1093 209 q 1018 254 1057 254 m 920 301 q 852 350 872 318 q 840 431 832 383 q 913 540 853 502 q 1074 578 972 578 q 1222 540 1175 578 q 1255 431 1268 503 q 1216 350 1247 379 q 1130 301 1183 318 q 1207 249 1185 285 q 1220 160 1230 214 q 1143 32 1206 76 q 971 -10 1081 -10 q 814 32 862 -10 q 781 160 767 76 q 825 250 790 214 q 920 301 860 286 m 974 416 q 984 364 968 382 q 1034 346 999 346 q 1089 364 1068 346 q 1116 416 1110 382 q 1107 468 1123 451 q 1058 486 1092 486 q 1002 467 1024 486 q 974 416 980 449 "},"₣":{"x_min":4.0625,"x_max":862.625,"ha":869,"o":"m 105 304 l 229 1012 l 862 1012 l 827 815 l 429 815 l 396 626 l 771 626 l 735 429 l 361 429 l 339 304 l 412 304 l 389 176 l 317 176 l 286 0 l 51 0 l 82 176 l 4 176 l 27 304 l 105 304 "},"ﬆ":{"x_min":10.078125,"x_max":1308.9375,"ha":1274,"o":"m 510 773 q 514 810 510 791 q 619 966 529 902 q 847 1030 707 1030 q 1039 965 967 1030 q 1096 844 1096 914 q 1092 810 1096 828 l 1083 759 l 1308 759 l 1279 586 l 1053 586 l 998 263 q 994 228 994 243 q 1004 192 994 203 q 1075 173 1019 173 l 1187 173 l 1157 0 l 969 0 q 797 59 840 0 q 770 169 770 97 q 778 263 770 211 l 834 586 l 726 586 l 757 759 l 865 759 l 872 801 q 874 814 874 808 q 857 860 874 839 q 794 885 836 885 q 722 856 758 885 q 685 792 691 831 q 683 778 683 785 q 698 735 683 755 l 666 551 q 539 599 601 583 q 418 616 477 616 q 323 599 356 616 q 283 545 290 581 q 283 535 283 539 q 299 501 283 513 q 376 478 318 485 l 413 471 q 626 393 581 444 q 661 286 661 355 q 654 223 661 257 q 542 41 633 102 q 290 -20 450 -20 q 152 -8 222 -20 q 10 27 87 2 l 42 211 q 167 158 101 176 q 303 141 233 141 q 403 160 368 141 q 446 219 439 180 q 447 233 447 226 q 432 268 447 255 q 348 292 415 283 l 310 297 q 119 373 168 318 q 84 481 84 412 q 89 540 84 508 q 195 718 111 660 q 433 777 279 777 q 510 773 472 777 "},"ǈ":{"x_min":26.453125,"x_max":1238.34375,"ha":1223,"o":"m 967 759 l 1187 759 l 1055 13 q 951 -223 1028 -146 q 744 -300 874 -300 l 636 -300 l 663 -141 l 701 -141 q 792 -110 763 -141 q 836 13 820 -79 l 967 759 m 1018 1055 l 1238 1055 l 1203 857 l 983 857 l 1018 1055 m 204 1012 l 438 1012 l 295 197 l 707 197 l 674 0 l 26 0 l 204 1012 "},"ῤ":{"x_min":11.453125,"x_max":873,"ha":894,"o":"m 730 92 q 497 -20 629 -20 q 299 109 364 -20 l 229 -289 l 11 -289 l 126 366 q 262 649 159 556 q 443 760 364 740 q 571 780 523 780 q 643 777 620 780 q 831 666 759 767 q 873 499 873 603 q 861 379 873 445 q 730 92 830 203 m 644 459 q 530 602 644 602 q 412 544 461 602 q 346 379 365 487 q 339 291 339 334 q 355 213 339 247 q 453 156 383 156 q 570 213 523 156 q 635 379 616 270 q 644 459 644 423 m 465 1090 l 632 1090 l 620 1021 q 418 826 586 826 l 433 909 q 538 1000 522 909 l 449 1000 l 465 1090 "},"ͼ":{"x_min":46,"x_max":726.578125,"ha":687,"o":"m 380 509 l 600 509 l 554 246 l 334 246 l 380 509 m 726 735 l 692 537 q 605 587 647 570 q 521 604 562 604 q 346 524 414 604 q 279 320 279 444 q 321 197 279 241 q 440 153 363 153 q 540 170 491 153 q 635 220 590 187 l 601 22 q 491 -9 546 1 q 381 -20 436 -20 q 133 60 220 -20 q 46 288 46 140 q 78 469 46 381 q 170 626 110 556 q 322 740 236 703 q 521 777 409 777 q 624 767 573 777 q 726 735 675 756 "},"▵":{"x_min":3.390625,"x_max":623.921875,"ha":627,"o":"m 107 92 l 519 92 l 314 551 l 107 92 m 3 15 l 314 706 l 623 15 l 3 15 "}," ":{"x_min":0,"x_max":0,"ha":277},"ϧ":{"x_min":-20.03125,"x_max":921.375,"ha":930,"o":"m 557 543 q 437 612 508 612 q 394 601 425 612 q 358 582 378 597 q 332 556 342 570 q 321 529 323 544 q 322 505 318 515 q 337 486 325 496 q 364 474 346 478 q 397 472 380 472 q 449 480 423 472 q 512 511 480 491 q 557 543 538 527 m 633 415 q 464 331 569 369 q 332 304 388 304 q 251 312 304 304 q 173 342 213 318 q 120 416 141 362 q 111 470 111 441 q 114 504 111 486 q 150 592 121 548 q 221 673 181 637 q 338 745 272 719 q 486 778 420 778 q 715 681 638 778 q 803 799 766 733 l 921 731 q 793 551 861 629 q 840 361 840 454 q 833 297 840 329 q 702 72 813 176 q 391 -20 605 -20 q 221 11 288 -20 q 131 35 170 35 q 17 -9 83 35 l -20 131 q 157 183 88 183 q 308 151 248 183 q 416 128 352 128 q 584 188 521 128 q 645 297 635 237 q 650 335 650 316 q 633 415 650 378 "},"Ἁ":{"x_min":-80.703125,"x_max":864.671875,"ha":967,"o":"m 614 185 l 250 185 l 160 0 l -80 0 l 434 1013 l 703 1013 l 864 1 l 640 1 l 614 185 m 339 369 l 583 369 l 528 759 l 339 369 m 299 1091 l 283 1001 l 193 1001 q 267 910 178 910 l 252 827 q 120 1022 86 827 l 132 1091 l 299 1091 "},"ӽ":{"x_min":-21.015625,"x_max":868.734375,"ha":806,"o":"m 868 760 l 557 390 q 731 36 583 335 q 735 0 739 21 q 634 -217 711 -139 q 425 -300 553 -300 l 316 -300 l 345 -141 q 464 -117 434 -141 q 516 0 498 -91 l 404 240 l 210 0 l -21 0 l 305 388 l 124 760 l 356 760 l 455 534 l 637 760 l 868 760 "},"̼":{"x_min":-626.328125,"x_max":-127,"ha":-1,"o":"m -626 -331 q -516 -146 -597 -190 q -445 -130 -484 -130 q -350 -177 -380 -130 q -238 -130 -304 -130 q -127 -259 -127 -130 q -129 -331 -127 -292 l -214 -331 q -258 -234 -214 -238 q -331 -320 -306 -234 q -334 -331 -332 -326 l -419 -331 q -462 -234 -419 -238 q -532 -307 -506 -234 q -538 -331 -536 -320 l -626 -331 "},"ù":{"x_min":75,"x_max":851.359375,"ha":889,"o":"m 84 295 l 164 759 l 383 759 l 314 363 q 303 297 307 325 q 300 255 300 270 q 321 188 300 212 q 382 165 342 165 q 498 223 449 165 q 565 385 547 281 l 631 760 l 851 760 l 718 0 l 498 0 l 518 110 q 400 12 462 45 q 270 -20 338 -20 q 126 34 177 -20 q 75 190 75 89 q 77 240 75 213 q 84 295 79 266 m 468 1110 l 595 856 l 475 856 l 295 1110 l 468 1110 "},"◅":{"x_min":2.984375,"x_max":957,"ha":960,"o":"m 177 360 l 888 130 l 888 590 l 177 360 m 2 360 l 957 706 l 957 14 l 2 360 "},"⍵":{"x_min":54,"x_max":1033,"ha":1087,"o":"m 544 177 q 324 -18 523 -18 q 54 386 54 -18 q 174 760 54 559 l 361 760 q 282 387 282 600 q 366 175 282 175 q 436 483 436 175 l 652 483 q 720 175 652 175 q 805 387 805 175 q 726 760 805 600 l 912 760 q 1033 386 1033 559 q 763 -18 1033 -18 q 544 177 564 -18 "},"ⱹ":{"x_min":12.4375,"x_max":661,"ha":672,"o":"m 50 207 q 103 184 75 192 q 158 178 130 178 q 299 237 244 178 q 367 375 346 291 l 431 742 q 439 815 439 785 q 429 864 439 848 q 350 896 411 896 l 247 896 l 275 1055 l 449 1055 q 626 975 574 1055 q 661 837 661 921 q 651 741 661 793 l 521 0 l 302 0 l 302 0 l 323 122 q 209 16 269 50 q 72 -18 148 -18 q 48 -18 61 -18 q 12 -12 36 -16 l 50 207 "},"◖":{"x_min":68,"x_max":545,"ha":658,"o":"m 306 -97 q 68 361 68 55 q 306 819 68 666 q 545 896 425 896 l 545 -174 q 306 -97 425 -174 "},"ԣ":{"x_min":35.265625,"x_max":1137.0625,"ha":1223,"o":"m 168 759 l 387 759 l 336 471 l 552 471 l 603 759 l 821 759 l 767 450 l 925 450 q 1102 369 1051 450 q 1127 135 1154 289 l 1106 13 q 999 -219 1079 -139 q 794 -300 919 -300 l 685 -300 l 713 -141 l 751 -141 q 842 -109 813 -141 q 887 13 870 -78 l 908 136 q 906 259 924 229 q 827 291 889 291 l 739 291 l 689 0 l 470 0 l 526 321 l 309 321 l 253 0 l 35 0 l 168 759 "},"˝":{"x_min":179.03125,"x_max":703.9375,"ha":625,"o":"m 322 1111 l 474 1111 l 284 856 l 179 856 l 322 1111 m 551 1111 l 703 1111 l 493 856 l 387 856 l 551 1111 "},"⫺":{"x_min":132,"x_max":915,"ha":1047,"o":"m 132 -105 l 915 122 l 915 -42 l 132 -270 l 132 -105 m 132 145 l 915 373 l 915 208 l 132 -18 l 132 145 m 132 681 l 132 846 l 915 619 l 915 460 l 132 232 l 132 397 l 680 539 l 132 681 "},"䷥":{"x_min":104,"x_max":1018,"ha":1121,"o":"m 104 574 l 1017 574 l 1017 438 l 104 438 l 104 574 m 104 793 l 475 793 l 475 657 l 104 657 l 104 793 m 646 793 l 1017 793 l 1017 657 l 646 657 l 646 793 m 104 1013 l 1017 1013 l 1017 877 l 104 877 l 104 1013 m 104 -84 l 1017 -84 l 1017 -220 l 104 -220 l 104 -84 m 105 135 l 1018 135 l 1018 -1 l 105 -1 l 105 135 m 104 355 l 475 355 l 475 219 l 104 219 l 104 355 m 646 355 l 1017 355 l 1017 219 l 646 219 l 646 355 "},"Ɇ":{"x_min":26.453125,"x_max":851.109375,"ha":854,"o":"m 745 1141 l 851 1141 l 793 1013 l 837 1013 l 802 816 l 705 816 l 621 627 l 746 627 l 711 430 l 533 430 l 429 197 l 708 197 l 674 0 l 341 0 l 284 -128 l 180 -128 l 237 0 l 26 0 l 203 1013 l 688 1013 l 745 1141 m 325 197 l 428 430 l 336 430 l 295 197 l 325 197 m 516 627 l 600 816 l 404 816 l 370 627 l 516 627 "},"בּ":{"x_min":-19.640625,"x_max":764.421875,"ha":841,"o":"m 458 352 q 470 461 470 416 q 457 535 470 509 q 350 586 432 586 l 114 586 l 145 759 l 441 759 l 484 759 q 671 676 624 759 q 700 542 700 627 q 687 411 700 484 l 645 173 l 764 173 l 733 0 l 348 0 l -19 0 l 10 173 l 427 173 l 458 352 m 257 379 l 257 379 m 208 448 l 330 448 l 306 312 l 184 312 l 208 448 m 257 379 l 257 379 "},"Ứ":{"x_min":84,"x_max":1170,"ha":1014,"o":"m 656 1288 l 827 1288 l 632 1109 l 506 1109 l 656 1288 m 203 1012 l 437 1012 l 331 406 q 323 348 326 373 q 320 304 320 323 q 352 204 320 237 q 448 172 384 172 q 578 225 533 172 q 646 405 624 278 l 753 1012 l 987 1012 l 881 405 q 731 80 841 181 q 414 -20 620 -20 q 168 56 252 -20 q 84 280 84 133 q 87 335 84 304 q 96 405 90 365 l 203 1012 m 903 842 l 919 937 q 975 890 955 903 q 1010 878 995 878 q 1053 898 1034 878 q 1077 951 1071 918 q 1082 1003 1082 977 q 1077 1057 1082 1029 l 1170 1057 q 1170 987 1170 1019 q 1165 928 1170 956 q 1115 808 1151 850 q 1027 767 1079 767 q 964 785 994 767 q 903 842 933 803 "},"ϫ":{"x_min":-8.140625,"x_max":842.96875,"ha":838,"o":"m 299 136 l 448 136 l 393 243 l 299 136 m 34 136 q 98 174 64 136 l 304 408 l 211 584 q 158 610 198 610 q 133 607 148 610 q 97 603 113 605 l 126 767 q 168 775 147 772 q 221 778 190 778 q 356 743 322 778 q 381 707 369 728 l 450 576 l 566 707 q 604 743 585 728 q 752 778 650 778 q 803 775 782 778 q 842 767 822 772 l 814 603 q 779 607 798 605 q 755 610 766 610 q 693 584 716 610 l 539 408 l 663 174 q 714 136 684 136 l 732 136 l 708 0 l -8 0 l 15 136 l 34 136 "},"⅃":{"x_min":14.234375,"x_max":838.890625,"ha":796,"o":"m 838 1012 l 661 0 l 14 0 l 48 197 l 461 197 l 603 1012 l 838 1012 "},"⁂":{"x_min":24.75,"x_max":1253.5625,"ha":1278,"o":"m 628 387 l 427 270 l 628 152 l 581 56 l 379 181 l 379 -52 l 275 -52 l 275 181 l 70 56 l 24 152 l 228 270 l 24 387 l 70 482 l 275 359 l 275 593 l 379 593 l 379 359 l 581 482 l 628 387 m 1253 387 l 1052 270 l 1253 152 l 1207 56 l 1004 181 l 1004 -52 l 900 -52 l 900 181 l 696 56 l 649 152 l 853 270 l 649 387 l 696 482 l 900 359 l 900 593 l 1004 593 l 1004 359 l 1207 482 l 1253 387 m 941 949 l 740 832 l 941 714 l 895 618 l 692 743 l 692 510 l 588 510 l 588 743 l 384 618 l 338 714 l 542 832 l 338 949 l 384 1045 l 588 921 l 588 1155 l 692 1155 l 692 921 l 895 1045 l 941 949 "},"⡿":{"x_min":183,"x_max":793,"ha":976,"o":"m 183 1085 l 427 1085 l 427 814 l 183 814 l 183 1085 m 183 724 l 427 724 l 427 453 l 183 453 l 183 724 m 183 362 l 427 362 l 427 91 l 183 91 l 183 362 m 549 1085 l 793 1085 l 793 814 l 549 814 l 549 1085 m 549 724 l 793 724 l 793 453 l 549 453 l 549 724 m 549 362 l 793 362 l 793 91 l 549 91 l 549 362 m 183 0 l 427 0 l 427 -271 l 183 -271 l 183 0 "},"𝞺":{"x_min":11.453125,"x_max":873,"ha":894,"o":"m 730 92 q 497 -20 629 -20 q 299 109 364 -20 l 229 -289 l 11 -289 l 126 366 q 262 649 159 556 q 443 760 364 740 q 571 780 523 780 q 643 777 620 780 q 831 666 759 767 q 873 499 873 603 q 861 379 873 445 q 730 92 830 203 m 644 459 q 530 602 644 602 q 412 544 461 602 q 346 379 365 487 q 339 291 339 334 q 355 213 339 247 q 453 156 383 156 q 570 213 523 156 q 635 379 616 270 q 644 459 644 423 "},"⣄":{"x_min":183,"x_max":793,"ha":976,"o":"m 183 362 l 427 362 l 427 91 l 183 91 l 183 362 m 183 0 l 427 0 l 427 -271 l 183 -271 l 183 0 m 549 0 l 793 0 l 793 -271 l 549 -271 l 549 0 "},"ʌ":{"x_min":-46.796875,"x_max":730.390625,"ha":814,"o":"m 730 0 l 512 0 l 434 525 l 172 0 l -46 0 l 355 760 l 595 760 l 730 0 "},"ģ":{"x_min":24.984375,"x_max":852.71875,"ha":895,"o":"m 609 861 l 411 861 l 582 1063 l 699 1063 l 609 861 m 522 128 q 415 31 470 62 q 297 0 361 0 q 113 83 181 0 q 46 309 46 166 q 69 463 46 386 q 136 607 93 540 q 260 732 191 689 q 410 776 330 776 q 531 745 482 776 q 614 646 580 714 l 632 760 l 852 760 l 737 99 q 586 -202 702 -104 q 263 -300 470 -300 q 141 -289 200 -300 q 24 -255 82 -278 l 57 -66 q 161 -121 109 -103 q 267 -139 212 -139 q 434 -87 375 -139 q 512 76 492 -36 l 522 128 m 461 601 q 327 520 381 601 q 274 317 274 439 q 302 212 274 248 q 386 176 331 176 q 520 256 466 176 q 574 456 574 336 q 545 564 574 527 q 461 601 516 601 "},"Ẵ":{"x_min":-80.671875,"x_max":867.40625,"ha":967,"o":"m 411 1263 l 498 1263 q 529 1203 504 1222 q 602 1185 554 1185 q 678 1205 646 1185 q 725 1263 710 1226 l 817 1263 q 733 1129 794 1175 q 583 1084 673 1084 q 455 1129 499 1084 q 411 1260 411 1175 l 411 1263 m 629 1338 l 598 1364 q 574 1381 584 1377 q 553 1386 564 1386 q 515 1364 531 1386 q 493 1304 499 1342 l 409 1304 q 465 1438 425 1391 q 562 1485 505 1485 q 605 1476 585 1485 q 647 1450 625 1468 l 678 1422 q 699 1408 689 1413 q 720 1404 710 1404 q 760 1424 744 1404 q 782 1485 776 1445 l 867 1485 q 811 1350 851 1397 q 714 1304 771 1304 q 671 1311 691 1304 q 629 1338 652 1319 m 614 185 l 250 185 l 160 1 l -80 1 l 434 1013 l 703 1013 l 864 1 l 640 1 l 614 185 m 339 369 l 583 369 l 529 759 l 339 369 "},"䷻":{"x_min":104,"x_max":1018,"ha":1121,"o":"m 104 574 l 475 574 l 475 438 l 104 438 l 104 574 m 646 574 l 1017 574 l 1017 438 l 646 438 l 646 574 m 104 793 l 1017 793 l 1017 657 l 104 657 l 104 793 m 104 1013 l 475 1013 l 475 877 l 104 877 l 104 1013 m 646 1013 l 1017 1013 l 1017 877 l 646 877 l 646 1013 m 104 -84 l 1017 -84 l 1017 -220 l 104 -220 l 104 -84 m 105 135 l 1018 135 l 1018 -1 l 105 -1 l 105 135 m 104 355 l 475 355 l 475 219 l 104 219 l 104 355 m 646 355 l 1017 355 l 1017 219 l 646 219 l 646 355 "},"➘":{"x_min":153.9375,"x_max":851.78125,"ha":1047,"o":"m 619 267 l 153 737 l 257 852 l 680 335 l 809 543 l 851 75 l 430 124 l 619 267 "},"῟":{"x_min":217.6875,"x_max":675.453125,"ha":625,"o":"m 437 1143 l 406 1168 q 382 1185 392 1181 q 361 1190 372 1190 q 323 1168 339 1190 q 301 1109 307 1146 l 217 1109 q 273 1242 233 1195 q 370 1289 313 1289 q 413 1280 394 1289 q 455 1254 433 1272 l 486 1227 q 507 1213 497 1218 q 528 1209 518 1209 q 568 1229 552 1209 q 590 1289 584 1250 l 675 1289 q 619 1155 659 1202 q 522 1109 579 1109 q 479 1116 499 1109 q 437 1143 460 1123 m 489 1090 l 474 1000 l 384 1000 q 458 909 368 909 l 443 826 q 310 1021 276 826 l 322 1090 l 489 1090 "},"⪵":{"x_min":132,"x_max":915,"ha":1047,"o":"m 915 740 q 448 542 733 567 q 915 344 735 517 l 915 149 q 132 461 689 392 l 132 621 q 915 933 698 700 l 915 740 m 915 125 l 915 -36 l 629 -36 l 583 -123 l 915 -123 l 915 -284 l 499 -284 l 427 -422 l 302 -343 l 334 -284 l 132 -284 l 132 -123 l 418 -123 l 463 -36 l 132 -36 l 132 125 l 547 125 l 619 263 l 744 184 l 713 125 l 915 125 "},"✆":{"x_min":52,"x_max":995,"ha":1047,"o":"m 323 210 q 320 202 321 206 q 314 168 314 186 q 320 132 314 149 q 338 102 326 115 q 365 82 350 90 q 522 48 433 48 q 680 82 606 48 q 813 183 754 115 q 904 330 874 250 q 934 503 934 411 q 904 680 934 599 q 813 828 876 757 q 680 928 755 893 q 523 963 607 963 q 365 928 441 963 q 233 828 293 895 q 143 680 172 760 q 113 503 113 599 q 143 330 113 412 q 187 242 160 284 l 187 139 q 87 305 121 213 q 52 503 52 398 q 87 706 52 610 q 191 875 119 795 q 342 990 256 950 q 523 1031 428 1031 q 704 990 617 1031 q 856 875 785 952 q 960 706 925 800 q 995 503 995 613 q 960 305 995 400 q 856 135 927 216 q 704 20 789 59 q 523 -20 618 -20 q 342 20 426 -20 q 296 54 316 32 q 264 106 275 77 q 253 168 253 135 q 264 229 253 200 q 290 273 272 252 q 288 294 288 284 q 353 595 288 433 q 567 867 464 867 q 619 861 616 867 q 630 809 630 848 q 607 724 630 770 q 582 681 587 681 q 523 652 549 681 q 462 547 504 631 q 424 403 424 469 q 434 366 424 381 q 445 328 445 348 q 431 291 445 322 q 378 217 411 244 q 343 198 354 198 q 323 210 333 198 m 379 160 q 418 191 394 168 q 464 261 449 220 q 480 316 478 299 q 511 285 508 290 q 522 261 522 271 q 503 206 515 228 q 466 152 487 172 q 430 134 443 130 q 379 160 414 138 m 667 854 q 718 828 705 839 q 729 786 729 820 q 716 720 729 756 q 689 670 707 695 q 666 662 683 662 q 624 668 660 662 q 652 717 634 681 q 671 801 671 757 q 667 854 671 837 "},"⋇":{"x_min":132,"x_max":915,"ha":1047,"o":"m 430 949 l 618 949 l 618 739 l 430 739 l 430 949 m 430 133 l 618 133 l 618 -77 l 430 -77 l 430 133 m 349 356 l 132 356 l 132 516 l 348 516 l 155 729 l 258 843 l 523 549 l 788 843 l 891 729 l 698 516 l 915 516 l 915 356 l 698 356 l 891 142 l 788 28 l 523 321 l 258 28 l 155 142 l 349 356 "},"⁴":{"x_min":4.0625,"x_max":484.890625,"ha":547,"o":"m 299 887 l 115 668 l 261 668 l 299 887 m 311 1019 l 462 1019 l 401 668 l 484 668 l 466 563 l 383 563 l 363 453 l 223 453 l 242 563 l 4 563 l 23 676 l 311 1019 "},"ᔵ":{"x_min":100.375,"x_max":1226.8125,"ha":1253,"o":"m 129 589 l 296 589 l 267 422 l 100 422 l 129 589 m 706 0 l 382 472 l 415 661 l 930 661 l 992 1012 l 1226 1012 l 1132 472 l 617 472 l 941 0 l 706 0 "},"⅖":{"x_min":56.59375,"x_max":1246.328125,"ha":1294,"o":"m 362 -19 l 213 -19 l 966 1030 l 1116 1030 l 362 -19 m 259 567 l 488 567 l 468 453 l 56 453 l 75 556 l 298 737 q 371 810 347 776 q 395 872 395 844 q 375 915 395 899 q 320 931 355 931 q 233 915 278 931 q 145 869 188 899 l 167 995 q 263 1022 217 1013 q 351 1031 308 1031 q 490 994 442 1031 q 539 889 539 957 q 506 785 539 835 q 400 677 473 734 l 259 567 m 887 566 l 1246 566 l 1228 459 l 984 459 l 968 372 q 1002 379 985 376 q 1038 382 1019 382 q 1188 329 1140 382 q 1219 185 1236 278 q 1133 41 1203 92 q 951 -10 1061 -10 q 859 -1 903 -10 q 771 27 814 8 l 791 142 q 871 102 832 115 q 946 89 909 89 q 1033 115 997 89 q 1076 185 1068 141 q 1057 256 1083 230 q 979 282 1032 282 q 912 273 948 282 q 831 248 876 265 l 887 566 "},"𝕥":{"x_min":33.9375,"x_max":604.265625,"ha":634,"o":"m 300 894 l 189 894 l 189 248 q 227 101 189 125 q 323 83 258 83 q 300 190 300 127 q 300 226 300 209 l 300 894 m 373 975 l 373 751 l 604 751 l 604 670 l 373 670 l 373 226 q 395 107 373 133 q 488 81 418 81 l 604 81 l 604 0 l 344 0 q 165 53 215 0 q 116 249 116 107 l 116 670 l 33 670 l 33 751 l 116 751 l 116 975 l 373 975 "},"❼":{"x_min":73,"x_max":985,"ha":1058,"o":"m 985 486 q 851 127 985 275 q 527 -20 717 -20 q 206 127 339 -20 q 73 486 73 275 q 134 740 73 618 q 305 927 195 862 q 527 993 414 993 q 753 927 643 993 q 923 740 862 862 q 985 486 985 619 m 290 640 l 572 640 l 350 148 l 534 148 l 774 678 l 774 783 l 290 783 l 290 640 "},"ᴅ":{"x_min":38.65625,"x_max":772.15625,"ha":845,"o":"m 362 605 l 284 156 l 305 156 q 483 213 415 156 q 570 380 551 271 q 541 547 589 490 q 383 605 493 605 l 362 605 m 171 759 l 373 759 q 600 734 532 759 q 716 650 672 709 q 767 532 755 599 q 764 379 778 464 q 713 225 748 293 q 621 106 678 158 q 474 23 556 47 q 240 -1 389 -1 l 38 -1 l 171 759 "},"ắ":{"x_min":22,"x_max":807.390625,"ha":843,"o":"m 636 1234 l 807 1234 l 613 1055 l 486 1055 l 636 1234 m 344 1027 l 431 1027 q 462 969 437 987 q 535 951 487 951 q 611 971 579 951 q 658 1028 644 991 l 751 1028 q 667 895 727 941 q 516 850 606 850 q 388 895 432 850 q 344 1025 344 941 l 344 1027 m 411 342 q 287 313 329 342 q 246 230 246 285 q 270 164 246 188 q 339 141 295 141 q 451 186 405 141 q 511 314 496 231 l 516 342 l 411 342 m 753 432 l 676 0 l 458 0 l 476 112 q 362 12 422 44 q 232 -20 302 -20 q 78 35 135 -20 q 22 186 22 91 q 122 409 22 332 q 414 486 222 486 l 543 486 l 545 504 q 547 518 547 514 q 548 525 548 522 q 509 593 548 570 q 396 616 471 616 q 264 600 328 616 q 142 553 201 584 l 174 738 q 315 767 243 757 q 464 777 387 777 q 690 719 616 777 q 764 542 764 661 q 761 492 764 519 q 753 432 758 464 "},"²":{"x_min":56.59375,"x_max":539,"ha":547,"o":"m 259 567 l 488 567 l 468 453 l 56 453 l 75 556 l 298 737 q 371 810 347 776 q 395 872 395 844 q 375 915 395 899 q 320 931 355 931 q 233 915 278 931 q 145 869 188 899 l 167 995 q 263 1022 217 1013 q 351 1031 308 1031 q 490 994 442 1031 q 539 889 539 957 q 506 785 539 835 q 400 677 473 734 l 259 567 "},"⡹":{"x_min":183,"x_max":793,"ha":976,"o":"m 183 1085 l 427 1085 l 427 814 l 183 814 l 183 1085 m 549 1085 l 793 1085 l 793 814 l 549 814 l 549 1085 m 549 724 l 793 724 l 793 453 l 549 453 l 549 724 m 549 362 l 793 362 l 793 91 l 549 91 l 549 362 m 183 0 l 427 0 l 427 -271 l 183 -271 l 183 0 "},"◱":{"x_min":113,"x_max":1067,"ha":1180,"o":"m 183 399 l 625 399 l 625 -94 l 998 -94 l 998 815 l 183 815 l 183 399 m 113 -171 l 113 892 l 1067 892 l 1067 -171 l 113 -171 m 183 -94 l 555 -94 l 555 322 l 183 322 l 183 -94 "},"ზ":{"x_min":18,"x_max":607,"ha":690,"o":"m 404 791 q 409 838 409 818 q 347 913 409 913 q 257 791 279 913 q 253 746 253 765 q 314 669 253 669 q 404 791 383 677 m 409 344 q 418 429 418 393 q 346 534 418 534 l 344 534 l 343 534 q 219 344 253 534 q 210 246 210 287 q 277 139 210 139 q 409 344 373 139 m 598 342 q 249 -16 535 -16 q 18 224 18 -16 q 29 342 18 277 q 175 605 61 524 q 105 752 105 660 q 109 799 105 774 q 369 1056 154 1056 q 561 883 561 1056 q 554 811 561 850 q 475 661 544 753 q 607 435 607 599 q 598 342 607 392 "},"Ʋ":{"x_min":82.125,"x_max":965.046875,"ha":1017,"o":"m 446 0 l 398 0 q 134 93 210 0 q 92 376 59 187 l 203 1012 l 438 1012 l 326 376 q 341 242 311 287 q 443 197 370 197 l 480 197 q 665 276 588 197 q 768 457 752 367 q 763 659 792 595 q 621 833 712 769 l 638 932 l 802 932 q 953 653 903 839 q 954 448 975 570 q 777 143 925 276 q 446 0 617 0 "},"Ǆ":{"x_min":26.640625,"x_max":1962.953125,"ha":1935,"o":"m 1196 1013 l 1962 1013 l 1933 851 l 1343 197 l 1834 197 l 1798 0 l 1005 0 l 1033 161 l 1625 816 l 1162 816 l 1196 1013 m 1698 1109 l 1485 1109 l 1402 1288 l 1507 1288 l 1597 1178 l 1738 1288 l 1846 1288 l 1698 1109 m 405 816 l 295 197 l 380 197 q 640 299 544 197 q 736 576 736 402 q 673 755 736 695 q 487 816 611 816 l 405 816 m 204 1013 l 451 1013 q 716 989 628 1013 q 864 911 805 966 q 953 777 923 856 q 983 600 983 699 q 932 340 983 462 q 789 136 881 219 q 601 31 708 62 q 274 0 495 0 l 26 0 l 204 1013 "},"⨑":{"x_min":18.21875,"x_max":719.703125,"ha":703,"o":"m 480 284 q 494 362 494 320 l 437 300 l 421 313 l 421 196 q 440 219 431 206 q 480 284 468 250 m 446 436 l 515 529 l 577 529 l 719 371 l 655 301 l 599 362 q 578 239 599 297 q 516 135 556 182 q 423 67 478 93 q 399 61 415 64 l 399 -114 q 331 -278 399 -220 q 208 -315 288 -315 q 63 -261 109 -315 q 18 -128 29 -223 l 153 -113 q 203 -152 164 -152 q 247 -90 247 -152 l 247 50 q 203 67 228 56 q 108 136 149 92 q 47 240 71 176 q 25 363 25 300 l 130 363 q 144 285 130 326 q 183 219 157 248 q 243 176 210 189 q 287 169 252 172 l 287 847 q 358 1011 287 953 q 484 1048 402 1048 q 637 994 588 1048 q 685 861 672 956 l 549 846 q 494 885 538 885 q 446 823 446 885 l 446 436 "},"⨁":{"x_min":35,"x_max":1214,"ha":1249,"o":"m 625 848 q 457 812 532 848 q 317 705 379 774 q 221 548 253 633 q 190 361 190 463 q 222 177 190 262 q 317 20 253 89 q 457 -84 381 -49 q 624 -122 535 -122 q 791 -85 714 -122 q 932 20 870 -48 q 1027 177 996 92 q 1059 361 1059 262 q 1028 547 1059 462 q 932 705 996 635 q 792 812 866 777 q 625 848 714 848 m 398 971 q 624 1020 502 1020 q 850 971 746 1020 q 1041 826 954 922 q 1171 613 1127 729 q 1214 361 1214 498 q 1171 111 1214 227 q 1041 -100 1127 -3 q 850 -245 954 -196 q 624 -294 746 -294 q 398 -245 502 -294 q 207 -100 294 -196 q 77 111 121 -3 q 35 361 35 227 q 77 613 35 498 q 207 826 121 729 q 398 971 294 922 m 698 797 l 698 441 l 1016 441 l 1016 281 l 698 281 l 698 -74 l 552 -74 l 552 281 l 234 281 l 234 441 l 552 441 l 552 797 l 698 797 "},"↝":{"x_min":6.078125,"x_max":1031,"ha":1047,"o":"m 6 405 q 67 507 27 463 q 158 575 105 548 q 265 599 204 599 q 372 575 325 599 q 463 507 424 550 q 524 405 503 464 q 554 357 534 380 q 597 325 573 336 q 648 314 621 314 q 699 325 676 314 q 743 357 723 336 l 802 422 l 632 422 l 632 561 l 970 561 l 1031 494 l 1031 116 l 906 116 l 906 307 l 846 242 q 755 174 808 200 q 648 151 709 151 q 541 174 590 151 q 450 242 486 200 q 389 343 409 290 q 360 391 379 369 q 316 424 340 412 q 265 436 292 436 q 214 424 238 436 q 170 391 190 412 q 141 343 151 371 l 6 405 "},"©":{"x_min":173,"x_max":1077,"ha":1250,"o":"m 807 763 l 807 618 q 738 655 771 643 q 669 667 704 667 q 561 623 600 667 q 523 502 523 580 q 561 381 523 424 q 669 339 600 339 q 743 351 708 339 q 807 387 778 363 l 807 242 q 727 219 767 227 q 649 212 687 212 q 443 291 521 212 q 366 502 366 370 q 443 713 366 634 q 649 793 521 793 q 730 785 691 793 q 807 763 769 778 m 625 903 q 487 873 551 903 q 370 784 424 843 q 291 655 317 725 q 265 502 265 585 q 291 350 265 420 q 370 220 317 279 q 487 133 423 162 q 625 104 551 104 q 762 132 699 104 q 878 220 825 161 q 958 350 931 279 q 985 502 985 420 q 958 655 985 585 q 878 784 931 725 q 761 873 825 844 q 625 903 698 903 m 625 1007 q 797 969 717 1007 q 944 858 878 932 q 1044 695 1011 784 q 1077 502 1077 606 q 1044 310 1077 399 q 944 148 1011 222 q 797 37 878 74 q 625 0 717 0 q 452 37 532 0 q 305 148 371 74 q 205 310 238 222 q 173 502 173 399 q 205 695 173 606 q 305 858 238 784 q 452 969 371 932 q 625 1007 532 1007 "},"✳":{"x_min":68,"x_max":979,"ha":1047,"o":"m 598 472 l 867 172 l 823 124 l 554 424 l 554 0 l 493 0 l 493 423 l 222 124 l 180 172 l 449 472 l 68 472 l 68 540 l 450 540 l 180 840 l 222 888 l 493 588 l 493 1013 l 554 1013 l 554 588 l 823 888 l 867 840 l 596 540 l 979 540 l 979 472 l 598 472 "},"⠏":{"x_min":183,"x_max":793,"ha":976,"o":"m 183 1085 l 427 1085 l 427 814 l 183 814 l 183 1085 m 183 723 l 427 723 l 427 452 l 183 452 l 183 723 m 183 361 l 427 361 l 427 90 l 183 90 l 183 361 m 549 1085 l 793 1085 l 793 814 l 549 814 l 549 1085 "}," ":{"x_min":0,"x_max":0,"ha":475},"\\":{"x_min":88.15625,"x_max":344.515625,"ha":456,"o":"m 210 -129 l 88 1013 l 223 1013 l 344 -129 l 210 -129 "},"≀":{"x_min":107.40625,"x_max":361.28125,"ha":468,"o":"m 361 0 l 211 0 q 143 131 164 70 q 123 257 123 192 q 158 431 123 359 q 162 443 161 438 q 168 457 164 447 q 205 627 205 563 q 181 745 205 686 q 107 870 158 803 l 256 870 q 324 737 303 798 q 345 610 345 677 q 309 437 345 515 q 305 426 306 428 q 300 411 303 422 q 264 242 264 306 q 286 126 264 184 q 361 0 308 69 "},"ᶽ":{"x_min":33.90625,"x_max":505.515625,"ha":587,"o":"m 118 878 l 493 878 l 476 783 l 210 550 l 271 550 q 284 582 277 566 q 408 655 344 655 q 503 564 518 655 q 372 454 486 454 l 322 454 l 313 399 l 236 399 l 246 453 l 33 453 l 50 547 l 318 781 l 101 781 l 118 878 m 389 550 q 447 563 445 550 q 400 582 450 582 q 344 551 363 582 q 356 550 346 550 l 389 550 "},"⪉":{"x_min":132,"x_max":916,"ha":1048,"o":"m 558 313 l 683 266 l 643 130 q 697 123 673 123 q 801 148 749 123 q 916 231 852 174 l 916 66 q 796 -11 851 11 q 683 -35 742 -35 q 597 -21 644 -35 l 574 -98 q 697 -128 649 -128 q 801 -102 749 -128 q 916 -19 852 -77 l 916 -184 q 796 -262 851 -239 q 683 -286 742 -286 q 530 -246 617 -286 l 487 -389 l 362 -342 l 405 -200 q 351 -193 375 -193 q 245 -218 297 -193 q 133 -301 192 -244 l 133 -136 q 252 -58 198 -81 q 365 -35 307 -35 q 451 -49 404 -35 l 474 28 q 351 58 399 58 q 245 31 297 58 q 133 -50 192 5 l 133 114 q 252 191 197 168 q 365 215 306 215 q 518 176 430 215 l 558 313 m 915 710 l 367 568 l 915 426 l 915 261 l 132 489 l 132 649 l 915 875 l 915 710 "},"Ḳ":{"x_min":26.453125,"x_max":1046.421875,"ha":968,"o":"m 204 1013 l 438 1013 l 375 648 l 762 1013 l 1046 1013 l 523 521 l 917 0 l 641 0 l 335 422 l 261 0 l 26 0 l 204 1013 m 476 -295 l 308 -295 l 338 -128 l 506 -128 l 476 -295 "},"ե":{"x_min":48.546875,"x_max":827.640625,"ha":890,"o":"m 359 759 l 827 759 l 797 585 l 329 585 l 295 403 q 279 272 279 309 q 281 213 273 233 q 310 176 290 189 q 357 164 329 164 q 474 222 426 164 q 542 384 524 281 l 561 488 l 779 488 l 694 0 l 475 0 l 494 109 q 372 12 433 43 q 245 -20 312 -20 q 79 60 127 -20 q 57 295 31 141 l 191 1055 l 411 1055 l 359 759 "},"ṙ":{"x_min":38.65625,"x_max":680.875,"ha":616,"o":"m 642 552 q 592 574 619 567 q 533 582 564 582 q 394 522 449 582 q 320 350 339 462 l 257 0 l 38 0 l 171 760 l 391 760 l 367 629 q 475 739 410 701 q 619 778 540 778 q 646 776 632 778 q 680 772 661 775 l 642 552 m 403 1076 l 571 1076 l 541 909 l 373 909 l 403 1076 "},"➟":{"x_min":71,"x_max":986.203125,"ha":1047,"o":"m 425 300 l 279 300 l 279 571 l 425 571 l 425 300 m 230 300 l 157 300 l 157 571 l 230 571 l 230 300 m 108 300 l 71 300 l 71 571 l 108 571 l 108 300 m 719 300 l 474 300 l 474 571 l 719 571 l 719 732 l 986 435 l 719 138 l 719 300 "},"ς":{"x_min":68,"x_max":742.3125,"ha":740,"o":"m 707 537 q 538 604 631 604 q 384 545 445 604 q 305 378 323 485 q 299 318 299 346 q 449 176 299 176 q 576 110 533 176 q 606 -1 606 65 q 599 -63 606 -31 q 518 -229 581 -170 q 352 -289 453 -289 l 379 -136 q 439 -116 421 -136 q 464 -64 464 -89 q 451 -19 464 -39 q 403 0 438 0 q 133 80 199 0 q 68 281 68 161 q 76 379 68 326 q 232 672 109 567 q 539 778 355 778 q 742 735 646 778 l 707 537 "},"ʇ":{"x_min":-30.515625,"x_max":552.703125,"ha":597,"o":"m 156 -215 l 194 0 l -30 0 l 0 173 l 225 173 l 281 495 q 275 567 290 548 q 203 586 259 586 l 90 586 l 121 759 l 308 759 q 481 699 438 759 q 499 495 524 639 l 443 173 l 552 173 l 522 0 l 413 0 l 375 -215 l 156 -215 "},"Ḋ":{"x_min":26.640625,"x_max":983,"ha":1038,"o":"m 511 1289 l 679 1289 l 650 1122 l 483 1122 l 511 1289 m 405 816 l 295 197 l 380 197 q 640 299 544 197 q 736 576 736 402 q 673 755 736 695 q 487 816 611 816 l 405 816 m 204 1013 l 451 1013 q 716 989 628 1013 q 864 911 805 966 q 953 777 923 856 q 983 600 983 699 q 932 340 983 462 q 789 136 881 219 q 601 31 708 62 q 274 0 495 0 l 26 0 l 204 1013 "},"ᵩ":{"x_min":59.59375,"x_max":589.90625,"ha":616,"o":"m 447 429 q 551 380 505 429 q 584 212 604 324 q 356 0 552 24 l 326 -162 l 190 -162 l 219 0 q 64 212 31 24 q 155 376 82 317 q 281 425 217 425 l 265 338 q 234 305 257 337 q 204 225 212 273 q 236 96 189 135 l 261 246 q 447 429 294 429 m 434 328 q 398 246 412 326 l 373 96 q 448 225 429 133 q 454 302 459 276 q 434 328 448 329 "},"⧒":{"x_min":132,"x_max":1117.609375,"ha":1250,"o":"m 1117 -67 l 625 337 l 132 -67 l 132 936 l 625 531 l 1117 936 l 1117 -67 m 507 434 l 276 624 l 276 244 l 507 434 "},"ᶵ":{"x_min":90.875,"x_max":455.734375,"ha":484,"o":"m 335 999 l 314 879 l 455 879 l 438 782 l 297 782 l 265 601 q 270 560 260 571 q 316 550 280 550 l 387 550 l 368 453 q 307 330 354 373 q 178 285 257 285 l 110 285 l 125 375 l 149 375 q 206 392 188 375 q 231 455 222 409 q 142 487 166 455 q 127 601 113 520 l 159 782 l 90 782 l 107 879 l 176 879 l 197 999 l 335 999 "},"ç":{"x_min":46,"x_max":725.765625,"ha":740,"o":"m 725 735 l 691 537 q 604 587 647 570 q 521 604 561 604 q 346 524 414 604 q 279 320 279 444 q 321 197 279 241 q 439 153 363 153 q 540 170 490 153 q 634 221 589 187 l 600 22 q 491 -9 546 1 q 380 -20 436 -20 q 133 60 220 -20 q 46 288 46 140 q 78 469 46 381 q 170 626 110 556 q 322 740 236 703 q 521 778 408 778 q 623 767 572 778 q 725 735 674 756 m 420 0 q 453 -65 443 -35 q 464 -123 464 -94 q 417 -232 464 -193 q 288 -272 371 -272 q 229 -267 258 -272 q 168 -254 199 -263 l 186 -148 q 235 -165 211 -159 q 283 -172 260 -172 q 346 -152 323 -172 q 370 -101 370 -133 q 361 -60 370 -84 q 334 0 353 -37 l 420 0 "},"Ⅼ":{"x_min":26.453125,"x_max":707.328125,"ha":796,"o":"m 204 1012 l 438 1012 l 295 197 l 707 197 l 674 0 l 26 0 l 204 1012 "},"ִ":{"x_min":358.75,"x_max":504.5625,"ha":0,"o":"m 382 -101 l 504 -101 l 480 -237 l 358 -237 l 382 -101 "},"Δ":{"x_min":-82.0625,"x_max":873.484375,"ha":967,"o":"m 873 0 l -82 0 l 432 1012 l 712 1012 l 873 0 m 250 197 l 607 197 l 531 774 l 250 197 "},"‰":{"x_min":69,"x_max":1751,"ha":1817,"o":"m 1539 531 q 1692 473 1634 531 q 1751 320 1751 415 q 1669 74 1751 169 q 1457 -20 1588 -20 q 1303 38 1361 -20 q 1246 192 1246 97 q 1327 437 1246 343 q 1539 531 1408 531 m 1520 417 q 1434 360 1468 417 q 1401 212 1401 303 q 1419 124 1401 153 q 1476 95 1438 95 q 1562 151 1528 95 q 1596 300 1596 208 q 1577 387 1596 358 q 1520 417 1558 417 m 954 417 q 868 360 902 417 q 835 212 835 303 q 853 124 835 153 q 910 95 872 95 q 996 151 962 95 q 1030 300 1030 208 q 1010 387 1030 358 q 954 417 991 417 m 972 531 q 1125 473 1067 531 q 1183 320 1183 415 q 1102 74 1183 168 q 890 -20 1021 -20 q 737 38 795 -20 q 680 192 680 97 q 760 437 680 343 q 972 531 841 531 m 324 -20 l 175 -20 l 929 1030 l 1078 1030 l 324 -20 m 362 1031 q 515 972 457 1031 q 573 819 573 914 q 491 573 573 667 q 279 479 410 479 q 126 536 184 479 q 69 690 69 594 q 150 935 69 840 q 362 1031 231 1031 m 343 917 q 257 859 290 917 q 224 712 224 802 q 242 622 224 652 q 298 592 261 592 q 384 649 351 592 q 418 800 418 707 q 399 887 418 857 q 343 917 380 917 "},"Ä":{"x_min":-80.703125,"x_max":864.671875,"ha":967,"o":"m 614 185 l 250 185 l 160 1 l -80 1 l 434 1013 l 703 1013 l 864 1 l 640 1 l 614 185 m 339 369 l 583 369 l 528 759 l 339 369 m 409 1289 l 553 1289 l 524 1122 l 381 1122 l 409 1289 m 650 1289 l 796 1289 l 765 1122 l 621 1122 l 650 1289 "},"Ṣ":{"x_min":18.625,"x_max":831.1875,"ha":900,"o":"m 831 980 l 793 766 q 656 823 723 804 q 525 842 589 842 q 388 811 437 842 q 339 726 339 780 q 360 672 339 692 q 450 635 382 653 l 546 608 q 724 510 668 574 q 781 345 781 446 q 668 80 781 180 q 365 -19 555 -19 q 189 0 277 -19 q 18 53 102 17 l 55 273 q 213 195 136 221 q 364 170 289 170 q 495 206 445 170 q 546 300 546 243 q 523 358 546 337 q 423 400 500 378 l 328 427 q 170 519 221 456 q 119 682 119 582 q 227 935 119 840 q 521 1031 336 1031 q 672 1018 595 1031 q 831 980 750 1005 m 399 -295 l 232 -295 l 261 -128 l 429 -128 l 399 -295 "},"⣰":{"x_min":183,"x_max":793,"ha":976,"o":"m 549 724 l 793 724 l 793 453 l 549 453 l 549 724 m 549 362 l 793 362 l 793 91 l 549 91 l 549 362 m 183 0 l 427 0 l 427 -271 l 183 -271 l 183 0 m 549 0 l 793 0 l 793 -271 l 549 -271 l 549 0 "},"—":{"x_min":29.84375,"x_max":1176.625,"ha":1250,"o":"m 61 468 l 1176 468 l 1145 293 l 29 293 l 61 468 "},"N":{"x_min":26.453125,"x_max":1019.96875,"ha":1046,"o":"m 204 1013 l 466 1013 l 674 311 l 797 1013 l 1019 1013 l 842 0 l 579 0 l 370 701 l 248 0 l 26 0 l 204 1013 "},"⇄":{"x_min":61,"x_max":986,"ha":1047,"o":"m 61 184 l 61 280 l 300 546 l 389 448 l 268 314 l 976 314 l 976 151 l 268 151 l 389 16 l 300 -81 l 61 184 m 986 687 l 986 591 l 746 325 l 657 423 l 778 558 l 71 558 l 71 721 l 778 721 l 657 855 l 746 953 l 986 687 "},"ⅺ":{"x_min":-50.859375,"x_max":1225.453125,"ha":1211,"o":"m 277 387 l 95 759 l 322 759 l 424 533 l 601 759 l 839 759 l 528 389 l 718 -1 l 491 -1 l 383 239 l 186 -1 l -50 -1 l 277 387 m 954 759 l 1174 759 l 1040 -1 l 821 -1 l 954 759 m 1005 1055 l 1225 1055 l 1190 857 l 970 857 l 1005 1055 "},"2":{"x_min":9.96875,"x_max":801,"ha":870,"o":"m 309 192 l 705 192 l 672 0 l 9 0 l 44 193 l 431 518 q 528 628 495 572 q 562 736 562 684 q 527 822 562 791 q 431 853 493 853 q 302 827 374 853 q 141 749 231 802 l 180 964 q 343 1014 263 997 q 501 1031 423 1031 q 720 964 640 1031 q 801 782 801 897 q 752 601 801 683 q 536 382 703 520 l 309 192 "},"וֹ":{"x_min":16.28125,"x_max":375.703125,"ha":428,"o":"m 253 1004 l 375 1004 l 352 868 l 230 868 l 253 1004 m 234 0 l 125 0 l 16 0 l 149 760 l 258 760 l 367 760 l 234 0 m 16 542 l 16 542 "},"☘":{"x_min":97,"x_max":1023,"ha":1120,"o":"m 542 526 l 410 735 q 365 881 365 805 q 418 997 365 953 q 464 1012 441 1012 q 544 975 518 1012 q 598 975 571 938 q 660 1012 625 1012 q 750 934 716 1012 q 759 881 759 906 q 703 716 759 794 l 582 528 l 779 596 q 937 604 863 630 q 980 577 959 596 q 1023 488 1023 533 q 1018 459 1023 474 q 967 404 1008 421 q 950 349 927 388 q 957 252 974 309 q 930 208 950 227 q 857 181 895 181 q 815 189 836 181 q 704 281 750 212 l 577 469 q 515 0 603 201 l 457 0 q 542 469 566 200 l 416 281 q 305 189 369 212 q 263 181 283 181 q 190 208 224 181 q 162 252 169 227 q 169 349 145 309 q 152 404 192 388 q 101 459 112 421 q 97 487 97 474 q 139 577 97 533 q 182 604 161 596 q 340 596 256 630 l 542 526 "},"῁":{"x_min":189.890625,"x_max":675.453125,"ha":625,"o":"m 437 1143 l 406 1168 q 382 1185 392 1181 q 361 1190 372 1190 q 323 1168 339 1190 q 301 1109 307 1146 l 217 1109 q 273 1242 233 1195 q 370 1289 313 1289 q 413 1280 394 1289 q 455 1254 433 1272 l 486 1227 q 507 1213 497 1218 q 528 1209 518 1209 q 568 1229 552 1209 q 590 1289 584 1250 l 675 1289 q 619 1155 659 1202 q 522 1109 579 1109 q 479 1116 499 1109 q 437 1143 460 1123 m 218 1075 l 363 1075 l 333 908 l 189 908 l 218 1075 m 461 1075 l 604 1075 l 575 908 l 431 908 l 461 1075 "},"ǃ":{"x_min":34.3125,"x_max":432.390625,"ha":465,"o":"m 211 1013 l 432 1013 l 363 624 l 283 341 l 134 341 l 134 624 l 211 1013 m 77 241 l 296 241 l 254 0 l 34 0 l 77 241 "},"⠩":{"x_min":183,"x_max":793,"ha":976,"o":"m 183 1085 l 427 1085 l 427 814 l 183 814 l 183 1085 m 549 1085 l 793 1085 l 793 814 l 549 814 l 549 1085 m 549 361 l 793 361 l 793 90 l 549 90 l 549 361 "},"ḩ":{"x_min":-55.09375,"x_max":817,"ha":890,"o":"m 806 462 l 724 0 l 505 0 l 575 396 q 586 461 582 434 q 590 504 590 488 q 568 571 590 547 q 507 595 546 595 q 390 536 439 595 q 323 373 342 477 l 257 0 l 38 0 l 222 1055 l 441 1055 l 370 648 q 492 746 431 714 q 619 778 553 778 q 765 723 714 778 q 817 568 817 668 q 814 520 817 546 q 806 462 811 493 m 197 0 q 230 -65 220 -36 q 241 -124 241 -95 q 194 -233 241 -194 q 65 -273 148 -273 q 5 -268 35 -273 q -55 -255 -23 -264 l -36 -149 q 12 -166 -12 -160 q 60 -173 37 -173 q 123 -153 100 -173 q 147 -102 147 -134 q 138 -61 147 -84 q 111 0 130 -38 l 197 0 "},"Ў":{"x_min":96.015625,"x_max":1015.609375,"ha":964,"o":"m 125 1012 l 370 1012 l 491 551 l 768 1013 l 1015 1013 l 509 168 q 432 73 475 110 q 138 0 346 0 l 96 0 l 130 197 l 195 197 q 308 243 280 197 l 321 264 l 125 1012 m 429 1288 l 516 1288 q 547 1228 522 1247 q 620 1210 572 1210 q 696 1230 664 1210 q 742 1288 728 1251 l 835 1288 q 751 1154 812 1200 q 601 1109 691 1109 q 473 1154 517 1109 q 429 1285 429 1200 l 429 1288 "},"𝞣":{"x_min":59.671875,"x_max":935.203125,"ha":852,"o":"m 94 1012 l 935 1012 l 900 815 l 597 815 l 454 0 l 219 0 l 362 815 l 59 815 l 94 1012 "},"⋎":{"x_min":61.03125,"x_max":953.5,"ha":1014,"o":"m 61 804 l 290 804 q 507 404 432 623 q 724 804 583 623 l 953 804 q 600 0 661 544 l 413 0 q 61 804 353 544 "},"𝞑":{"x_min":25.984375,"x_max":874,"ha":952,"o":"m 499 621 q 597 656 562 621 q 633 753 633 691 q 608 814 633 793 q 537 835 583 835 l 405 835 l 368 621 l 499 621 m 429 178 q 553 220 510 178 q 597 343 597 263 q 567 418 597 394 q 475 443 537 443 l 337 443 l 290 178 l 429 178 m 708 542 q 800 472 767 523 q 833 347 833 422 q 723 91 833 183 q 415 0 613 0 l 25 0 l 203 1013 l 555 1013 q 795 960 717 1013 q 874 796 874 907 q 828 633 874 703 q 708 542 782 563 "},"𝕊":{"x_min":90,"x_max":809,"ha":901,"o":"m 233 885 q 163 716 163 827 q 209 572 163 635 q 372 475 255 509 l 463 448 q 620 355 583 412 q 656 194 656 297 q 638 100 656 139 q 736 311 736 153 q 687 467 736 403 q 511 565 639 531 l 412 592 q 253 698 290 625 q 230 836 230 747 q 233 885 230 872 m 749 868 q 602 937 674 914 q 467 961 531 961 q 343 929 383 961 q 303 831 303 897 q 330 719 303 748 q 429 672 357 691 l 528 644 q 744 518 680 604 q 809 311 809 433 q 719 61 809 143 q 446 -20 630 -20 q 272 -1 359 -20 q 98 52 185 16 l 98 185 q 266 92 185 123 q 424 61 348 61 q 541 95 500 61 q 583 192 583 129 q 555 313 583 283 q 444 369 528 344 l 353 396 q 152 522 214 438 q 90 716 90 606 q 178 949 90 868 q 430 1031 266 1031 q 584 1018 505 1031 q 749 980 664 1005 l 749 868 "},"ǚ":{"x_min":75,"x_max":851.359375,"ha":889,"o":"m 647 1094 l 434 1094 l 351 1273 l 456 1273 l 546 1163 l 687 1273 l 796 1273 l 647 1094 m 349 1073 l 493 1073 l 464 906 l 321 906 l 349 1073 m 590 1073 l 736 1073 l 705 906 l 561 906 l 590 1073 m 84 295 l 164 759 l 383 759 l 314 363 q 303 297 307 325 q 300 255 300 270 q 321 188 300 212 q 382 165 342 165 q 498 223 449 165 q 565 385 547 281 l 631 760 l 851 760 l 718 0 l 498 0 l 518 110 q 400 12 462 45 q 270 -20 338 -20 q 126 34 177 -20 q 75 190 75 89 q 77 240 75 213 q 84 295 79 266 "},"⊇":{"x_min":124,"x_max":923,"ha":1047,"o":"m 891 142 l 891 0 l 124 0 l 124 142 l 891 142 m 625 883 q 836 786 750 883 q 923 551 923 688 q 836 316 923 414 q 625 220 750 220 l 124 220 l 124 373 l 625 373 q 739 425 692 373 q 786 551 786 476 q 739 677 786 625 q 625 730 693 730 l 124 730 l 124 883 l 625 883 "},"ᒔ":{"x_min":100.375,"x_max":1271.4375,"ha":1286,"o":"m 129 589 l 296 589 l 267 422 l 100 422 l 129 589 m 1028 682 q 1004 799 1041 756 q 905 843 966 843 q 798 801 847 843 q 735 682 749 760 l 615 0 l 381 0 l 500 682 q 653 941 530 850 q 939 1032 775 1032 q 1208 943 1122 1032 q 1263 682 1293 855 l 1028 682 "},"Վ":{"x_min":144.28125,"x_max":1096.765625,"ha":1230,"o":"m 855 173 l 870 173 q 1065 99 1007 173 q 1087 -108 1113 37 l 1079 -156 l 923 -156 l 929 -122 q 916 -25 941 -51 q 832 0 891 0 l 590 0 l 636 260 q 474 239 552 239 q 197 344 271 239 q 155 664 119 453 l 172 759 l 407 759 l 391 664 q 396 485 368 538 q 508 431 424 431 q 638 485 591 431 q 706 664 684 538 l 767 1012 l 1002 1012 l 855 173 "},"⪆":{"x_min":132,"x_max":916,"ha":1048,"o":"m 916 231 l 916 66 q 796 -11 851 11 q 683 -35 742 -35 q 530 4 618 -35 q 516 10 522 8 q 503 16 512 12 q 351 58 409 58 q 245 31 297 58 q 133 -50 192 5 l 133 114 q 252 191 197 168 q 365 215 306 215 q 522 174 432 215 q 531 170 528 172 q 545 164 536 168 q 697 123 639 123 q 801 148 749 123 q 916 231 852 174 m 916 -19 l 916 -184 q 796 -262 851 -239 q 683 -286 742 -286 q 530 -246 618 -286 q 516 -239 522 -242 q 503 -234 512 -238 q 351 -193 409 -193 q 245 -218 297 -193 q 133 -301 192 -244 l 133 -136 q 252 -58 198 -81 q 365 -35 307 -35 q 518 -74 430 -35 q 531 -80 527 -78 q 545 -85 536 -82 q 697 -128 639 -128 q 801 -102 749 -128 q 916 -19 852 -77 m 132 710 l 132 875 l 915 649 l 915 489 l 132 261 l 132 426 l 680 568 l 132 710 "},"•":{"x_min":180,"x_max":619,"ha":799,"o":"m 180 517 q 195 611 180 567 q 243 689 211 655 q 315 742 275 724 q 399 760 355 760 q 483 741 443 760 q 554 689 524 723 q 602 610 586 654 q 619 517 619 566 q 602 422 619 466 q 554 343 585 377 q 483 290 523 308 q 398 272 443 272 q 314 290 353 272 q 243 343 274 308 q 196 422 212 377 q 180 517 180 466 "},"Ἲ":{"x_min":37.296875,"x_max":944.6875,"ha":970,"o":"m 710 1013 l 944 1013 l 767 0 l 532 0 l 710 1013 m 83 1090 l 250 1090 l 238 1021 q 37 826 204 826 l 51 909 q 157 1000 141 909 l 67 1000 l 83 1090 m 480 1111 l 607 856 l 487 856 l 307 1111 l 480 1111 "},"⠢":{"x_min":183,"x_max":793,"ha":976,"o":"m 183 723 l 427 723 l 427 452 l 183 452 l 183 723 m 549 361 l 793 361 l 793 90 l 549 90 l 549 361 "},"◊":{"x_min":3.390625,"x_max":613.75,"ha":617,"o":"m 308 955 l 73 401 l 308 -158 l 543 401 l 308 955 m 308 1121 l 613 401 l 308 -323 l 3 401 l 308 1121 "},"ḅ":{"x_min":38.625,"x_max":846,"ha":895,"o":"m 507 601 q 369 514 423 601 q 316 289 316 428 q 346 191 316 227 q 429 156 376 156 q 566 241 512 156 q 620 459 620 326 q 591 564 620 528 q 507 601 562 601 m 278 109 l 257 0 l 38 0 l 222 1055 l 442 1055 l 370 647 q 476 745 421 714 q 596 777 531 777 q 778 695 711 777 q 846 474 846 614 q 822 303 846 386 q 755 153 799 221 q 629 24 699 68 q 479 -20 559 -20 q 360 11 409 -20 q 278 109 311 42 m 461 -296 l 294 -296 l 324 -129 l 492 -129 l 461 -296 "},"ᾃ":{"x_min":47,"x_max":864.46875,"ha":858,"o":"m 640 686 l 675 760 l 864 760 l 676 368 l 676 264 q 716 153 676 153 l 766 153 l 739 0 l 677 0 q 540 57 580 0 q 530 76 532 69 q 460 8 493 35 q 289 -17 427 -17 q 75 86 124 -17 q 47 225 47 146 q 61 389 47 305 q 180 670 96 588 q 458 776 288 776 q 640 686 595 776 m 507 399 l 507 510 q 426 613 507 613 q 342 554 386 613 q 277 377 298 495 q 267 274 267 317 q 277 204 267 231 q 346 150 299 150 q 439 252 392 150 l 507 399 m 403 1090 l 387 1000 l 298 1000 q 372 909 282 909 l 357 826 q 224 1021 190 826 l 236 1090 l 403 1090 m 620 1110 l 747 856 l 627 856 l 447 1110 l 620 1110 m 374 -289 l 265 -289 q 233 -165 212 -289 l 251 -62 l 370 -62 l 353 -166 q 371 -237 340 -237 l 383 -237 l 374 -289 "},"ᴌ":{"x_min":-31.875,"x_max":592.046875,"ha":673,"o":"m 172 759 l 393 759 l 356 545 l 461 616 l 511 512 l 328 389 l 295 197 l 592 197 l 557 0 l 39 0 l 85 263 l 17 218 l -31 322 l 113 420 l 172 759 "},"⇍":{"x_min":61,"x_max":976,"ha":1047,"o":"m 545 141 l 453 200 l 492 276 l 339 276 l 389 219 l 301 121 l 61 388 l 61 482 l 301 749 l 389 651 l 339 595 l 658 595 l 728 729 l 820 670 l 781 595 l 976 595 l 976 486 l 724 486 l 672 385 l 976 385 l 976 276 l 615 276 l 545 141 m 601 486 l 241 486 l 195 435 l 241 385 l 549 385 l 601 486 "},"Ầ":{"x_min":-80.703125,"x_max":948.078125,"ha":967,"o":"m 860 1469 l 948 1290 l 839 1290 l 699 1469 l 860 1469 m 503 1289 l 715 1289 l 808 1110 l 704 1110 l 604 1219 l 463 1110 l 354 1110 l 503 1289 m 614 185 l 250 185 l 160 1 l -80 1 l 434 1013 l 703 1013 l 864 1 l 640 1 l 614 185 m 339 369 l 583 369 l 528 759 l 339 369 "},"✸":{"x_min":51.546875,"x_max":996.234375,"ha":1047,"o":"m 523 1031 l 627 784 l 857 877 l 773 621 l 996 505 l 773 390 l 857 134 l 627 227 l 523 -19 l 419 227 l 189 134 l 273 390 l 51 505 l 273 621 l 189 877 l 419 784 l 523 1031 "},"Ỹ":{"x_min":78.671875,"x_max":1011.15625,"ha":905,"o":"m 578 1143 l 547 1168 q 523 1185 533 1181 q 502 1190 513 1190 q 464 1168 480 1190 q 442 1109 448 1146 l 358 1109 q 414 1242 374 1195 q 512 1289 454 1289 q 554 1280 535 1289 q 596 1254 574 1272 l 627 1227 q 649 1213 638 1218 q 670 1209 659 1209 q 709 1229 693 1209 q 731 1289 725 1250 l 816 1289 q 760 1155 800 1202 q 663 1109 720 1109 q 620 1116 640 1109 q 578 1143 601 1123 m 78 1013 l 314 1013 l 468 637 l 739 1013 l 1011 1013 l 561 422 l 487 0 l 252 0 l 326 422 l 78 1013 "},"✫":{"x_min":28.953125,"x_max":1017.359375,"ha":1047,"o":"m 599 659 q 523 676 563 676 q 447 659 482 676 q 383 611 412 641 q 340 539 354 577 q 326 454 326 499 q 340 370 326 410 q 383 298 354 332 q 447 250 412 267 q 523 234 482 234 q 599 250 563 234 q 662 298 633 267 q 706 370 692 332 q 721 454 721 410 q 706 539 721 499 q 662 611 692 577 q 599 659 633 641 m 523 1032 l 639 633 l 1017 633 l 712 386 l 828 -12 l 523 234 l 217 -12 l 334 386 l 28 633 l 406 633 l 523 1032 "},"⢬":{"x_min":183,"x_max":793,"ha":976,"o":"m 183 362 l 427 362 l 427 91 l 183 91 l 183 362 m 549 1085 l 793 1085 l 793 814 l 549 814 l 549 1085 m 549 362 l 793 362 l 793 91 l 549 91 l 549 362 m 549 0 l 793 0 l 793 -271 l 549 -271 l 549 0 "},"✺":{"x_min":68,"x_max":979,"ha":1047,"o":"m 487 710 l 487 1013 l 560 1013 l 560 712 l 663 989 l 731 958 l 627 680 l 819 893 l 871 835 l 679 622 l 930 738 l 958 662 l 706 547 l 979 547 l 979 466 l 709 466 l 958 350 l 930 275 l 679 391 l 871 177 l 819 119 l 628 332 l 731 54 l 663 23 l 560 300 l 560 0 l 487 0 l 487 301 l 383 23 l 315 54 l 419 333 l 227 119 l 175 177 l 367 390 l 116 275 l 87 350 l 338 466 l 68 466 l 68 547 l 340 547 l 87 662 l 116 738 l 366 623 l 175 835 l 227 893 l 418 681 l 315 958 l 383 989 l 487 710 "},"✢":{"x_min":51.515625,"x_max":996.171875,"ha":1047,"o":"m 493 540 l 493 561 q 447 771 493 688 q 420 898 420 818 q 453 998 420 966 q 523 1031 487 1031 q 595 998 560 1031 q 628 898 628 966 q 601 771 628 818 q 554 561 554 688 l 554 540 l 573 540 q 762 591 687 540 q 876 622 804 622 q 967 585 937 622 q 996 506 996 547 q 967 427 996 465 q 876 391 937 391 q 762 420 804 391 q 573 472 687 472 l 554 472 l 554 450 q 601 241 554 323 q 628 114 628 194 q 595 13 628 46 q 523 -19 560 -19 q 453 13 487 -19 q 420 114 420 46 q 447 241 420 194 q 493 450 493 323 l 493 472 l 473 472 q 285 420 360 472 q 170 391 242 391 q 80 427 109 391 q 51 506 51 465 q 80 585 51 547 q 170 622 109 622 q 285 591 242 622 q 473 540 360 540 l 493 540 "},"ẽ":{"x_min":45,"x_max":800,"ha":847,"o":"m 785 350 l 778 312 l 267 312 q 266 300 267 307 q 265 288 265 292 q 305 177 265 214 q 425 141 345 141 q 571 164 494 141 q 732 232 647 187 l 698 44 q 539 -4 618 11 q 378 -20 460 -20 q 131 62 218 -20 q 45 293 45 144 q 72 462 45 380 q 153 611 99 543 q 304 734 216 692 q 498 777 391 777 q 718 694 637 777 q 800 474 800 612 q 796 416 800 446 q 785 350 793 386 m 579 462 q 582 479 582 470 q 582 497 582 489 q 552 584 582 552 q 473 616 523 616 q 365 576 410 616 q 296 462 320 537 l 579 462 m 535 924 l 504 950 q 498 954 503 951 q 457 975 475 975 q 421 951 437 975 q 399 888 405 928 l 313 888 q 369 1030 329 980 q 467 1080 409 1080 q 509 1070 489 1080 q 552 1041 529 1061 l 584 1012 q 606 996 596 1001 q 626 991 616 991 q 665 1013 649 991 q 687 1078 681 1036 l 772 1078 q 716 936 756 986 q 620 886 677 886 q 580 893 599 886 q 535 924 562 901 "},"ĕ":{"x_min":45,"x_max":800,"ha":847,"o":"m 348 1088 l 434 1088 l 434 1082 q 460 1014 434 1038 q 535 991 486 991 q 616 1015 584 991 q 665 1088 647 1039 l 757 1088 q 674 939 737 991 q 517 887 612 887 q 389 929 432 887 q 346 1053 346 971 q 346 1074 346 1067 q 348 1088 346 1081 m 785 350 l 778 312 l 267 312 q 266 300 267 307 q 265 288 265 292 q 305 177 265 214 q 425 141 345 141 q 571 164 494 141 q 732 232 647 187 l 698 44 q 539 -4 618 11 q 378 -20 460 -20 q 131 62 218 -20 q 45 293 45 144 q 72 462 45 380 q 153 611 99 543 q 304 734 216 692 q 498 777 391 777 q 718 694 637 777 q 800 474 800 612 q 796 416 800 446 q 785 350 793 386 m 579 462 q 582 479 582 470 q 582 497 582 489 q 552 584 582 552 q 473 616 523 616 q 365 576 410 616 q 296 462 320 537 l 579 462 "},"ż":{"x_min":-10.171875,"x_max":733.09375,"ha":727,"o":"m 415 1055 l 582 1055 l 552 888 l 384 888 l 415 1055 m 136 759 l 733 759 l 703 590 l 277 173 l 630 173 l 600 0 l -10 0 l 18 169 l 445 586 l 107 586 l 136 759 "},"⏏":{"x_min":113,"x_max":1067,"ha":1180,"o":"m 1067 456 l 113 456 l 589 827 l 1067 456 m 1067 0 l 113 0 l 113 342 l 1067 342 l 1067 0 "},"⠸":{"x_min":549,"x_max":793,"ha":976,"o":"m 549 1085 l 793 1085 l 793 814 l 549 814 l 549 1085 m 549 723 l 793 723 l 793 452 l 549 452 l 549 723 m 549 361 l 793 361 l 793 90 l 549 90 l 549 361 "},"➆":{"x_min":5,"x_max":1041,"ha":1046,"o":"m 698 976 q 523 1015 617 1015 q 347 976 429 1015 q 200 864 266 939 q 99 700 132 789 q 66 503 66 609 q 99 310 66 401 q 200 146 132 221 q 347 34 266 70 q 523 -4 429 -4 q 698 34 617 -4 q 845 146 779 70 q 946 310 913 221 q 980 503 980 401 q 946 700 980 609 q 845 864 913 789 q 698 976 779 939 m 286 911 l 755 911 l 755 864 l 490 100 l 387 100 l 636 819 l 286 819 l 286 911 m 324 1039 q 523 1083 417 1083 q 722 1039 629 1083 q 889 912 813 997 q 1003 726 966 827 q 1041 503 1041 623 q 1003 284 1041 386 q 889 97 966 183 q 722 -28 813 13 q 523 -72 629 -72 q 324 -28 417 -72 q 156 98 232 13 q 43 284 80 183 q 5 503 5 387 q 43 726 5 623 q 156 912 80 827 q 324 1039 232 997 "},"שׁ":{"x_min":40.6875,"x_max":1166.453125,"ha":1185,"o":"m 1044 987 l 1166 987 l 1142 851 l 1020 851 l 1044 987 m 346 500 q 505 578 458 514 q 559 760 534 616 l 779 760 q 675 459 739 532 q 328 350 578 350 q 320 350 324 350 l 293 197 q 309 197 301 197 q 596 226 442 197 q 821 378 737 251 q 943 760 901 506 l 1161 760 q 992 250 1108 450 q 453 0 847 0 l 259 0 l 40 0 l 173 760 l 391 760 l 346 500 m 820 599 l 820 599 m 480 0 l 480 0 "},"ȼ":{"x_min":-75.28125,"x_max":815.84375,"ha":741,"o":"m -17 -64 l -75 0 l 71 144 q 54 379 29 238 q 210 672 86 566 q 517 778 332 778 q 621 767 571 778 q 684 749 653 761 l 761 825 l 815 757 l 704 647 l 685 538 q 632 576 659 561 l 290 238 q 303 212 295 224 q 436 153 344 153 q 535 170 486 153 q 630 220 585 187 l 595 22 q 486 -9 540 1 q 377 -20 430 -20 q 120 70 206 -20 l -17 -64 m 277 347 l 536 604 q 514 604 525 604 q 362 545 423 604 q 282 379 300 485 q 277 347 278 362 "},"Ӟ":{"x_min":-0.109375,"x_max":835,"ha":887,"o":"m 380 1288 l 524 1288 l 495 1121 l 351 1121 l 380 1288 m 620 1288 l 767 1288 l 736 1121 l 592 1121 l 620 1288 m 256 605 l 374 605 q 529 635 480 605 q 588 729 577 666 q 591 754 591 742 q 558 823 591 795 q 441 852 525 852 q 278 835 356 852 q 154 795 200 818 l 187 986 q 324 1016 231 1002 q 473 1030 416 1030 q 835 820 835 1030 q 830 770 835 797 q 625 545 800 592 q 774 348 774 500 q 768 287 774 317 q 289 -20 713 -20 q 0 30 126 -20 l 35 231 q 156 176 94 195 q 314 158 217 158 q 467 193 410 158 q 537 324 537 238 q 496 405 537 373 q 339 437 456 437 l 227 437 l 256 605 "},"Ѐ":{"x_min":26.453125,"x_max":837.53125,"ha":854,"o":"m 592 1288 l 680 1109 l 571 1109 l 431 1288 l 592 1288 m 204 1013 l 837 1013 l 802 816 l 404 816 l 370 627 l 746 627 l 710 430 l 336 430 l 295 197 l 707 197 l 674 0 l 26 0 l 204 1013 "},"𝌉":{"x_min":104,"x_max":1017,"ha":1121,"o":"m 104 396 l 475 396 l 475 260 l 104 260 l 104 396 m 646 396 l 1017 396 l 1017 260 l 646 260 l 646 396 m 104 657 l 1017 657 l 1017 521 l 104 521 l 104 657 m 104 136 l 1017 136 l 1017 0 l 104 0 l 104 136 m 104 917 l 1017 917 l 1017 781 l 104 781 l 104 917 "},"⡢":{"x_min":183,"x_max":793,"ha":976,"o":"m 183 724 l 427 724 l 427 453 l 183 453 l 183 724 m 549 362 l 793 362 l 793 91 l 549 91 l 549 362 m 183 0 l 427 0 l 427 -271 l 183 -271 l 183 0 "},"︈":{"x_min":0,"x_max":0,"ha":0},"ʨ":{"x_min":41.71875,"x_max":1153.234375,"ha":1161,"o":"m 436 975 l 399 759 l 624 759 l 601 632 q 643 672 620 653 q 950 777 766 777 q 1054 767 1004 777 q 1153 735 1105 756 l 1118 537 q 1037 587 1080 571 q 947 604 995 604 q 795 545 856 604 q 715 378 733 485 q 715 263 702 311 q 902 386 799 386 q 1062 220 1078 386 l 1063 220 l 1061 218 q 1058 198 1061 209 q 810 -20 1023 -20 q 742 -18 747 -20 q 731 -95 738 -57 l 607 -95 q 627 16 618 -31 q 540 85 576 41 q 499 155 515 116 l 473 0 l 285 0 q 112 59 155 0 q 94 263 68 119 l 150 586 l 41 586 l 72 759 l 180 759 l 218 975 l 436 975 m 784 171 q 849 156 812 156 q 852 156 851 156 q 948 192 942 156 q 876 244 955 244 q 784 171 826 244 m 565 586 l 368 586 l 312 263 q 319 192 302 210 q 390 173 334 173 l 493 173 q 487 379 466 259 q 565 586 508 499 "},"⡔":{"x_min":183,"x_max":793,"ha":976,"o":"m 183 362 l 427 362 l 427 91 l 183 91 l 183 362 m 549 724 l 793 724 l 793 453 l 549 453 l 549 724 m 183 0 l 427 0 l 427 -271 l 183 -271 l 183 0 "},"⟅":{"x_min":1,"x_max":547,"ha":571,"o":"m 393 -227 q 326 -227 387 -227 q 231 -219 264 -227 q 1 9 1 -170 q 5 66 1 36 q 198 512 26 190 q 376 864 370 834 q 379 885 379 876 q 343 919 379 919 q 281 874 307 919 l 162 942 q 387 1067 252 1067 l 388 1067 q 547 926 547 1067 q 378 536 547 850 q 185 111 206 216 q 179 58 179 82 q 305 -63 179 -51 q 370 -72 347 -67 q 403 -75 386 -75 q 419 -74 411 -75 l 393 -227 "},"↔":{"x_min":61,"x_max":986,"ha":1047,"o":"m 61 387 l 61 483 l 301 749 l 389 651 l 268 517 l 778 517 l 657 651 l 746 749 l 986 483 l 986 387 l 746 121 l 657 219 l 778 354 l 268 354 l 389 219 l 301 121 l 61 387 "},"ⱬ":{"x_min":6.78125,"x_max":757.515625,"ha":727,"o":"m 154 759 l 750 759 l 721 590 l 288 173 l 757 173 l 693 -191 l 474 -191 l 508 0 l 6 0 l 35 169 l 469 586 l 124 586 l 154 759 "},"ᾦ":{"x_min":41,"x_max":1043,"ha":1086,"o":"m 529 -289 l 420 -289 q 388 -165 366 -289 l 406 -62 l 525 -62 l 508 -166 q 526 -237 495 -237 l 538 -237 l 529 -289 m 672 1143 l 642 1168 q 617 1185 628 1181 q 596 1190 607 1190 q 559 1168 575 1190 q 536 1109 543 1146 l 453 1109 q 508 1242 468 1195 q 606 1289 548 1289 q 649 1280 629 1289 q 690 1254 668 1272 l 722 1227 q 743 1213 732 1218 q 764 1209 754 1209 q 804 1229 788 1209 q 826 1289 820 1250 l 911 1289 q 854 1155 894 1202 q 758 1109 814 1109 q 715 1116 734 1109 q 672 1143 695 1123 m 544 1090 l 712 1090 l 700 1021 q 498 826 666 826 l 512 909 q 618 1000 602 909 l 529 1000 l 544 1090 m 509 176 q 253 -19 453 -19 q 41 234 41 -19 q 55 384 41 300 q 240 759 86 558 l 427 759 q 283 387 320 599 q 272 278 272 323 q 332 174 272 174 q 453 482 401 174 l 671 482 q 645 258 645 343 q 684 174 645 174 q 808 387 770 174 q 823 571 823 476 q 793 759 823 666 l 980 759 q 1043 478 1043 611 q 1034 384 1043 430 q 695 -19 964 -19 q 508 152 508 -19 q 509 176 508 164 "},"Ὤ":{"x_min":36.859375,"x_max":1297,"ha":1344,"o":"m 82 1090 l 250 1090 l 238 1021 q 36 826 204 826 l 51 909 q 156 1000 140 909 l 67 1000 l 82 1090 m 447 1110 l 626 1110 l 358 855 l 236 855 l 447 1110 m 535 891 q 903 1031 684 1031 q 1223 891 1122 1031 q 1297 648 1297 788 q 1286 541 1297 597 q 1067 197 1245 304 l 1255 197 l 1220 0 l 802 0 l 839 211 q 886 245 865 225 q 1042 535 1012 364 q 1050 637 1050 579 q 1021 753 1050 696 q 870 842 978 842 q 687 753 762 842 q 590 535 613 665 q 583 449 583 490 q 645 245 583 332 q 680 211 659 225 l 643 0 l 225 0 l 260 197 l 447 197 q 340 439 340 280 q 348 541 340 487 q 535 891 386 751 "},"һ":{"x_min":38.65625,"x_max":817,"ha":890,"o":"m 806 462 l 724 0 l 505 0 l 575 396 q 586 461 582 434 q 590 504 590 488 q 568 571 590 547 q 507 595 546 595 q 390 536 439 595 q 323 373 342 477 l 257 0 l 38 0 l 222 1055 l 442 1055 l 370 648 q 492 746 431 714 q 619 778 553 778 q 765 723 714 778 q 817 568 817 668 q 814 520 817 546 q 806 462 811 493 "},"ᓧ":{"x_min":45.984375,"x_max":1444.5,"ha":1535,"o":"m 1277 589 l 1444 589 l 1415 422 l 1248 422 l 1277 589 m 1107 197 l 1072 0 l 379 0 q 107 85 189 0 q 53 339 24 171 q 180 568 79 487 q 493 650 282 650 l 459 453 q 342 423 378 453 q 295 339 305 393 q 314 234 284 271 q 413 197 345 197 l 1107 197 "}}}
